<?xml version="1.0" encoding="utf-8" standalone="no"?>
<!DOCTYPE svg PUBLIC "-//W3C//DTD SVG 1.1//EN"
  "http://www.w3.org/Graphics/SVG/1.1/DTD/svg11.dtd">
<svg xmlns:xlink="http://www.w3.org/1999/xlink" width="722.278125pt" height="439.982644pt" viewBox="0 0 722.278125 439.982644" xmlns="http://www.w3.org/2000/svg" version="1.1">
 <metadata>
  <rdf:RDF xmlns:dc="http://purl.org/dc/elements/1.1/" xmlns:cc="http://creativecommons.org/ns#" xmlns:rdf="http://www.w3.org/1999/02/22-rdf-syntax-ns#">
   <cc:Work>
    <dc:type rdf:resource="http://purl.org/dc/dcmitype/StillImage"/>
    <dc:date>2026-06-11T03:05:33.770220</dc:date>
    <dc:format>image/svg+xml</dc:format>
    <dc:creator>
     <cc:Agent>
      <dc:title>Matplotlib v3.10.9, https://matplotlib.org/</dc:title>
     </cc:Agent>
    </dc:creator>
   </cc:Work>
  </rdf:RDF>
 </metadata>
 <defs>
  <style type="text/css">*{stroke-linejoin: round; stroke-linecap: butt}</style>
 </defs>
 <g id="figure_1">
  <g id="patch_1">
   <path d="M 0 439.982644 
L 722.278125 439.982644 
L 722.278125 0 
L 0 0 
z
" style="fill: #ffffff"/>
  </g>
  <g id="axes_1">
   <g id="patch_2">
    <path d="M 45.478125 327.238125 
L 715.078125 327.238125 
L 715.078125 22.318125 
L 45.478125 22.318125 
z
" style="fill: #ffffff"/>
   </g>
   <g id="matplotlib.axis_1">
    <g id="xtick_1">
     <g id="line2d_1">
      <defs>
       <path id="mb8cb02864b" d="M 0 0 
L 0 3.5 
" style="stroke: #475569; stroke-width: 0.8"/>
      </defs>
      <g>
       <use xlink:href="#mb8cb02864b" x="75.914489" y="327.238125" style="fill: #475569; stroke: #475569; stroke-width: 0.8"/>
      </g>
     </g>
     <g id="text_1">
      <!-- 2000 -->
      <g style="fill: #475569" transform="translate(63.189489 341.836562) scale(0.1 -0.1)">
       <defs>
        <path id="DejaVuSans-32" d="M 1228 531 
L 3431 531 
L 3431 0 
L 469 0 
L 469 531 
Q 828 903 1448 1529 
Q 2069 2156 2228 2338 
Q 2531 2678 2651 2914 
Q 2772 3150 2772 3378 
Q 2772 3750 2511 3984 
Q 2250 4219 1831 4219 
Q 1534 4219 1204 4116 
Q 875 4013 500 3803 
L 500 4441 
Q 881 4594 1212 4672 
Q 1544 4750 1819 4750 
Q 2544 4750 2975 4387 
Q 3406 4025 3406 3419 
Q 3406 3131 3298 2873 
Q 3191 2616 2906 2266 
Q 2828 2175 2409 1742 
Q 1991 1309 1228 531 
z
" transform="scale(0.015625)"/>
        <path id="DejaVuSans-30" d="M 2034 4250 
Q 1547 4250 1301 3770 
Q 1056 3291 1056 2328 
Q 1056 1369 1301 889 
Q 1547 409 2034 409 
Q 2525 409 2770 889 
Q 3016 1369 3016 2328 
Q 3016 3291 2770 3770 
Q 2525 4250 2034 4250 
z
M 2034 4750 
Q 2819 4750 3233 4129 
Q 3647 3509 3647 2328 
Q 3647 1150 3233 529 
Q 2819 -91 2034 -91 
Q 1250 -91 836 529 
Q 422 1150 422 2328 
Q 422 3509 836 4129 
Q 1250 4750 2034 4750 
z
" transform="scale(0.015625)"/>
       </defs>
       <use xlink:href="#DejaVuSans-32"/>
       <use xlink:href="#DejaVuSans-30" transform="translate(63.623047 0)"/>
       <use xlink:href="#DejaVuSans-30" transform="translate(127.246094 0)"/>
       <use xlink:href="#DejaVuSans-30" transform="translate(190.869141 0)"/>
      </g>
     </g>
    </g>
    <g id="xtick_2">
     <g id="line2d_2">
      <g>
       <use xlink:href="#mb8cb02864b" x="197.659943" y="327.238125" style="fill: #475569; stroke: #475569; stroke-width: 0.8"/>
      </g>
     </g>
     <g id="text_2">
      <!-- 2005 -->
      <g style="fill: #475569" transform="translate(184.934943 341.836562) scale(0.1 -0.1)">
       <defs>
        <path id="DejaVuSans-35" d="M 691 4666 
L 3169 4666 
L 3169 4134 
L 1269 4134 
L 1269 2991 
Q 1406 3038 1543 3061 
Q 1681 3084 1819 3084 
Q 2600 3084 3056 2656 
Q 3513 2228 3513 1497 
Q 3513 744 3044 326 
Q 2575 -91 1722 -91 
Q 1428 -91 1123 -41 
Q 819 9 494 109 
L 494 744 
Q 775 591 1075 516 
Q 1375 441 1709 441 
Q 2250 441 2565 725 
Q 2881 1009 2881 1497 
Q 2881 1984 2565 2268 
Q 2250 2553 1709 2553 
Q 1456 2553 1204 2497 
Q 953 2441 691 2322 
L 691 4666 
z
" transform="scale(0.015625)"/>
       </defs>
       <use xlink:href="#DejaVuSans-32"/>
       <use xlink:href="#DejaVuSans-30" transform="translate(63.623047 0)"/>
       <use xlink:href="#DejaVuSans-30" transform="translate(127.246094 0)"/>
       <use xlink:href="#DejaVuSans-35" transform="translate(190.869141 0)"/>
      </g>
     </g>
    </g>
    <g id="xtick_3">
     <g id="line2d_3">
      <g>
       <use xlink:href="#mb8cb02864b" x="319.405398" y="327.238125" style="fill: #475569; stroke: #475569; stroke-width: 0.8"/>
      </g>
     </g>
     <g id="text_3">
      <!-- 2010 -->
      <g style="fill: #475569" transform="translate(306.680398 341.836562) scale(0.1 -0.1)">
       <defs>
        <path id="DejaVuSans-31" d="M 794 531 
L 1825 531 
L 1825 4091 
L 703 3866 
L 703 4441 
L 1819 4666 
L 2450 4666 
L 2450 531 
L 3481 531 
L 3481 0 
L 794 0 
L 794 531 
z
" transform="scale(0.015625)"/>
       </defs>
       <use xlink:href="#DejaVuSans-32"/>
       <use xlink:href="#DejaVuSans-30" transform="translate(63.623047 0)"/>
       <use xlink:href="#DejaVuSans-31" transform="translate(127.246094 0)"/>
       <use xlink:href="#DejaVuSans-30" transform="translate(190.869141 0)"/>
      </g>
     </g>
    </g>
    <g id="xtick_4">
     <g id="line2d_4">
      <g>
       <use xlink:href="#mb8cb02864b" x="441.150852" y="327.238125" style="fill: #475569; stroke: #475569; stroke-width: 0.8"/>
      </g>
     </g>
     <g id="text_4">
      <!-- 2015 -->
      <g style="fill: #475569" transform="translate(428.425852 341.836562) scale(0.1 -0.1)">
       <use xlink:href="#DejaVuSans-32"/>
       <use xlink:href="#DejaVuSans-30" transform="translate(63.623047 0)"/>
       <use xlink:href="#DejaVuSans-31" transform="translate(127.246094 0)"/>
       <use xlink:href="#DejaVuSans-35" transform="translate(190.869141 0)"/>
      </g>
     </g>
    </g>
    <g id="xtick_5">
     <g id="line2d_5">
      <g>
       <use xlink:href="#mb8cb02864b" x="562.896307" y="327.238125" style="fill: #475569; stroke: #475569; stroke-width: 0.8"/>
      </g>
     </g>
     <g id="text_5">
      <!-- 2020 -->
      <g style="fill: #475569" transform="translate(550.171307 341.836562) scale(0.1 -0.1)">
       <use xlink:href="#DejaVuSans-32"/>
       <use xlink:href="#DejaVuSans-30" transform="translate(63.623047 0)"/>
       <use xlink:href="#DejaVuSans-32" transform="translate(127.246094 0)"/>
       <use xlink:href="#DejaVuSans-30" transform="translate(190.869141 0)"/>
      </g>
     </g>
    </g>
    <g id="xtick_6">
     <g id="line2d_6">
      <g>
       <use xlink:href="#mb8cb02864b" x="684.641761" y="327.238125" style="fill: #475569; stroke: #475569; stroke-width: 0.8"/>
      </g>
     </g>
     <g id="text_6">
      <!-- 2025 -->
      <g style="fill: #475569" transform="translate(671.916761 341.836562) scale(0.1 -0.1)">
       <use xlink:href="#DejaVuSans-32"/>
       <use xlink:href="#DejaVuSans-30" transform="translate(63.623047 0)"/>
       <use xlink:href="#DejaVuSans-32" transform="translate(127.246094 0)"/>
       <use xlink:href="#DejaVuSans-35" transform="translate(190.869141 0)"/>
      </g>
     </g>
    </g>
    <g id="text_7">
     <!-- Ano -->
     <g style="fill: #334155" transform="translate(370.629688 355.514687) scale(0.1 -0.1)">
      <defs>
       <path id="DejaVuSans-41" d="M 2188 4044 
L 1331 1722 
L 3047 1722 
L 2188 4044 
z
M 1831 4666 
L 2547 4666 
L 4325 0 
L 3669 0 
L 3244 1197 
L 1141 1197 
L 716 0 
L 50 0 
L 1831 4666 
z
" transform="scale(0.015625)"/>
       <path id="DejaVuSans-6e" d="M 3513 2113 
L 3513 0 
L 2938 0 
L 2938 2094 
Q 2938 2591 2744 2837 
Q 2550 3084 2163 3084 
Q 1697 3084 1428 2787 
Q 1159 2491 1159 1978 
L 1159 0 
L 581 0 
L 581 3500 
L 1159 3500 
L 1159 2956 
Q 1366 3272 1645 3428 
Q 1925 3584 2291 3584 
Q 2894 3584 3203 3211 
Q 3513 2838 3513 2113 
z
" transform="scale(0.015625)"/>
       <path id="DejaVuSans-6f" d="M 1959 3097 
Q 1497 3097 1228 2736 
Q 959 2375 959 1747 
Q 959 1119 1226 758 
Q 1494 397 1959 397 
Q 2419 397 2687 759 
Q 2956 1122 2956 1747 
Q 2956 2369 2687 2733 
Q 2419 3097 1959 3097 
z
M 1959 3584 
Q 2709 3584 3137 3096 
Q 3566 2609 3566 1747 
Q 3566 888 3137 398 
Q 2709 -91 1959 -91 
Q 1206 -91 779 398 
Q 353 888 353 1747 
Q 353 2609 779 3096 
Q 1206 3584 1959 3584 
z
" transform="scale(0.015625)"/>
      </defs>
      <use xlink:href="#DejaVuSans-41"/>
      <use xlink:href="#DejaVuSans-6e" transform="translate(68.408203 0)"/>
      <use xlink:href="#DejaVuSans-6f" transform="translate(131.787109 0)"/>
     </g>
    </g>
   </g>
   <g id="matplotlib.axis_2">
    <g id="ytick_1">
     <g id="line2d_7">
      <path d="M 45.478125 268.841238 
L 715.078125 268.841238 
" clip-path="url(#pe15f1f5015)" style="fill: none; stroke: #b0b0b0; stroke-opacity: 0.25; stroke-width: 0.8; stroke-linecap: square"/>
     </g>
     <g id="line2d_8">
      <defs>
       <path id="ma8b4c2c67e" d="M 0 0 
L -3.5 0 
" style="stroke: #475569; stroke-width: 0.8"/>
      </defs>
      <g>
       <use xlink:href="#ma8b4c2c67e" x="45.478125" y="268.841238" style="fill: #475569; stroke: #475569; stroke-width: 0.8"/>
      </g>
     </g>
     <g id="text_8">
      <!-- $\mathdefault{10^{2}}$ -->
      <g style="fill: #475569" transform="translate(20.878125 272.640457) scale(0.1 -0.1)">
       <use xlink:href="#DejaVuSans-31" transform="translate(0 0.765625)"/>
       <use xlink:href="#DejaVuSans-30" transform="translate(63.623047 0.765625)"/>
       <use xlink:href="#DejaVuSans-32" transform="translate(128.203125 39.046875) scale(0.7)"/>
      </g>
     </g>
    </g>
    <g id="ytick_2">
     <g id="line2d_9">
      <path d="M 45.478125 196.983066 
L 715.078125 196.983066 
" clip-path="url(#pe15f1f5015)" style="fill: none; stroke: #b0b0b0; stroke-opacity: 0.25; stroke-width: 0.8; stroke-linecap: square"/>
     </g>
     <g id="line2d_10">
      <g>
       <use xlink:href="#ma8b4c2c67e" x="45.478125" y="196.983066" style="fill: #475569; stroke: #475569; stroke-width: 0.8"/>
      </g>
     </g>
     <g id="text_9">
      <!-- $\mathdefault{10^{3}}$ -->
      <g style="fill: #475569" transform="translate(20.878125 200.782284) scale(0.1 -0.1)">
       <defs>
        <path id="DejaVuSans-33" d="M 2597 2516 
Q 3050 2419 3304 2112 
Q 3559 1806 3559 1356 
Q 3559 666 3084 287 
Q 2609 -91 1734 -91 
Q 1441 -91 1130 -33 
Q 819 25 488 141 
L 488 750 
Q 750 597 1062 519 
Q 1375 441 1716 441 
Q 2309 441 2620 675 
Q 2931 909 2931 1356 
Q 2931 1769 2642 2001 
Q 2353 2234 1838 2234 
L 1294 2234 
L 1294 2753 
L 1863 2753 
Q 2328 2753 2575 2939 
Q 2822 3125 2822 3475 
Q 2822 3834 2567 4026 
Q 2313 4219 1838 4219 
Q 1578 4219 1281 4162 
Q 984 4106 628 3988 
L 628 4550 
Q 988 4650 1302 4700 
Q 1616 4750 1894 4750 
Q 2613 4750 3031 4423 
Q 3450 4097 3450 3541 
Q 3450 3153 3228 2886 
Q 3006 2619 2597 2516 
z
" transform="scale(0.015625)"/>
       </defs>
       <use xlink:href="#DejaVuSans-31" transform="translate(0 0.765625)"/>
       <use xlink:href="#DejaVuSans-30" transform="translate(63.623047 0.765625)"/>
       <use xlink:href="#DejaVuSans-33" transform="translate(128.203125 39.046875) scale(0.7)"/>
      </g>
     </g>
    </g>
    <g id="ytick_3">
     <g id="line2d_11">
      <path d="M 45.478125 125.124894 
L 715.078125 125.124894 
" clip-path="url(#pe15f1f5015)" style="fill: none; stroke: #b0b0b0; stroke-opacity: 0.25; stroke-width: 0.8; stroke-linecap: square"/>
     </g>
     <g id="line2d_12">
      <g>
       <use xlink:href="#ma8b4c2c67e" x="45.478125" y="125.124894" style="fill: #475569; stroke: #475569; stroke-width: 0.8"/>
      </g>
     </g>
     <g id="text_10">
      <!-- $\mathdefault{10^{4}}$ -->
      <g style="fill: #475569" transform="translate(20.878125 128.924112) scale(0.1 -0.1)">
       <defs>
        <path id="DejaVuSans-34" d="M 2419 4116 
L 825 1625 
L 2419 1625 
L 2419 4116 
z
M 2253 4666 
L 3047 4666 
L 3047 1625 
L 3713 1625 
L 3713 1100 
L 3047 1100 
L 3047 0 
L 2419 0 
L 2419 1100 
L 313 1100 
L 313 1709 
L 2253 4666 
z
" transform="scale(0.015625)"/>
       </defs>
       <use xlink:href="#DejaVuSans-31" transform="translate(0 0.684375)"/>
       <use xlink:href="#DejaVuSans-30" transform="translate(63.623047 0.684375)"/>
       <use xlink:href="#DejaVuSans-34" transform="translate(128.203125 38.965625) scale(0.7)"/>
      </g>
     </g>
    </g>
    <g id="ytick_4">
     <g id="line2d_13">
      <path d="M 45.478125 53.266721 
L 715.078125 53.266721 
" clip-path="url(#pe15f1f5015)" style="fill: none; stroke: #b0b0b0; stroke-opacity: 0.25; stroke-width: 0.8; stroke-linecap: square"/>
     </g>
     <g id="line2d_14">
      <g>
       <use xlink:href="#ma8b4c2c67e" x="45.478125" y="53.266721" style="fill: #475569; stroke: #475569; stroke-width: 0.8"/>
      </g>
     </g>
     <g id="text_11">
      <!-- $\mathdefault{10^{5}}$ -->
      <g style="fill: #475569" transform="translate(20.878125 57.06594) scale(0.1 -0.1)">
       <use xlink:href="#DejaVuSans-31" transform="translate(0 0.684375)"/>
       <use xlink:href="#DejaVuSans-30" transform="translate(63.623047 0.684375)"/>
       <use xlink:href="#DejaVuSans-35" transform="translate(128.203125 38.965625) scale(0.7)"/>
      </g>
     </g>
    </g>
    <g id="ytick_5">
     <g id="line2d_15">
      <defs>
       <path id="m9ab874c8c4" d="M 0 0 
L -2 0 
" style="stroke: #475569; stroke-width: 0.6"/>
      </defs>
      <g>
       <use xlink:href="#m9ab874c8c4" x="45.478125" y="319.067945" style="fill: #475569; stroke: #475569; stroke-width: 0.6"/>
      </g>
     </g>
    </g>
    <g id="ytick_6">
     <g id="line2d_16">
      <g>
       <use xlink:href="#m9ab874c8c4" x="45.478125" y="306.414349" style="fill: #475569; stroke: #475569; stroke-width: 0.6"/>
      </g>
     </g>
    </g>
    <g id="ytick_7">
     <g id="line2d_17">
      <g>
       <use xlink:href="#m9ab874c8c4" x="45.478125" y="297.436479" style="fill: #475569; stroke: #475569; stroke-width: 0.6"/>
      </g>
     </g>
    </g>
    <g id="ytick_8">
     <g id="line2d_18">
      <g>
       <use xlink:href="#m9ab874c8c4" x="45.478125" y="290.472703" style="fill: #475569; stroke: #475569; stroke-width: 0.6"/>
      </g>
     </g>
    </g>
    <g id="ytick_9">
     <g id="line2d_19">
      <g>
       <use xlink:href="#m9ab874c8c4" x="45.478125" y="284.782883" style="fill: #475569; stroke: #475569; stroke-width: 0.6"/>
      </g>
     </g>
    </g>
    <g id="ytick_10">
     <g id="line2d_20">
      <g>
       <use xlink:href="#m9ab874c8c4" x="45.478125" y="279.972209" style="fill: #475569; stroke: #475569; stroke-width: 0.6"/>
      </g>
     </g>
    </g>
    <g id="ytick_11">
     <g id="line2d_21">
      <g>
       <use xlink:href="#m9ab874c8c4" x="45.478125" y="275.805014" style="fill: #475569; stroke: #475569; stroke-width: 0.6"/>
      </g>
     </g>
    </g>
    <g id="ytick_12">
     <g id="line2d_22">
      <g>
       <use xlink:href="#m9ab874c8c4" x="45.478125" y="272.129287" style="fill: #475569; stroke: #475569; stroke-width: 0.6"/>
      </g>
     </g>
    </g>
    <g id="ytick_13">
     <g id="line2d_23">
      <g>
       <use xlink:href="#m9ab874c8c4" x="45.478125" y="247.209773" style="fill: #475569; stroke: #475569; stroke-width: 0.6"/>
      </g>
     </g>
    </g>
    <g id="ytick_14">
     <g id="line2d_24">
      <g>
       <use xlink:href="#m9ab874c8c4" x="45.478125" y="234.556177" style="fill: #475569; stroke: #475569; stroke-width: 0.6"/>
      </g>
     </g>
    </g>
    <g id="ytick_15">
     <g id="line2d_25">
      <g>
       <use xlink:href="#m9ab874c8c4" x="45.478125" y="225.578307" style="fill: #475569; stroke: #475569; stroke-width: 0.6"/>
      </g>
     </g>
    </g>
    <g id="ytick_16">
     <g id="line2d_26">
      <g>
       <use xlink:href="#m9ab874c8c4" x="45.478125" y="218.614531" style="fill: #475569; stroke: #475569; stroke-width: 0.6"/>
      </g>
     </g>
    </g>
    <g id="ytick_17">
     <g id="line2d_27">
      <g>
       <use xlink:href="#m9ab874c8c4" x="45.478125" y="212.924711" style="fill: #475569; stroke: #475569; stroke-width: 0.6"/>
      </g>
     </g>
    </g>
    <g id="ytick_18">
     <g id="line2d_28">
      <g>
       <use xlink:href="#m9ab874c8c4" x="45.478125" y="208.114037" style="fill: #475569; stroke: #475569; stroke-width: 0.6"/>
      </g>
     </g>
    </g>
    <g id="ytick_19">
     <g id="line2d_29">
      <g>
       <use xlink:href="#m9ab874c8c4" x="45.478125" y="203.946842" style="fill: #475569; stroke: #475569; stroke-width: 0.6"/>
      </g>
     </g>
    </g>
    <g id="ytick_20">
     <g id="line2d_30">
      <g>
       <use xlink:href="#m9ab874c8c4" x="45.478125" y="200.271115" style="fill: #475569; stroke: #475569; stroke-width: 0.6"/>
      </g>
     </g>
    </g>
    <g id="ytick_21">
     <g id="line2d_31">
      <g>
       <use xlink:href="#m9ab874c8c4" x="45.478125" y="175.3516" style="fill: #475569; stroke: #475569; stroke-width: 0.6"/>
      </g>
     </g>
    </g>
    <g id="ytick_22">
     <g id="line2d_32">
      <g>
       <use xlink:href="#m9ab874c8c4" x="45.478125" y="162.698004" style="fill: #475569; stroke: #475569; stroke-width: 0.6"/>
      </g>
     </g>
    </g>
    <g id="ytick_23">
     <g id="line2d_33">
      <g>
       <use xlink:href="#m9ab874c8c4" x="45.478125" y="153.720135" style="fill: #475569; stroke: #475569; stroke-width: 0.6"/>
      </g>
     </g>
    </g>
    <g id="ytick_24">
     <g id="line2d_34">
      <g>
       <use xlink:href="#m9ab874c8c4" x="45.478125" y="146.756359" style="fill: #475569; stroke: #475569; stroke-width: 0.6"/>
      </g>
     </g>
    </g>
    <g id="ytick_25">
     <g id="line2d_35">
      <g>
       <use xlink:href="#m9ab874c8c4" x="45.478125" y="141.066539" style="fill: #475569; stroke: #475569; stroke-width: 0.6"/>
      </g>
     </g>
    </g>
    <g id="ytick_26">
     <g id="line2d_36">
      <g>
       <use xlink:href="#m9ab874c8c4" x="45.478125" y="136.255865" style="fill: #475569; stroke: #475569; stroke-width: 0.6"/>
      </g>
     </g>
    </g>
    <g id="ytick_27">
     <g id="line2d_37">
      <g>
       <use xlink:href="#m9ab874c8c4" x="45.478125" y="132.08867" style="fill: #475569; stroke: #475569; stroke-width: 0.6"/>
      </g>
     </g>
    </g>
    <g id="ytick_28">
     <g id="line2d_38">
      <g>
       <use xlink:href="#m9ab874c8c4" x="45.478125" y="128.412943" style="fill: #475569; stroke: #475569; stroke-width: 0.6"/>
      </g>
     </g>
    </g>
    <g id="ytick_29">
     <g id="line2d_39">
      <g>
       <use xlink:href="#m9ab874c8c4" x="45.478125" y="103.493428" style="fill: #475569; stroke: #475569; stroke-width: 0.6"/>
      </g>
     </g>
    </g>
    <g id="ytick_30">
     <g id="line2d_40">
      <g>
       <use xlink:href="#m9ab874c8c4" x="45.478125" y="90.839832" style="fill: #475569; stroke: #475569; stroke-width: 0.6"/>
      </g>
     </g>
    </g>
    <g id="ytick_31">
     <g id="line2d_41">
      <g>
       <use xlink:href="#m9ab874c8c4" x="45.478125" y="81.861963" style="fill: #475569; stroke: #475569; stroke-width: 0.6"/>
      </g>
     </g>
    </g>
    <g id="ytick_32">
     <g id="line2d_42">
      <g>
       <use xlink:href="#m9ab874c8c4" x="45.478125" y="74.898187" style="fill: #475569; stroke: #475569; stroke-width: 0.6"/>
      </g>
     </g>
    </g>
    <g id="ytick_33">
     <g id="line2d_43">
      <g>
       <use xlink:href="#m9ab874c8c4" x="45.478125" y="69.208367" style="fill: #475569; stroke: #475569; stroke-width: 0.6"/>
      </g>
     </g>
    </g>
    <g id="ytick_34">
     <g id="line2d_44">
      <g>
       <use xlink:href="#m9ab874c8c4" x="45.478125" y="64.397693" style="fill: #475569; stroke: #475569; stroke-width: 0.6"/>
      </g>
     </g>
    </g>
    <g id="ytick_35">
     <g id="line2d_45">
      <g>
       <use xlink:href="#m9ab874c8c4" x="45.478125" y="60.230498" style="fill: #475569; stroke: #475569; stroke-width: 0.6"/>
      </g>
     </g>
    </g>
    <g id="ytick_36">
     <g id="line2d_46">
      <g>
       <use xlink:href="#m9ab874c8c4" x="45.478125" y="56.554771" style="fill: #475569; stroke: #475569; stroke-width: 0.6"/>
      </g>
     </g>
    </g>
    <g id="ytick_37">
     <g id="line2d_47">
      <g>
       <use xlink:href="#m9ab874c8c4" x="45.478125" y="31.635256" style="fill: #475569; stroke: #475569; stroke-width: 0.6"/>
      </g>
     </g>
    </g>
    <g id="text_12">
     <!-- Focos de calor por ano (escala log) -->
     <g style="fill: #334155" transform="translate(14.798437 262.100781) rotate(-90) scale(0.1 -0.1)">
      <defs>
       <path id="DejaVuSans-46" d="M 628 4666 
L 3309 4666 
L 3309 4134 
L 1259 4134 
L 1259 2759 
L 3109 2759 
L 3109 2228 
L 1259 2228 
L 1259 0 
L 628 0 
L 628 4666 
z
" transform="scale(0.015625)"/>
       <path id="DejaVuSans-63" d="M 3122 3366 
L 3122 2828 
Q 2878 2963 2633 3030 
Q 2388 3097 2138 3097 
Q 1578 3097 1268 2742 
Q 959 2388 959 1747 
Q 959 1106 1268 751 
Q 1578 397 2138 397 
Q 2388 397 2633 464 
Q 2878 531 3122 666 
L 3122 134 
Q 2881 22 2623 -34 
Q 2366 -91 2075 -91 
Q 1284 -91 818 406 
Q 353 903 353 1747 
Q 353 2603 823 3093 
Q 1294 3584 2113 3584 
Q 2378 3584 2631 3529 
Q 2884 3475 3122 3366 
z
" transform="scale(0.015625)"/>
       <path id="DejaVuSans-73" d="M 2834 3397 
L 2834 2853 
Q 2591 2978 2328 3040 
Q 2066 3103 1784 3103 
Q 1356 3103 1142 2972 
Q 928 2841 928 2578 
Q 928 2378 1081 2264 
Q 1234 2150 1697 2047 
L 1894 2003 
Q 2506 1872 2764 1633 
Q 3022 1394 3022 966 
Q 3022 478 2636 193 
Q 2250 -91 1575 -91 
Q 1294 -91 989 -36 
Q 684 19 347 128 
L 347 722 
Q 666 556 975 473 
Q 1284 391 1588 391 
Q 1994 391 2212 530 
Q 2431 669 2431 922 
Q 2431 1156 2273 1281 
Q 2116 1406 1581 1522 
L 1381 1569 
Q 847 1681 609 1914 
Q 372 2147 372 2553 
Q 372 3047 722 3315 
Q 1072 3584 1716 3584 
Q 2034 3584 2315 3537 
Q 2597 3491 2834 3397 
z
" transform="scale(0.015625)"/>
       <path id="DejaVuSans-20" transform="scale(0.015625)"/>
       <path id="DejaVuSans-64" d="M 2906 2969 
L 2906 4863 
L 3481 4863 
L 3481 0 
L 2906 0 
L 2906 525 
Q 2725 213 2448 61 
Q 2172 -91 1784 -91 
Q 1150 -91 751 415 
Q 353 922 353 1747 
Q 353 2572 751 3078 
Q 1150 3584 1784 3584 
Q 2172 3584 2448 3432 
Q 2725 3281 2906 2969 
z
M 947 1747 
Q 947 1113 1208 752 
Q 1469 391 1925 391 
Q 2381 391 2643 752 
Q 2906 1113 2906 1747 
Q 2906 2381 2643 2742 
Q 2381 3103 1925 3103 
Q 1469 3103 1208 2742 
Q 947 2381 947 1747 
z
" transform="scale(0.015625)"/>
       <path id="DejaVuSans-65" d="M 3597 1894 
L 3597 1613 
L 953 1613 
Q 991 1019 1311 708 
Q 1631 397 2203 397 
Q 2534 397 2845 478 
Q 3156 559 3463 722 
L 3463 178 
Q 3153 47 2828 -22 
Q 2503 -91 2169 -91 
Q 1331 -91 842 396 
Q 353 884 353 1716 
Q 353 2575 817 3079 
Q 1281 3584 2069 3584 
Q 2775 3584 3186 3129 
Q 3597 2675 3597 1894 
z
M 3022 2063 
Q 3016 2534 2758 2815 
Q 2500 3097 2075 3097 
Q 1594 3097 1305 2825 
Q 1016 2553 972 2059 
L 3022 2063 
z
" transform="scale(0.015625)"/>
       <path id="DejaVuSans-61" d="M 2194 1759 
Q 1497 1759 1228 1600 
Q 959 1441 959 1056 
Q 959 750 1161 570 
Q 1363 391 1709 391 
Q 2188 391 2477 730 
Q 2766 1069 2766 1631 
L 2766 1759 
L 2194 1759 
z
M 3341 1997 
L 3341 0 
L 2766 0 
L 2766 531 
Q 2569 213 2275 61 
Q 1981 -91 1556 -91 
Q 1019 -91 701 211 
Q 384 513 384 1019 
Q 384 1609 779 1909 
Q 1175 2209 1959 2209 
L 2766 2209 
L 2766 2266 
Q 2766 2663 2505 2880 
Q 2244 3097 1772 3097 
Q 1472 3097 1187 3025 
Q 903 2953 641 2809 
L 641 3341 
Q 956 3463 1253 3523 
Q 1550 3584 1831 3584 
Q 2591 3584 2966 3190 
Q 3341 2797 3341 1997 
z
" transform="scale(0.015625)"/>
       <path id="DejaVuSans-6c" d="M 603 4863 
L 1178 4863 
L 1178 0 
L 603 0 
L 603 4863 
z
" transform="scale(0.015625)"/>
       <path id="DejaVuSans-72" d="M 2631 2963 
Q 2534 3019 2420 3045 
Q 2306 3072 2169 3072 
Q 1681 3072 1420 2755 
Q 1159 2438 1159 1844 
L 1159 0 
L 581 0 
L 581 3500 
L 1159 3500 
L 1159 2956 
Q 1341 3275 1631 3429 
Q 1922 3584 2338 3584 
Q 2397 3584 2469 3576 
Q 2541 3569 2628 3553 
L 2631 2963 
z
" transform="scale(0.015625)"/>
       <path id="DejaVuSans-70" d="M 1159 525 
L 1159 -1331 
L 581 -1331 
L 581 3500 
L 1159 3500 
L 1159 2969 
Q 1341 3281 1617 3432 
Q 1894 3584 2278 3584 
Q 2916 3584 3314 3078 
Q 3713 2572 3713 1747 
Q 3713 922 3314 415 
Q 2916 -91 2278 -91 
Q 1894 -91 1617 61 
Q 1341 213 1159 525 
z
M 3116 1747 
Q 3116 2381 2855 2742 
Q 2594 3103 2138 3103 
Q 1681 3103 1420 2742 
Q 1159 2381 1159 1747 
Q 1159 1113 1420 752 
Q 1681 391 2138 391 
Q 2594 391 2855 752 
Q 3116 1113 3116 1747 
z
" transform="scale(0.015625)"/>
       <path id="DejaVuSans-28" d="M 1984 4856 
Q 1566 4138 1362 3434 
Q 1159 2731 1159 2009 
Q 1159 1288 1364 580 
Q 1569 -128 1984 -844 
L 1484 -844 
Q 1016 -109 783 600 
Q 550 1309 550 2009 
Q 550 2706 781 3412 
Q 1013 4119 1484 4856 
L 1984 4856 
z
" transform="scale(0.015625)"/>
       <path id="DejaVuSans-67" d="M 2906 1791 
Q 2906 2416 2648 2759 
Q 2391 3103 1925 3103 
Q 1463 3103 1205 2759 
Q 947 2416 947 1791 
Q 947 1169 1205 825 
Q 1463 481 1925 481 
Q 2391 481 2648 825 
Q 2906 1169 2906 1791 
z
M 3481 434 
Q 3481 -459 3084 -895 
Q 2688 -1331 1869 -1331 
Q 1566 -1331 1297 -1286 
Q 1028 -1241 775 -1147 
L 775 -588 
Q 1028 -725 1275 -790 
Q 1522 -856 1778 -856 
Q 2344 -856 2625 -561 
Q 2906 -266 2906 331 
L 2906 616 
Q 2728 306 2450 153 
Q 2172 0 1784 0 
Q 1141 0 747 490 
Q 353 981 353 1791 
Q 353 2603 747 3093 
Q 1141 3584 1784 3584 
Q 2172 3584 2450 3431 
Q 2728 3278 2906 2969 
L 2906 3500 
L 3481 3500 
L 3481 434 
z
" transform="scale(0.015625)"/>
       <path id="DejaVuSans-29" d="M 513 4856 
L 1013 4856 
Q 1481 4119 1714 3412 
Q 1947 2706 1947 2009 
Q 1947 1309 1714 600 
Q 1481 -109 1013 -844 
L 513 -844 
Q 928 -128 1133 580 
Q 1338 1288 1338 2009 
Q 1338 2731 1133 3434 
Q 928 4138 513 4856 
z
" transform="scale(0.015625)"/>
      </defs>
      <use xlink:href="#DejaVuSans-46"/>
      <use xlink:href="#DejaVuSans-6f" transform="translate(53.894531 0)"/>
      <use xlink:href="#DejaVuSans-63" transform="translate(115.076172 0)"/>
      <use xlink:href="#DejaVuSans-6f" transform="translate(170.056641 0)"/>
      <use xlink:href="#DejaVuSans-73" transform="translate(231.238281 0)"/>
      <use xlink:href="#DejaVuSans-20" transform="translate(283.337891 0)"/>
      <use xlink:href="#DejaVuSans-64" transform="translate(315.125 0)"/>
      <use xlink:href="#DejaVuSans-65" transform="translate(378.601562 0)"/>
      <use xlink:href="#DejaVuSans-20" transform="translate(440.125 0)"/>
      <use xlink:href="#DejaVuSans-63" transform="translate(471.912109 0)"/>
      <use xlink:href="#DejaVuSans-61" transform="translate(526.892578 0)"/>
      <use xlink:href="#DejaVuSans-6c" transform="translate(588.171875 0)"/>
      <use xlink:href="#DejaVuSans-6f" transform="translate(615.955078 0)"/>
      <use xlink:href="#DejaVuSans-72" transform="translate(677.136719 0)"/>
      <use xlink:href="#DejaVuSans-20" transform="translate(718.25 0)"/>
      <use xlink:href="#DejaVuSans-70" transform="translate(750.037109 0)"/>
      <use xlink:href="#DejaVuSans-6f" transform="translate(813.513672 0)"/>
      <use xlink:href="#DejaVuSans-72" transform="translate(874.695312 0)"/>
      <use xlink:href="#DejaVuSans-20" transform="translate(915.808594 0)"/>
      <use xlink:href="#DejaVuSans-61" transform="translate(947.595703 0)"/>
      <use xlink:href="#DejaVuSans-6e" transform="translate(1008.875 0)"/>
      <use xlink:href="#DejaVuSans-6f" transform="translate(1072.253906 0)"/>
      <use xlink:href="#DejaVuSans-20" transform="translate(1133.435547 0)"/>
      <use xlink:href="#DejaVuSans-28" transform="translate(1165.222656 0)"/>
      <use xlink:href="#DejaVuSans-65" transform="translate(1204.236328 0)"/>
      <use xlink:href="#DejaVuSans-73" transform="translate(1265.759766 0)"/>
      <use xlink:href="#DejaVuSans-63" transform="translate(1317.859375 0)"/>
      <use xlink:href="#DejaVuSans-61" transform="translate(1372.839844 0)"/>
      <use xlink:href="#DejaVuSans-6c" transform="translate(1434.119141 0)"/>
      <use xlink:href="#DejaVuSans-61" transform="translate(1461.902344 0)"/>
      <use xlink:href="#DejaVuSans-20" transform="translate(1523.181641 0)"/>
      <use xlink:href="#DejaVuSans-6c" transform="translate(1554.96875 0)"/>
      <use xlink:href="#DejaVuSans-6f" transform="translate(1582.751953 0)"/>
      <use xlink:href="#DejaVuSans-67" transform="translate(1643.933594 0)"/>
      <use xlink:href="#DejaVuSans-29" transform="translate(1707.410156 0)"/>
     </g>
    </g>
   </g>
   <g id="line2d_48">
    <path d="M 75.914489 313.378125 
L 100.26358 263.675928 
L 124.61267 238.54555 
L 148.961761 238.192918 
L 173.310852 222.674912 
L 197.659943 241.132276 
L 222.009034 254.566103 
L 246.358125 204.57732 
L 270.707216 239.628004 
L 295.056307 268.841238 
L 319.405398 192.19023 
L 343.754489 214.745225 
L 368.10358 200.132722 
L 392.45267 207.583584 
L 416.801761 185.690235 
L 441.150852 195.939646 
L 465.499943 191.712146 
L 489.849034 177.398999 
L 514.198125 216.444789 
L 538.547216 168.201138 
L 562.896307 179.411981 
L 587.245398 169.962296 
L 611.594489 156.740603 
L 635.94358 208.744516 
L 660.29267 155.767534 
L 684.641761 166.346436 
" clip-path="url(#pe15f1f5015)" style="fill: none; stroke: #6b48a8; stroke-opacity: 0.8; stroke-width: 1.4; stroke-linecap: square"/>
   </g>
   <g id="line2d_49">
    <path d="M 75.914489 194.093891 
L 100.26358 169.726865 
L 124.61267 140.103708 
L 148.961761 139.410454 
L 173.310852 131.983522 
L 197.659943 148.927299 
L 222.009034 151.667057 
L 246.358125 124.61724 
L 270.707216 138.401008 
L 295.056307 153.355583 
L 319.405398 112.512935 
L 343.754489 130.547475 
L 368.10358 104.442379 
L 392.45267 111.845147 
L 416.801761 105.520839 
L 441.150852 103.209177 
L 465.499943 100.654078 
L 489.849034 88.372634 
L 514.198125 107.358927 
L 538.547216 73.547827 
L 562.896307 73.167612 
L 587.245398 83.028018 
L 611.594489 88.054191 
L 635.94358 93.056529 
L 660.29267 65.522471 
L 684.641761 88.514248 
" clip-path="url(#pe15f1f5015)" style="fill: none; stroke: #0f7b5f; stroke-opacity: 0.9; stroke-width: 1.8; stroke-linecap: square"/>
   </g>
   <g id="line2d_50">
    <path d="M 75.914489 243.25787 
L 100.26358 233.633717 
L 124.61267 204.142502 
L 148.961761 193.613982 
L 173.310852 189.279153 
L 197.659943 206.804435 
L 222.009034 200.866231 
L 246.358125 194.610205 
L 270.707216 218.242269 
L 295.056307 222.746081 
L 319.405398 191.79132 
L 343.754489 189.37683 
L 368.10358 190.14437 
L 392.45267 179.146534 
L 416.801761 191.976844 
L 441.150852 170.787098 
L 465.499943 189.450288 
L 489.849034 171.800954 
L 514.198125 172.533627 
L 538.547216 161.036987 
L 562.896307 136.877246 
L 587.245398 171.717512 
L 611.594489 162.387478 
L 635.94358 173.022154 
L 660.29267 116.934732 
L 684.641761 154.686785 
" clip-path="url(#pe15f1f5015)" style="fill: none; stroke: #b41e1e; stroke-width: 3; stroke-linecap: square"/>
   </g>
   <g id="line2d_51">
    <path d="M 75.914489 187.989597 
L 100.26358 161.205116 
L 124.61267 129.600332 
L 148.961761 133.378885 
L 173.310852 133.636075 
L 197.659943 142.011737 
L 222.009034 134.340847 
L 246.358125 116.429952 
L 270.707216 139.94274 
L 295.056307 155.378417 
L 319.405398 108.795571 
L 343.754489 120.479612 
L 368.10358 95.529724 
L 392.45267 107.941864 
L 416.801761 83.481599 
L 441.150852 103.213816 
L 465.499943 86.854037 
L 489.849034 82.108696 
L 514.198125 105.035095 
L 538.547216 77.008965 
L 562.896307 64.697833 
L 587.245398 60.815233 
L 611.594489 86.202619 
L 635.94358 88.796496 
L 660.29267 54.119949 
L 684.641761 68.938035 
" clip-path="url(#pe15f1f5015)" style="fill: none; stroke: #1b75bb; stroke-opacity: 0.9; stroke-width: 1.8; stroke-linecap: square"/>
   </g>
   <g id="line2d_52">
    <path d="M 75.914489 154.783503 
L 100.26358 136.704903 
L 124.61267 121.476919 
L 148.961761 112.816483 
L 173.310852 115.023726 
L 197.659943 108.927151 
L 222.009034 95.608404 
L 246.358125 94.291282 
L 270.707216 101.586796 
L 295.056307 111.413797 
L 319.405398 83.336487 
L 343.754489 92.851706 
L 368.10358 79.767274 
L 392.45267 85.299473 
L 416.801761 79.277959 
L 441.150852 105.79848 
L 465.499943 94.196151 
L 489.849034 81.449638 
L 514.198125 92.266952 
L 538.547216 78.252884 
L 562.896307 54.864835 
L 587.245398 50.710165 
L 611.594489 90.147479 
L 635.94358 91.902123 
L 660.29267 36.178125 
L 684.641761 77.848943 
" clip-path="url(#pe15f1f5015)" style="fill: none; stroke: #c75d2c; stroke-opacity: 0.9; stroke-width: 1.8; stroke-linecap: square"/>
   </g>
   <g id="patch_3">
    <path d="M 45.478125 327.238125 
L 45.478125 22.318125 
" style="fill: none; stroke: #000000; stroke-width: 0.8; stroke-linejoin: miter; stroke-linecap: square"/>
   </g>
   <g id="patch_4">
    <path d="M 45.478125 327.238125 
L 715.078125 327.238125 
" style="fill: none; stroke: #000000; stroke-width: 0.8; stroke-linejoin: miter; stroke-linecap: square"/>
   </g>
   <g id="text_13">
    <!-- Fonte: INPE/BDQueimadas via WFS TerraBrasilis, coleta com envelope da bacia e filtro point-in-polygon no contorno esquematico do recorte. -->
    <g style="fill: #64748b" transform="translate(45.478125 420.832894) scale(0.09 -0.09)">
     <defs>
      <path id="DejaVuSans-74" d="M 1172 4494 
L 1172 3500 
L 2356 3500 
L 2356 3053 
L 1172 3053 
L 1172 1153 
Q 1172 725 1289 603 
Q 1406 481 1766 481 
L 2356 481 
L 2356 0 
L 1766 0 
Q 1100 0 847 248 
Q 594 497 594 1153 
L 594 3053 
L 172 3053 
L 172 3500 
L 594 3500 
L 594 4494 
L 1172 4494 
z
" transform="scale(0.015625)"/>
      <path id="DejaVuSans-3a" d="M 750 794 
L 1409 794 
L 1409 0 
L 750 0 
L 750 794 
z
M 750 3309 
L 1409 3309 
L 1409 2516 
L 750 2516 
L 750 3309 
z
" transform="scale(0.015625)"/>
      <path id="DejaVuSans-49" d="M 628 4666 
L 1259 4666 
L 1259 0 
L 628 0 
L 628 4666 
z
" transform="scale(0.015625)"/>
      <path id="DejaVuSans-4e" d="M 628 4666 
L 1478 4666 
L 3547 763 
L 3547 4666 
L 4159 4666 
L 4159 0 
L 3309 0 
L 1241 3903 
L 1241 0 
L 628 0 
L 628 4666 
z
" transform="scale(0.015625)"/>
      <path id="DejaVuSans-50" d="M 1259 4147 
L 1259 2394 
L 2053 2394 
Q 2494 2394 2734 2622 
Q 2975 2850 2975 3272 
Q 2975 3691 2734 3919 
Q 2494 4147 2053 4147 
L 1259 4147 
z
M 628 4666 
L 2053 4666 
Q 2838 4666 3239 4311 
Q 3641 3956 3641 3272 
Q 3641 2581 3239 2228 
Q 2838 1875 2053 1875 
L 1259 1875 
L 1259 0 
L 628 0 
L 628 4666 
z
" transform="scale(0.015625)"/>
      <path id="DejaVuSans-45" d="M 628 4666 
L 3578 4666 
L 3578 4134 
L 1259 4134 
L 1259 2753 
L 3481 2753 
L 3481 2222 
L 1259 2222 
L 1259 531 
L 3634 531 
L 3634 0 
L 628 0 
L 628 4666 
z
" transform="scale(0.015625)"/>
      <path id="DejaVuSans-2f" d="M 1625 4666 
L 2156 4666 
L 531 -594 
L 0 -594 
L 1625 4666 
z
" transform="scale(0.015625)"/>
      <path id="DejaVuSans-42" d="M 1259 2228 
L 1259 519 
L 2272 519 
Q 2781 519 3026 730 
Q 3272 941 3272 1375 
Q 3272 1813 3026 2020 
Q 2781 2228 2272 2228 
L 1259 2228 
z
M 1259 4147 
L 1259 2741 
L 2194 2741 
Q 2656 2741 2882 2914 
Q 3109 3088 3109 3444 
Q 3109 3797 2882 3972 
Q 2656 4147 2194 4147 
L 1259 4147 
z
M 628 4666 
L 2241 4666 
Q 2963 4666 3353 4366 
Q 3744 4066 3744 3513 
Q 3744 3084 3544 2831 
Q 3344 2578 2956 2516 
Q 3422 2416 3680 2098 
Q 3938 1781 3938 1306 
Q 3938 681 3513 340 
Q 3088 0 2303 0 
L 628 0 
L 628 4666 
z
" transform="scale(0.015625)"/>
      <path id="DejaVuSans-44" d="M 1259 4147 
L 1259 519 
L 2022 519 
Q 2988 519 3436 956 
Q 3884 1394 3884 2338 
Q 3884 3275 3436 3711 
Q 2988 4147 2022 4147 
L 1259 4147 
z
M 628 4666 
L 1925 4666 
Q 3281 4666 3915 4102 
Q 4550 3538 4550 2338 
Q 4550 1131 3912 565 
Q 3275 0 1925 0 
L 628 0 
L 628 4666 
z
" transform="scale(0.015625)"/>
      <path id="DejaVuSans-51" d="M 2522 4238 
Q 1834 4238 1429 3725 
Q 1025 3213 1025 2328 
Q 1025 1447 1429 934 
Q 1834 422 2522 422 
Q 3209 422 3611 934 
Q 4013 1447 4013 2328 
Q 4013 3213 3611 3725 
Q 3209 4238 2522 4238 
z
M 3406 84 
L 4238 -825 
L 3475 -825 
L 2784 -78 
Q 2681 -84 2626 -87 
Q 2572 -91 2522 -91 
Q 1538 -91 948 567 
Q 359 1225 359 2328 
Q 359 3434 948 4092 
Q 1538 4750 2522 4750 
Q 3503 4750 4090 4092 
Q 4678 3434 4678 2328 
Q 4678 1516 4351 937 
Q 4025 359 3406 84 
z
" transform="scale(0.015625)"/>
      <path id="DejaVuSans-75" d="M 544 1381 
L 544 3500 
L 1119 3500 
L 1119 1403 
Q 1119 906 1312 657 
Q 1506 409 1894 409 
Q 2359 409 2629 706 
Q 2900 1003 2900 1516 
L 2900 3500 
L 3475 3500 
L 3475 0 
L 2900 0 
L 2900 538 
Q 2691 219 2414 64 
Q 2138 -91 1772 -91 
Q 1169 -91 856 284 
Q 544 659 544 1381 
z
M 1991 3584 
L 1991 3584 
z
" transform="scale(0.015625)"/>
      <path id="DejaVuSans-69" d="M 603 3500 
L 1178 3500 
L 1178 0 
L 603 0 
L 603 3500 
z
M 603 4863 
L 1178 4863 
L 1178 4134 
L 603 4134 
L 603 4863 
z
" transform="scale(0.015625)"/>
      <path id="DejaVuSans-6d" d="M 3328 2828 
Q 3544 3216 3844 3400 
Q 4144 3584 4550 3584 
Q 5097 3584 5394 3201 
Q 5691 2819 5691 2113 
L 5691 0 
L 5113 0 
L 5113 2094 
Q 5113 2597 4934 2840 
Q 4756 3084 4391 3084 
Q 3944 3084 3684 2787 
Q 3425 2491 3425 1978 
L 3425 0 
L 2847 0 
L 2847 2094 
Q 2847 2600 2669 2842 
Q 2491 3084 2119 3084 
Q 1678 3084 1418 2786 
Q 1159 2488 1159 1978 
L 1159 0 
L 581 0 
L 581 3500 
L 1159 3500 
L 1159 2956 
Q 1356 3278 1631 3431 
Q 1906 3584 2284 3584 
Q 2666 3584 2933 3390 
Q 3200 3197 3328 2828 
z
" transform="scale(0.015625)"/>
      <path id="DejaVuSans-76" d="M 191 3500 
L 800 3500 
L 1894 563 
L 2988 3500 
L 3597 3500 
L 2284 0 
L 1503 0 
L 191 3500 
z
" transform="scale(0.015625)"/>
      <path id="DejaVuSans-57" d="M 213 4666 
L 850 4666 
L 1831 722 
L 2809 4666 
L 3519 4666 
L 4500 722 
L 5478 4666 
L 6119 4666 
L 4947 0 
L 4153 0 
L 3169 4050 
L 2175 0 
L 1381 0 
L 213 4666 
z
" transform="scale(0.015625)"/>
      <path id="DejaVuSans-53" d="M 3425 4513 
L 3425 3897 
Q 3066 4069 2747 4153 
Q 2428 4238 2131 4238 
Q 1616 4238 1336 4038 
Q 1056 3838 1056 3469 
Q 1056 3159 1242 3001 
Q 1428 2844 1947 2747 
L 2328 2669 
Q 3034 2534 3370 2195 
Q 3706 1856 3706 1288 
Q 3706 609 3251 259 
Q 2797 -91 1919 -91 
Q 1588 -91 1214 -16 
Q 841 59 441 206 
L 441 856 
Q 825 641 1194 531 
Q 1563 422 1919 422 
Q 2459 422 2753 634 
Q 3047 847 3047 1241 
Q 3047 1584 2836 1778 
Q 2625 1972 2144 2069 
L 1759 2144 
Q 1053 2284 737 2584 
Q 422 2884 422 3419 
Q 422 4038 858 4394 
Q 1294 4750 2059 4750 
Q 2388 4750 2728 4690 
Q 3069 4631 3425 4513 
z
" transform="scale(0.015625)"/>
      <path id="DejaVuSans-54" d="M -19 4666 
L 3928 4666 
L 3928 4134 
L 2272 4134 
L 2272 0 
L 1638 0 
L 1638 4134 
L -19 4134 
L -19 4666 
z
" transform="scale(0.015625)"/>
      <path id="DejaVuSans-2c" d="M 750 794 
L 1409 794 
L 1409 256 
L 897 -744 
L 494 -744 
L 750 256 
L 750 794 
z
" transform="scale(0.015625)"/>
      <path id="DejaVuSans-62" d="M 3116 1747 
Q 3116 2381 2855 2742 
Q 2594 3103 2138 3103 
Q 1681 3103 1420 2742 
Q 1159 2381 1159 1747 
Q 1159 1113 1420 752 
Q 1681 391 2138 391 
Q 2594 391 2855 752 
Q 3116 1113 3116 1747 
z
M 1159 2969 
Q 1341 3281 1617 3432 
Q 1894 3584 2278 3584 
Q 2916 3584 3314 3078 
Q 3713 2572 3713 1747 
Q 3713 922 3314 415 
Q 2916 -91 2278 -91 
Q 1894 -91 1617 61 
Q 1341 213 1159 525 
L 1159 0 
L 581 0 
L 581 4863 
L 1159 4863 
L 1159 2969 
z
" transform="scale(0.015625)"/>
      <path id="DejaVuSans-66" d="M 2375 4863 
L 2375 4384 
L 1825 4384 
Q 1516 4384 1395 4259 
Q 1275 4134 1275 3809 
L 1275 3500 
L 2222 3500 
L 2222 3053 
L 1275 3053 
L 1275 0 
L 697 0 
L 697 3053 
L 147 3053 
L 147 3500 
L 697 3500 
L 697 3744 
Q 697 4328 969 4595 
Q 1241 4863 1831 4863 
L 2375 4863 
z
" transform="scale(0.015625)"/>
      <path id="DejaVuSans-2d" d="M 313 2009 
L 1997 2009 
L 1997 1497 
L 313 1497 
L 313 2009 
z
" transform="scale(0.015625)"/>
      <path id="DejaVuSans-79" d="M 2059 -325 
Q 1816 -950 1584 -1140 
Q 1353 -1331 966 -1331 
L 506 -1331 
L 506 -850 
L 844 -850 
Q 1081 -850 1212 -737 
Q 1344 -625 1503 -206 
L 1606 56 
L 191 3500 
L 800 3500 
L 1894 763 
L 2988 3500 
L 3597 3500 
L 2059 -325 
z
" transform="scale(0.015625)"/>
      <path id="DejaVuSans-71" d="M 947 1747 
Q 947 1113 1208 752 
Q 1469 391 1925 391 
Q 2381 391 2643 752 
Q 2906 1113 2906 1747 
Q 2906 2381 2643 2742 
Q 2381 3103 1925 3103 
Q 1469 3103 1208 2742 
Q 947 2381 947 1747 
z
M 2906 525 
Q 2725 213 2448 61 
Q 2172 -91 1784 -91 
Q 1150 -91 751 415 
Q 353 922 353 1747 
Q 353 2572 751 3078 
Q 1150 3584 1784 3584 
Q 2172 3584 2448 3432 
Q 2725 3281 2906 2969 
L 2906 3500 
L 3481 3500 
L 3481 -1331 
L 2906 -1331 
L 2906 525 
z
" transform="scale(0.015625)"/>
      <path id="DejaVuSans-2e" d="M 684 794 
L 1344 794 
L 1344 0 
L 684 0 
L 684 794 
z
" transform="scale(0.015625)"/>
     </defs>
     <use xlink:href="#DejaVuSans-46"/>
     <use xlink:href="#DejaVuSans-6f" transform="translate(53.894531 0)"/>
     <use xlink:href="#DejaVuSans-6e" transform="translate(115.076172 0)"/>
     <use xlink:href="#DejaVuSans-74" transform="translate(178.455078 0)"/>
     <use xlink:href="#DejaVuSans-65" transform="translate(217.664062 0)"/>
     <use xlink:href="#DejaVuSans-3a" transform="translate(279.1875 0)"/>
     <use xlink:href="#DejaVuSans-20" transform="translate(312.878906 0)"/>
     <use xlink:href="#DejaVuSans-49" transform="translate(344.666016 0)"/>
     <use xlink:href="#DejaVuSans-4e" transform="translate(374.158203 0)"/>
     <use xlink:href="#DejaVuSans-50" transform="translate(448.962891 0)"/>
     <use xlink:href="#DejaVuSans-45" transform="translate(509.265625 0)"/>
     <use xlink:href="#DejaVuSans-2f" transform="translate(572.449219 0)"/>
     <use xlink:href="#DejaVuSans-42" transform="translate(606.140625 0)"/>
     <use xlink:href="#DejaVuSans-44" transform="translate(674.744141 0)"/>
     <use xlink:href="#DejaVuSans-51" transform="translate(751.746094 0)"/>
     <use xlink:href="#DejaVuSans-75" transform="translate(830.457031 0)"/>
     <use xlink:href="#DejaVuSans-65" transform="translate(893.835938 0)"/>
     <use xlink:href="#DejaVuSans-69" transform="translate(955.359375 0)"/>
     <use xlink:href="#DejaVuSans-6d" transform="translate(983.142578 0)"/>
     <use xlink:href="#DejaVuSans-61" transform="translate(1080.554688 0)"/>
     <use xlink:href="#DejaVuSans-64" transform="translate(1141.833984 0)"/>
     <use xlink:href="#DejaVuSans-61" transform="translate(1205.310547 0)"/>
     <use xlink:href="#DejaVuSans-73" transform="translate(1266.589844 0)"/>
     <use xlink:href="#DejaVuSans-20" transform="translate(1318.689453 0)"/>
     <use xlink:href="#DejaVuSans-76" transform="translate(1350.476562 0)"/>
     <use xlink:href="#DejaVuSans-69" transform="translate(1409.65625 0)"/>
     <use xlink:href="#DejaVuSans-61" transform="translate(1437.439453 0)"/>
     <use xlink:href="#DejaVuSans-20" transform="translate(1498.71875 0)"/>
     <use xlink:href="#DejaVuSans-57" transform="translate(1530.505859 0)"/>
     <use xlink:href="#DejaVuSans-46" transform="translate(1629.382812 0)"/>
     <use xlink:href="#DejaVuSans-53" transform="translate(1685.152344 0)"/>
     <use xlink:href="#DejaVuSans-20" transform="translate(1748.628906 0)"/>
     <use xlink:href="#DejaVuSans-54" transform="translate(1780.416016 0)"/>
     <use xlink:href="#DejaVuSans-65" transform="translate(1824.5 0)"/>
     <use xlink:href="#DejaVuSans-72" transform="translate(1886.023438 0)"/>
     <use xlink:href="#DejaVuSans-72" transform="translate(1925.386719 0)"/>
     <use xlink:href="#DejaVuSans-61" transform="translate(1966.5 0)"/>
     <use xlink:href="#DejaVuSans-42" transform="translate(2027.779297 0)"/>
     <use xlink:href="#DejaVuSans-72" transform="translate(2096.382812 0)"/>
     <use xlink:href="#DejaVuSans-61" transform="translate(2137.496094 0)"/>
     <use xlink:href="#DejaVuSans-73" transform="translate(2198.775391 0)"/>
     <use xlink:href="#DejaVuSans-69" transform="translate(2250.875 0)"/>
     <use xlink:href="#DejaVuSans-6c" transform="translate(2278.658203 0)"/>
     <use xlink:href="#DejaVuSans-69" transform="translate(2306.441406 0)"/>
     <use xlink:href="#DejaVuSans-73" transform="translate(2334.224609 0)"/>
     <use xlink:href="#DejaVuSans-2c" transform="translate(2386.324219 0)"/>
     <use xlink:href="#DejaVuSans-20" transform="translate(2418.111328 0)"/>
     <use xlink:href="#DejaVuSans-63" transform="translate(2449.898438 0)"/>
     <use xlink:href="#DejaVuSans-6f" transform="translate(2504.878906 0)"/>
     <use xlink:href="#DejaVuSans-6c" transform="translate(2566.060547 0)"/>
     <use xlink:href="#DejaVuSans-65" transform="translate(2593.84375 0)"/>
     <use xlink:href="#DejaVuSans-74" transform="translate(2655.367188 0)"/>
     <use xlink:href="#DejaVuSans-61" transform="translate(2694.576172 0)"/>
     <use xlink:href="#DejaVuSans-20" transform="translate(2755.855469 0)"/>
     <use xlink:href="#DejaVuSans-63" transform="translate(2787.642578 0)"/>
     <use xlink:href="#DejaVuSans-6f" transform="translate(2842.623047 0)"/>
     <use xlink:href="#DejaVuSans-6d" transform="translate(2903.804688 0)"/>
     <use xlink:href="#DejaVuSans-20" transform="translate(3001.216797 0)"/>
     <use xlink:href="#DejaVuSans-65" transform="translate(3033.003906 0)"/>
     <use xlink:href="#DejaVuSans-6e" transform="translate(3094.527344 0)"/>
     <use xlink:href="#DejaVuSans-76" transform="translate(3157.90625 0)"/>
     <use xlink:href="#DejaVuSans-65" transform="translate(3217.085938 0)"/>
     <use xlink:href="#DejaVuSans-6c" transform="translate(3278.609375 0)"/>
     <use xlink:href="#DejaVuSans-6f" transform="translate(3306.392578 0)"/>
     <use xlink:href="#DejaVuSans-70" transform="translate(3367.574219 0)"/>
     <use xlink:href="#DejaVuSans-65" transform="translate(3431.050781 0)"/>
     <use xlink:href="#DejaVuSans-20" transform="translate(3492.574219 0)"/>
     <use xlink:href="#DejaVuSans-64" transform="translate(3524.361328 0)"/>
     <use xlink:href="#DejaVuSans-61" transform="translate(3587.837891 0)"/>
     <use xlink:href="#DejaVuSans-20" transform="translate(3649.117188 0)"/>
     <use xlink:href="#DejaVuSans-62" transform="translate(3680.904297 0)"/>
     <use xlink:href="#DejaVuSans-61" transform="translate(3744.380859 0)"/>
     <use xlink:href="#DejaVuSans-63" transform="translate(3805.660156 0)"/>
     <use xlink:href="#DejaVuSans-69" transform="translate(3860.640625 0)"/>
     <use xlink:href="#DejaVuSans-61" transform="translate(3888.423828 0)"/>
     <use xlink:href="#DejaVuSans-20" transform="translate(3949.703125 0)"/>
     <use xlink:href="#DejaVuSans-65" transform="translate(3981.490234 0)"/>
     <use xlink:href="#DejaVuSans-20" transform="translate(4043.013672 0)"/>
     <use xlink:href="#DejaVuSans-66" transform="translate(4074.800781 0)"/>
     <use xlink:href="#DejaVuSans-69" transform="translate(4110.005859 0)"/>
     <use xlink:href="#DejaVuSans-6c" transform="translate(4137.789062 0)"/>
     <use xlink:href="#DejaVuSans-74" transform="translate(4165.572266 0)"/>
     <use xlink:href="#DejaVuSans-72" transform="translate(4204.78125 0)"/>
     <use xlink:href="#DejaVuSans-6f" transform="translate(4243.644531 0)"/>
     <use xlink:href="#DejaVuSans-20" transform="translate(4304.826172 0)"/>
     <use xlink:href="#DejaVuSans-70" transform="translate(4336.613281 0)"/>
     <use xlink:href="#DejaVuSans-6f" transform="translate(4400.089844 0)"/>
     <use xlink:href="#DejaVuSans-69" transform="translate(4461.271484 0)"/>
     <use xlink:href="#DejaVuSans-6e" transform="translate(4489.054688 0)"/>
     <use xlink:href="#DejaVuSans-74" transform="translate(4552.433594 0)"/>
     <use xlink:href="#DejaVuSans-2d" transform="translate(4591.642578 0)"/>
     <use xlink:href="#DejaVuSans-69" transform="translate(4627.726562 0)"/>
     <use xlink:href="#DejaVuSans-6e" transform="translate(4655.509766 0)"/>
     <use xlink:href="#DejaVuSans-2d" transform="translate(4718.888672 0)"/>
     <use xlink:href="#DejaVuSans-70" transform="translate(4754.972656 0)"/>
     <use xlink:href="#DejaVuSans-6f" transform="translate(4818.449219 0)"/>
     <use xlink:href="#DejaVuSans-6c" transform="translate(4879.630859 0)"/>
     <use xlink:href="#DejaVuSans-79" transform="translate(4907.414062 0)"/>
     <use xlink:href="#DejaVuSans-67" transform="translate(4966.59375 0)"/>
     <use xlink:href="#DejaVuSans-6f" transform="translate(5030.070312 0)"/>
     <use xlink:href="#DejaVuSans-6e" transform="translate(5091.251953 0)"/>
     <use xlink:href="#DejaVuSans-20" transform="translate(5154.630859 0)"/>
     <use xlink:href="#DejaVuSans-6e" transform="translate(5186.417969 0)"/>
     <use xlink:href="#DejaVuSans-6f" transform="translate(5249.796875 0)"/>
     <use xlink:href="#DejaVuSans-20" transform="translate(5310.978516 0)"/>
     <use xlink:href="#DejaVuSans-63" transform="translate(5342.765625 0)"/>
     <use xlink:href="#DejaVuSans-6f" transform="translate(5397.746094 0)"/>
     <use xlink:href="#DejaVuSans-6e" transform="translate(5458.927734 0)"/>
     <use xlink:href="#DejaVuSans-74" transform="translate(5522.306641 0)"/>
     <use xlink:href="#DejaVuSans-6f" transform="translate(5561.515625 0)"/>
     <use xlink:href="#DejaVuSans-72" transform="translate(5622.697266 0)"/>
     <use xlink:href="#DejaVuSans-6e" transform="translate(5662.060547 0)"/>
     <use xlink:href="#DejaVuSans-6f" transform="translate(5725.439453 0)"/>
     <use xlink:href="#DejaVuSans-20" transform="translate(5786.621094 0)"/>
     <use xlink:href="#DejaVuSans-65" transform="translate(5818.408203 0)"/>
     <use xlink:href="#DejaVuSans-73" transform="translate(5879.931641 0)"/>
     <use xlink:href="#DejaVuSans-71" transform="translate(5932.03125 0)"/>
     <use xlink:href="#DejaVuSans-75" transform="translate(5995.507812 0)"/>
     <use xlink:href="#DejaVuSans-65" transform="translate(6058.886719 0)"/>
     <use xlink:href="#DejaVuSans-6d" transform="translate(6120.410156 0)"/>
     <use xlink:href="#DejaVuSans-61" transform="translate(6217.822266 0)"/>
     <use xlink:href="#DejaVuSans-74" transform="translate(6279.101562 0)"/>
     <use xlink:href="#DejaVuSans-69" transform="translate(6318.310547 0)"/>
     <use xlink:href="#DejaVuSans-63" transform="translate(6346.09375 0)"/>
     <use xlink:href="#DejaVuSans-6f" transform="translate(6401.074219 0)"/>
     <use xlink:href="#DejaVuSans-20" transform="translate(6462.255859 0)"/>
     <use xlink:href="#DejaVuSans-64" transform="translate(6494.042969 0)"/>
     <use xlink:href="#DejaVuSans-6f" transform="translate(6557.519531 0)"/>
     <use xlink:href="#DejaVuSans-20" transform="translate(6618.701172 0)"/>
     <use xlink:href="#DejaVuSans-72" transform="translate(6650.488281 0)"/>
     <use xlink:href="#DejaVuSans-65" transform="translate(6689.351562 0)"/>
     <use xlink:href="#DejaVuSans-63" transform="translate(6750.875 0)"/>
     <use xlink:href="#DejaVuSans-6f" transform="translate(6805.855469 0)"/>
     <use xlink:href="#DejaVuSans-72" transform="translate(6867.037109 0)"/>
     <use xlink:href="#DejaVuSans-74" transform="translate(6908.150391 0)"/>
     <use xlink:href="#DejaVuSans-65" transform="translate(6947.359375 0)"/>
     <use xlink:href="#DejaVuSans-2e" transform="translate(7008.882812 0)"/>
    </g>
    <!-- Mato Grosso do Sul em vermelho cobre o entorno Tres Lagoas/Jupia e o eixo Sucuriu; Goias/MG cobrem as cabeceiras do Paranaiba e do Grande. -->
    <g style="fill: #64748b" transform="translate(45.478125 430.910925) scale(0.09 -0.09)">
     <defs>
      <path id="DejaVuSans-4d" d="M 628 4666 
L 1569 4666 
L 2759 1491 
L 3956 4666 
L 4897 4666 
L 4897 0 
L 4281 0 
L 4281 4097 
L 3078 897 
L 2444 897 
L 1241 4097 
L 1241 0 
L 628 0 
L 628 4666 
z
" transform="scale(0.015625)"/>
      <path id="DejaVuSans-47" d="M 3809 666 
L 3809 1919 
L 2778 1919 
L 2778 2438 
L 4434 2438 
L 4434 434 
Q 4069 175 3628 42 
Q 3188 -91 2688 -91 
Q 1594 -91 976 548 
Q 359 1188 359 2328 
Q 359 3472 976 4111 
Q 1594 4750 2688 4750 
Q 3144 4750 3555 4637 
Q 3966 4525 4313 4306 
L 4313 3634 
Q 3963 3931 3569 4081 
Q 3175 4231 2741 4231 
Q 1884 4231 1454 3753 
Q 1025 3275 1025 2328 
Q 1025 1384 1454 906 
Q 1884 428 2741 428 
Q 3075 428 3337 486 
Q 3600 544 3809 666 
z
" transform="scale(0.015625)"/>
      <path id="DejaVuSans-68" d="M 3513 2113 
L 3513 0 
L 2938 0 
L 2938 2094 
Q 2938 2591 2744 2837 
Q 2550 3084 2163 3084 
Q 1697 3084 1428 2787 
Q 1159 2491 1159 1978 
L 1159 0 
L 581 0 
L 581 4863 
L 1159 4863 
L 1159 2956 
Q 1366 3272 1645 3428 
Q 1925 3584 2291 3584 
Q 2894 3584 3203 3211 
Q 3513 2838 3513 2113 
z
" transform="scale(0.015625)"/>
      <path id="DejaVuSans-4c" d="M 628 4666 
L 1259 4666 
L 1259 531 
L 3531 531 
L 3531 0 
L 628 0 
L 628 4666 
z
" transform="scale(0.015625)"/>
      <path id="DejaVuSans-4a" d="M 628 4666 
L 1259 4666 
L 1259 325 
Q 1259 -519 939 -900 
Q 619 -1281 -91 -1281 
L -331 -1281 
L -331 -750 
L -134 -750 
Q 284 -750 456 -515 
Q 628 -281 628 325 
L 628 4666 
z
" transform="scale(0.015625)"/>
      <path id="DejaVuSans-78" d="M 3513 3500 
L 2247 1797 
L 3578 0 
L 2900 0 
L 1881 1375 
L 863 0 
L 184 0 
L 1544 1831 
L 300 3500 
L 978 3500 
L 1906 2253 
L 2834 3500 
L 3513 3500 
z
" transform="scale(0.015625)"/>
      <path id="DejaVuSans-3b" d="M 750 3309 
L 1409 3309 
L 1409 2516 
L 750 2516 
L 750 3309 
z
M 750 794 
L 1409 794 
L 1409 256 
L 897 -744 
L 494 -744 
L 750 256 
L 750 794 
z
" transform="scale(0.015625)"/>
     </defs>
     <use xlink:href="#DejaVuSans-4d"/>
     <use xlink:href="#DejaVuSans-61" transform="translate(86.279297 0)"/>
     <use xlink:href="#DejaVuSans-74" transform="translate(147.558594 0)"/>
     <use xlink:href="#DejaVuSans-6f" transform="translate(186.767578 0)"/>
     <use xlink:href="#DejaVuSans-20" transform="translate(247.949219 0)"/>
     <use xlink:href="#DejaVuSans-47" transform="translate(279.736328 0)"/>
     <use xlink:href="#DejaVuSans-72" transform="translate(357.226562 0)"/>
     <use xlink:href="#DejaVuSans-6f" transform="translate(396.089844 0)"/>
     <use xlink:href="#DejaVuSans-73" transform="translate(457.271484 0)"/>
     <use xlink:href="#DejaVuSans-73" transform="translate(509.371094 0)"/>
     <use xlink:href="#DejaVuSans-6f" transform="translate(561.470703 0)"/>
     <use xlink:href="#DejaVuSans-20" transform="translate(622.652344 0)"/>
     <use xlink:href="#DejaVuSans-64" transform="translate(654.439453 0)"/>
     <use xlink:href="#DejaVuSans-6f" transform="translate(717.916016 0)"/>
     <use xlink:href="#DejaVuSans-20" transform="translate(779.097656 0)"/>
     <use xlink:href="#DejaVuSans-53" transform="translate(810.884766 0)"/>
     <use xlink:href="#DejaVuSans-75" transform="translate(874.361328 0)"/>
     <use xlink:href="#DejaVuSans-6c" transform="translate(937.740234 0)"/>
     <use xlink:href="#DejaVuSans-20" transform="translate(965.523438 0)"/>
     <use xlink:href="#DejaVuSans-65" transform="translate(997.310547 0)"/>
     <use xlink:href="#DejaVuSans-6d" transform="translate(1058.833984 0)"/>
     <use xlink:href="#DejaVuSans-20" transform="translate(1156.246094 0)"/>
     <use xlink:href="#DejaVuSans-76" transform="translate(1188.033203 0)"/>
     <use xlink:href="#DejaVuSans-65" transform="translate(1247.212891 0)"/>
     <use xlink:href="#DejaVuSans-72" transform="translate(1308.736328 0)"/>
     <use xlink:href="#DejaVuSans-6d" transform="translate(1348.099609 0)"/>
     <use xlink:href="#DejaVuSans-65" transform="translate(1445.511719 0)"/>
     <use xlink:href="#DejaVuSans-6c" transform="translate(1507.035156 0)"/>
     <use xlink:href="#DejaVuSans-68" transform="translate(1534.818359 0)"/>
     <use xlink:href="#DejaVuSans-6f" transform="translate(1598.197266 0)"/>
     <use xlink:href="#DejaVuSans-20" transform="translate(1659.378906 0)"/>
     <use xlink:href="#DejaVuSans-63" transform="translate(1691.166016 0)"/>
     <use xlink:href="#DejaVuSans-6f" transform="translate(1746.146484 0)"/>
     <use xlink:href="#DejaVuSans-62" transform="translate(1807.328125 0)"/>
     <use xlink:href="#DejaVuSans-72" transform="translate(1870.804688 0)"/>
     <use xlink:href="#DejaVuSans-65" transform="translate(1909.667969 0)"/>
     <use xlink:href="#DejaVuSans-20" transform="translate(1971.191406 0)"/>
     <use xlink:href="#DejaVuSans-6f" transform="translate(2002.978516 0)"/>
     <use xlink:href="#DejaVuSans-20" transform="translate(2064.160156 0)"/>
     <use xlink:href="#DejaVuSans-65" transform="translate(2095.947266 0)"/>
     <use xlink:href="#DejaVuSans-6e" transform="translate(2157.470703 0)"/>
     <use xlink:href="#DejaVuSans-74" transform="translate(2220.849609 0)"/>
     <use xlink:href="#DejaVuSans-6f" transform="translate(2260.058594 0)"/>
     <use xlink:href="#DejaVuSans-72" transform="translate(2321.240234 0)"/>
     <use xlink:href="#DejaVuSans-6e" transform="translate(2360.603516 0)"/>
     <use xlink:href="#DejaVuSans-6f" transform="translate(2423.982422 0)"/>
     <use xlink:href="#DejaVuSans-20" transform="translate(2485.164062 0)"/>
     <use xlink:href="#DejaVuSans-54" transform="translate(2516.951172 0)"/>
     <use xlink:href="#DejaVuSans-72" transform="translate(2563.285156 0)"/>
     <use xlink:href="#DejaVuSans-65" transform="translate(2602.148438 0)"/>
     <use xlink:href="#DejaVuSans-73" transform="translate(2663.671875 0)"/>
     <use xlink:href="#DejaVuSans-20" transform="translate(2715.771484 0)"/>
     <use xlink:href="#DejaVuSans-4c" transform="translate(2747.558594 0)"/>
     <use xlink:href="#DejaVuSans-61" transform="translate(2803.271484 0)"/>
     <use xlink:href="#DejaVuSans-67" transform="translate(2864.550781 0)"/>
     <use xlink:href="#DejaVuSans-6f" transform="translate(2928.027344 0)"/>
     <use xlink:href="#DejaVuSans-61" transform="translate(2989.208984 0)"/>
     <use xlink:href="#DejaVuSans-73" transform="translate(3050.488281 0)"/>
     <use xlink:href="#DejaVuSans-2f" transform="translate(3102.587891 0)"/>
     <use xlink:href="#DejaVuSans-4a" transform="translate(3136.279297 0)"/>
     <use xlink:href="#DejaVuSans-75" transform="translate(3165.771484 0)"/>
     <use xlink:href="#DejaVuSans-70" transform="translate(3229.150391 0)"/>
     <use xlink:href="#DejaVuSans-69" transform="translate(3292.626953 0)"/>
     <use xlink:href="#DejaVuSans-61" transform="translate(3320.410156 0)"/>
     <use xlink:href="#DejaVuSans-20" transform="translate(3381.689453 0)"/>
     <use xlink:href="#DejaVuSans-65" transform="translate(3413.476562 0)"/>
     <use xlink:href="#DejaVuSans-20" transform="translate(3475 0)"/>
     <use xlink:href="#DejaVuSans-6f" transform="translate(3506.787109 0)"/>
     <use xlink:href="#DejaVuSans-20" transform="translate(3567.96875 0)"/>
     <use xlink:href="#DejaVuSans-65" transform="translate(3599.755859 0)"/>
     <use xlink:href="#DejaVuSans-69" transform="translate(3661.279297 0)"/>
     <use xlink:href="#DejaVuSans-78" transform="translate(3689.0625 0)"/>
     <use xlink:href="#DejaVuSans-6f" transform="translate(3745.117188 0)"/>
     <use xlink:href="#DejaVuSans-20" transform="translate(3806.298828 0)"/>
     <use xlink:href="#DejaVuSans-53" transform="translate(3838.085938 0)"/>
     <use xlink:href="#DejaVuSans-75" transform="translate(3901.5625 0)"/>
     <use xlink:href="#DejaVuSans-63" transform="translate(3964.941406 0)"/>
     <use xlink:href="#DejaVuSans-75" transform="translate(4019.921875 0)"/>
     <use xlink:href="#DejaVuSans-72" transform="translate(4083.300781 0)"/>
     <use xlink:href="#DejaVuSans-69" transform="translate(4124.414062 0)"/>
     <use xlink:href="#DejaVuSans-75" transform="translate(4152.197266 0)"/>
     <use xlink:href="#DejaVuSans-3b" transform="translate(4215.576172 0)"/>
     <use xlink:href="#DejaVuSans-20" transform="translate(4249.267578 0)"/>
     <use xlink:href="#DejaVuSans-47" transform="translate(4281.054688 0)"/>
     <use xlink:href="#DejaVuSans-6f" transform="translate(4358.544922 0)"/>
     <use xlink:href="#DejaVuSans-69" transform="translate(4419.726562 0)"/>
     <use xlink:href="#DejaVuSans-61" transform="translate(4447.509766 0)"/>
     <use xlink:href="#DejaVuSans-73" transform="translate(4508.789062 0)"/>
     <use xlink:href="#DejaVuSans-2f" transform="translate(4560.888672 0)"/>
     <use xlink:href="#DejaVuSans-4d" transform="translate(4594.580078 0)"/>
     <use xlink:href="#DejaVuSans-47" transform="translate(4680.859375 0)"/>
     <use xlink:href="#DejaVuSans-20" transform="translate(4758.349609 0)"/>
     <use xlink:href="#DejaVuSans-63" transform="translate(4790.136719 0)"/>
     <use xlink:href="#DejaVuSans-6f" transform="translate(4845.117188 0)"/>
     <use xlink:href="#DejaVuSans-62" transform="translate(4906.298828 0)"/>
     <use xlink:href="#DejaVuSans-72" transform="translate(4969.775391 0)"/>
     <use xlink:href="#DejaVuSans-65" transform="translate(5008.638672 0)"/>
     <use xlink:href="#DejaVuSans-6d" transform="translate(5070.162109 0)"/>
     <use xlink:href="#DejaVuSans-20" transform="translate(5167.574219 0)"/>
     <use xlink:href="#DejaVuSans-61" transform="translate(5199.361328 0)"/>
     <use xlink:href="#DejaVuSans-73" transform="translate(5260.640625 0)"/>
     <use xlink:href="#DejaVuSans-20" transform="translate(5312.740234 0)"/>
     <use xlink:href="#DejaVuSans-63" transform="translate(5344.527344 0)"/>
     <use xlink:href="#DejaVuSans-61" transform="translate(5399.507812 0)"/>
     <use xlink:href="#DejaVuSans-62" transform="translate(5460.787109 0)"/>
     <use xlink:href="#DejaVuSans-65" transform="translate(5524.263672 0)"/>
     <use xlink:href="#DejaVuSans-63" transform="translate(5585.787109 0)"/>
     <use xlink:href="#DejaVuSans-65" transform="translate(5640.767578 0)"/>
     <use xlink:href="#DejaVuSans-69" transform="translate(5702.291016 0)"/>
     <use xlink:href="#DejaVuSans-72" transform="translate(5730.074219 0)"/>
     <use xlink:href="#DejaVuSans-61" transform="translate(5771.1875 0)"/>
     <use xlink:href="#DejaVuSans-73" transform="translate(5832.466797 0)"/>
     <use xlink:href="#DejaVuSans-20" transform="translate(5884.566406 0)"/>
     <use xlink:href="#DejaVuSans-64" transform="translate(5916.353516 0)"/>
     <use xlink:href="#DejaVuSans-6f" transform="translate(5979.830078 0)"/>
     <use xlink:href="#DejaVuSans-20" transform="translate(6041.011719 0)"/>
     <use xlink:href="#DejaVuSans-50" transform="translate(6072.798828 0)"/>
     <use xlink:href="#DejaVuSans-61" transform="translate(6128.601562 0)"/>
     <use xlink:href="#DejaVuSans-72" transform="translate(6189.880859 0)"/>
     <use xlink:href="#DejaVuSans-61" transform="translate(6230.994141 0)"/>
     <use xlink:href="#DejaVuSans-6e" transform="translate(6292.273438 0)"/>
     <use xlink:href="#DejaVuSans-61" transform="translate(6355.652344 0)"/>
     <use xlink:href="#DejaVuSans-69" transform="translate(6416.931641 0)"/>
     <use xlink:href="#DejaVuSans-62" transform="translate(6444.714844 0)"/>
     <use xlink:href="#DejaVuSans-61" transform="translate(6508.191406 0)"/>
     <use xlink:href="#DejaVuSans-20" transform="translate(6569.470703 0)"/>
     <use xlink:href="#DejaVuSans-65" transform="translate(6601.257812 0)"/>
     <use xlink:href="#DejaVuSans-20" transform="translate(6662.78125 0)"/>
     <use xlink:href="#DejaVuSans-64" transform="translate(6694.568359 0)"/>
     <use xlink:href="#DejaVuSans-6f" transform="translate(6758.044922 0)"/>
     <use xlink:href="#DejaVuSans-20" transform="translate(6819.226562 0)"/>
     <use xlink:href="#DejaVuSans-47" transform="translate(6851.013672 0)"/>
     <use xlink:href="#DejaVuSans-72" transform="translate(6928.503906 0)"/>
     <use xlink:href="#DejaVuSans-61" transform="translate(6969.617188 0)"/>
     <use xlink:href="#DejaVuSans-6e" transform="translate(7030.896484 0)"/>
     <use xlink:href="#DejaVuSans-64" transform="translate(7094.275391 0)"/>
     <use xlink:href="#DejaVuSans-65" transform="translate(7157.751953 0)"/>
     <use xlink:href="#DejaVuSans-2e" transform="translate(7219.275391 0)"/>
    </g>
   </g>
   <g id="text_14">
    <!-- Focos de calor INPE dentro da bacia contribuinte, por estado -->
    <g transform="translate(174.16125 16.318125) scale(0.12 -0.12)">
     <defs>
      <path id="DejaVuSans-Bold-46" d="M 588 4666 
L 3834 4666 
L 3834 3756 
L 1791 3756 
L 1791 2888 
L 3713 2888 
L 3713 1978 
L 1791 1978 
L 1791 0 
L 588 0 
L 588 4666 
z
" transform="scale(0.015625)"/>
      <path id="DejaVuSans-Bold-6f" d="M 2203 2784 
Q 1831 2784 1636 2517 
Q 1441 2250 1441 1747 
Q 1441 1244 1636 976 
Q 1831 709 2203 709 
Q 2569 709 2762 976 
Q 2956 1244 2956 1747 
Q 2956 2250 2762 2517 
Q 2569 2784 2203 2784 
z
M 2203 3584 
Q 3106 3584 3614 3096 
Q 4122 2609 4122 1747 
Q 4122 884 3614 396 
Q 3106 -91 2203 -91 
Q 1297 -91 786 396 
Q 275 884 275 1747 
Q 275 2609 786 3096 
Q 1297 3584 2203 3584 
z
" transform="scale(0.015625)"/>
      <path id="DejaVuSans-Bold-63" d="M 3366 3391 
L 3366 2478 
Q 3138 2634 2908 2709 
Q 2678 2784 2431 2784 
Q 1963 2784 1702 2511 
Q 1441 2238 1441 1747 
Q 1441 1256 1702 982 
Q 1963 709 2431 709 
Q 2694 709 2930 787 
Q 3166 866 3366 1019 
L 3366 103 
Q 3103 6 2833 -42 
Q 2563 -91 2291 -91 
Q 1344 -91 809 395 
Q 275 881 275 1747 
Q 275 2613 809 3098 
Q 1344 3584 2291 3584 
Q 2566 3584 2833 3536 
Q 3100 3488 3366 3391 
z
" transform="scale(0.015625)"/>
      <path id="DejaVuSans-Bold-73" d="M 3272 3391 
L 3272 2541 
Q 2913 2691 2578 2766 
Q 2244 2841 1947 2841 
Q 1628 2841 1473 2761 
Q 1319 2681 1319 2516 
Q 1319 2381 1436 2309 
Q 1553 2238 1856 2203 
L 2053 2175 
Q 2913 2066 3209 1816 
Q 3506 1566 3506 1031 
Q 3506 472 3093 190 
Q 2681 -91 1863 -91 
Q 1516 -91 1145 -36 
Q 775 19 384 128 
L 384 978 
Q 719 816 1070 734 
Q 1422 653 1784 653 
Q 2113 653 2278 743 
Q 2444 834 2444 1013 
Q 2444 1163 2330 1236 
Q 2216 1309 1875 1350 
L 1678 1375 
Q 931 1469 631 1722 
Q 331 1975 331 2491 
Q 331 3047 712 3315 
Q 1094 3584 1881 3584 
Q 2191 3584 2531 3537 
Q 2872 3491 3272 3391 
z
" transform="scale(0.015625)"/>
      <path id="DejaVuSans-Bold-20" transform="scale(0.015625)"/>
      <path id="DejaVuSans-Bold-64" d="M 2919 2988 
L 2919 4863 
L 4044 4863 
L 4044 0 
L 2919 0 
L 2919 506 
Q 2688 197 2409 53 
Q 2131 -91 1766 -91 
Q 1119 -91 703 423 
Q 288 938 288 1747 
Q 288 2556 703 3070 
Q 1119 3584 1766 3584 
Q 2128 3584 2408 3439 
Q 2688 3294 2919 2988 
z
M 2181 722 
Q 2541 722 2730 984 
Q 2919 1247 2919 1747 
Q 2919 2247 2730 2509 
Q 2541 2772 2181 2772 
Q 1825 2772 1636 2509 
Q 1447 2247 1447 1747 
Q 1447 1247 1636 984 
Q 1825 722 2181 722 
z
" transform="scale(0.015625)"/>
      <path id="DejaVuSans-Bold-65" d="M 4031 1759 
L 4031 1441 
L 1416 1441 
Q 1456 1047 1700 850 
Q 1944 653 2381 653 
Q 2734 653 3104 758 
Q 3475 863 3866 1075 
L 3866 213 
Q 3469 63 3072 -14 
Q 2675 -91 2278 -91 
Q 1328 -91 801 392 
Q 275 875 275 1747 
Q 275 2603 792 3093 
Q 1309 3584 2216 3584 
Q 3041 3584 3536 3087 
Q 4031 2591 4031 1759 
z
M 2881 2131 
Q 2881 2450 2695 2645 
Q 2509 2841 2209 2841 
Q 1884 2841 1681 2658 
Q 1478 2475 1428 2131 
L 2881 2131 
z
" transform="scale(0.015625)"/>
      <path id="DejaVuSans-Bold-61" d="M 2106 1575 
Q 1756 1575 1579 1456 
Q 1403 1338 1403 1106 
Q 1403 894 1545 773 
Q 1688 653 1941 653 
Q 2256 653 2472 879 
Q 2688 1106 2688 1447 
L 2688 1575 
L 2106 1575 
z
M 3816 1997 
L 3816 0 
L 2688 0 
L 2688 519 
Q 2463 200 2181 54 
Q 1900 -91 1497 -91 
Q 953 -91 614 226 
Q 275 544 275 1050 
Q 275 1666 698 1953 
Q 1122 2241 2028 2241 
L 2688 2241 
L 2688 2328 
Q 2688 2594 2478 2717 
Q 2269 2841 1825 2841 
Q 1466 2841 1156 2769 
Q 847 2697 581 2553 
L 581 3406 
Q 941 3494 1303 3539 
Q 1666 3584 2028 3584 
Q 2975 3584 3395 3211 
Q 3816 2838 3816 1997 
z
" transform="scale(0.015625)"/>
      <path id="DejaVuSans-Bold-6c" d="M 538 4863 
L 1656 4863 
L 1656 0 
L 538 0 
L 538 4863 
z
" transform="scale(0.015625)"/>
      <path id="DejaVuSans-Bold-72" d="M 3138 2547 
Q 2991 2616 2845 2648 
Q 2700 2681 2553 2681 
Q 2122 2681 1889 2404 
Q 1656 2128 1656 1613 
L 1656 0 
L 538 0 
L 538 3500 
L 1656 3500 
L 1656 2925 
Q 1872 3269 2151 3426 
Q 2431 3584 2822 3584 
Q 2878 3584 2943 3579 
Q 3009 3575 3134 3559 
L 3138 2547 
z
" transform="scale(0.015625)"/>
      <path id="DejaVuSans-Bold-49" d="M 588 4666 
L 1791 4666 
L 1791 0 
L 588 0 
L 588 4666 
z
" transform="scale(0.015625)"/>
      <path id="DejaVuSans-Bold-4e" d="M 588 4666 
L 1931 4666 
L 3628 1466 
L 3628 4666 
L 4769 4666 
L 4769 0 
L 3425 0 
L 1728 3200 
L 1728 0 
L 588 0 
L 588 4666 
z
" transform="scale(0.015625)"/>
      <path id="DejaVuSans-Bold-50" d="M 588 4666 
L 2584 4666 
Q 3475 4666 3951 4270 
Q 4428 3875 4428 3144 
Q 4428 2409 3951 2014 
Q 3475 1619 2584 1619 
L 1791 1619 
L 1791 0 
L 588 0 
L 588 4666 
z
M 1791 3794 
L 1791 2491 
L 2456 2491 
Q 2806 2491 2997 2661 
Q 3188 2831 3188 3144 
Q 3188 3456 2997 3625 
Q 2806 3794 2456 3794 
L 1791 3794 
z
" transform="scale(0.015625)"/>
      <path id="DejaVuSans-Bold-45" d="M 588 4666 
L 3834 4666 
L 3834 3756 
L 1791 3756 
L 1791 2888 
L 3713 2888 
L 3713 1978 
L 1791 1978 
L 1791 909 
L 3903 909 
L 3903 0 
L 588 0 
L 588 4666 
z
" transform="scale(0.015625)"/>
      <path id="DejaVuSans-Bold-6e" d="M 4056 2131 
L 4056 0 
L 2931 0 
L 2931 347 
L 2931 1631 
Q 2931 2084 2911 2256 
Q 2891 2428 2841 2509 
Q 2775 2619 2662 2680 
Q 2550 2741 2406 2741 
Q 2056 2741 1856 2470 
Q 1656 2200 1656 1722 
L 1656 0 
L 538 0 
L 538 3500 
L 1656 3500 
L 1656 2988 
Q 1909 3294 2193 3439 
Q 2478 3584 2822 3584 
Q 3428 3584 3742 3212 
Q 4056 2841 4056 2131 
z
" transform="scale(0.015625)"/>
      <path id="DejaVuSans-Bold-74" d="M 1759 4494 
L 1759 3500 
L 2913 3500 
L 2913 2700 
L 1759 2700 
L 1759 1216 
Q 1759 972 1856 886 
Q 1953 800 2241 800 
L 2816 800 
L 2816 0 
L 1856 0 
Q 1194 0 917 276 
Q 641 553 641 1216 
L 641 2700 
L 84 2700 
L 84 3500 
L 641 3500 
L 641 4494 
L 1759 4494 
z
" transform="scale(0.015625)"/>
      <path id="DejaVuSans-Bold-62" d="M 2400 722 
Q 2759 722 2948 984 
Q 3138 1247 3138 1747 
Q 3138 2247 2948 2509 
Q 2759 2772 2400 2772 
Q 2041 2772 1848 2508 
Q 1656 2244 1656 1747 
Q 1656 1250 1848 986 
Q 2041 722 2400 722 
z
M 1656 2988 
Q 1888 3294 2169 3439 
Q 2450 3584 2816 3584 
Q 3463 3584 3878 3070 
Q 4294 2556 4294 1747 
Q 4294 938 3878 423 
Q 3463 -91 2816 -91 
Q 2450 -91 2169 54 
Q 1888 200 1656 506 
L 1656 0 
L 538 0 
L 538 4863 
L 1656 4863 
L 1656 2988 
z
" transform="scale(0.015625)"/>
      <path id="DejaVuSans-Bold-69" d="M 538 3500 
L 1656 3500 
L 1656 0 
L 538 0 
L 538 3500 
z
M 538 4863 
L 1656 4863 
L 1656 3950 
L 538 3950 
L 538 4863 
z
" transform="scale(0.015625)"/>
      <path id="DejaVuSans-Bold-75" d="M 500 1363 
L 500 3500 
L 1625 3500 
L 1625 3150 
Q 1625 2866 1622 2436 
Q 1619 2006 1619 1863 
Q 1619 1441 1641 1255 
Q 1663 1069 1716 984 
Q 1784 875 1895 815 
Q 2006 756 2150 756 
Q 2500 756 2700 1025 
Q 2900 1294 2900 1772 
L 2900 3500 
L 4019 3500 
L 4019 0 
L 2900 0 
L 2900 506 
Q 2647 200 2364 54 
Q 2081 -91 1741 -91 
Q 1134 -91 817 281 
Q 500 653 500 1363 
z
" transform="scale(0.015625)"/>
      <path id="DejaVuSans-Bold-2c" d="M 653 1209 
L 1778 1209 
L 1778 256 
L 1006 -909 
L 341 -909 
L 653 256 
L 653 1209 
z
" transform="scale(0.015625)"/>
      <path id="DejaVuSans-Bold-70" d="M 1656 506 
L 1656 -1331 
L 538 -1331 
L 538 3500 
L 1656 3500 
L 1656 2988 
Q 1888 3294 2169 3439 
Q 2450 3584 2816 3584 
Q 3463 3584 3878 3070 
Q 4294 2556 4294 1747 
Q 4294 938 3878 423 
Q 3463 -91 2816 -91 
Q 2450 -91 2169 54 
Q 1888 200 1656 506 
z
M 2400 2772 
Q 2041 2772 1848 2508 
Q 1656 2244 1656 1747 
Q 1656 1250 1848 986 
Q 2041 722 2400 722 
Q 2759 722 2948 984 
Q 3138 1247 3138 1747 
Q 3138 2247 2948 2509 
Q 2759 2772 2400 2772 
z
" transform="scale(0.015625)"/>
     </defs>
     <use xlink:href="#DejaVuSans-Bold-46"/>
     <use xlink:href="#DejaVuSans-Bold-6f" transform="translate(64.310547 0)"/>
     <use xlink:href="#DejaVuSans-Bold-63" transform="translate(133.011719 0)"/>
     <use xlink:href="#DejaVuSans-Bold-6f" transform="translate(192.289062 0)"/>
     <use xlink:href="#DejaVuSans-Bold-73" transform="translate(260.990234 0)"/>
     <use xlink:href="#DejaVuSans-Bold-20" transform="translate(320.511719 0)"/>
     <use xlink:href="#DejaVuSans-Bold-64" transform="translate(355.326172 0)"/>
     <use xlink:href="#DejaVuSans-Bold-65" transform="translate(426.908203 0)"/>
     <use xlink:href="#DejaVuSans-Bold-20" transform="translate(494.730469 0)"/>
     <use xlink:href="#DejaVuSans-Bold-63" transform="translate(529.544922 0)"/>
     <use xlink:href="#DejaVuSans-Bold-61" transform="translate(588.822266 0)"/>
     <use xlink:href="#DejaVuSans-Bold-6c" transform="translate(656.302734 0)"/>
     <use xlink:href="#DejaVuSans-Bold-6f" transform="translate(690.580078 0)"/>
     <use xlink:href="#DejaVuSans-Bold-72" transform="translate(759.28125 0)"/>
     <use xlink:href="#DejaVuSans-Bold-20" transform="translate(808.597656 0)"/>
     <use xlink:href="#DejaVuSans-Bold-49" transform="translate(843.412109 0)"/>
     <use xlink:href="#DejaVuSans-Bold-4e" transform="translate(880.619141 0)"/>
     <use xlink:href="#DejaVuSans-Bold-50" transform="translate(964.310547 0)"/>
     <use xlink:href="#DejaVuSans-Bold-45" transform="translate(1037.601562 0)"/>
     <use xlink:href="#DejaVuSans-Bold-20" transform="translate(1105.912109 0)"/>
     <use xlink:href="#DejaVuSans-Bold-64" transform="translate(1140.726562 0)"/>
     <use xlink:href="#DejaVuSans-Bold-65" transform="translate(1212.308594 0)"/>
     <use xlink:href="#DejaVuSans-Bold-6e" transform="translate(1280.130859 0)"/>
     <use xlink:href="#DejaVuSans-Bold-74" transform="translate(1351.322266 0)"/>
     <use xlink:href="#DejaVuSans-Bold-72" transform="translate(1399.125 0)"/>
     <use xlink:href="#DejaVuSans-Bold-6f" transform="translate(1448.441406 0)"/>
     <use xlink:href="#DejaVuSans-Bold-20" transform="translate(1517.142578 0)"/>
     <use xlink:href="#DejaVuSans-Bold-64" transform="translate(1551.957031 0)"/>
     <use xlink:href="#DejaVuSans-Bold-61" transform="translate(1623.539062 0)"/>
     <use xlink:href="#DejaVuSans-Bold-20" transform="translate(1691.019531 0)"/>
     <use xlink:href="#DejaVuSans-Bold-62" transform="translate(1725.833984 0)"/>
     <use xlink:href="#DejaVuSans-Bold-61" transform="translate(1797.416016 0)"/>
     <use xlink:href="#DejaVuSans-Bold-63" transform="translate(1864.896484 0)"/>
     <use xlink:href="#DejaVuSans-Bold-69" transform="translate(1924.173828 0)"/>
     <use xlink:href="#DejaVuSans-Bold-61" transform="translate(1958.451172 0)"/>
     <use xlink:href="#DejaVuSans-Bold-20" transform="translate(2025.931641 0)"/>
     <use xlink:href="#DejaVuSans-Bold-63" transform="translate(2060.746094 0)"/>
     <use xlink:href="#DejaVuSans-Bold-6f" transform="translate(2120.023438 0)"/>
     <use xlink:href="#DejaVuSans-Bold-6e" transform="translate(2188.724609 0)"/>
     <use xlink:href="#DejaVuSans-Bold-74" transform="translate(2259.916016 0)"/>
     <use xlink:href="#DejaVuSans-Bold-72" transform="translate(2307.71875 0)"/>
     <use xlink:href="#DejaVuSans-Bold-69" transform="translate(2357.035156 0)"/>
     <use xlink:href="#DejaVuSans-Bold-62" transform="translate(2391.3125 0)"/>
     <use xlink:href="#DejaVuSans-Bold-75" transform="translate(2462.894531 0)"/>
     <use xlink:href="#DejaVuSans-Bold-69" transform="translate(2534.085938 0)"/>
     <use xlink:href="#DejaVuSans-Bold-6e" transform="translate(2568.363281 0)"/>
     <use xlink:href="#DejaVuSans-Bold-74" transform="translate(2639.554688 0)"/>
     <use xlink:href="#DejaVuSans-Bold-65" transform="translate(2687.357422 0)"/>
     <use xlink:href="#DejaVuSans-Bold-2c" transform="translate(2755.179688 0)"/>
     <use xlink:href="#DejaVuSans-Bold-20" transform="translate(2793.167969 0)"/>
     <use xlink:href="#DejaVuSans-Bold-70" transform="translate(2827.982422 0)"/>
     <use xlink:href="#DejaVuSans-Bold-6f" transform="translate(2899.564453 0)"/>
     <use xlink:href="#DejaVuSans-Bold-72" transform="translate(2968.265625 0)"/>
     <use xlink:href="#DejaVuSans-Bold-20" transform="translate(3017.582031 0)"/>
     <use xlink:href="#DejaVuSans-Bold-65" transform="translate(3052.396484 0)"/>
     <use xlink:href="#DejaVuSans-Bold-73" transform="translate(3120.21875 0)"/>
     <use xlink:href="#DejaVuSans-Bold-74" transform="translate(3179.740234 0)"/>
     <use xlink:href="#DejaVuSans-Bold-61" transform="translate(3227.542969 0)"/>
     <use xlink:href="#DejaVuSans-Bold-64" transform="translate(3295.023438 0)"/>
     <use xlink:href="#DejaVuSans-Bold-6f" transform="translate(3366.605469 0)"/>
    </g>
   </g>
   <g id="legend_1">
    <g id="line2d_53">
     <path d="M 224.035313 381.715519 
L 233.035313 381.715519 
L 242.035313 381.715519 
" style="fill: none; stroke: #6b48a8; stroke-opacity: 0.8; stroke-width: 1.4; stroke-linecap: square"/>
    </g>
    <g id="text_15">
     <!-- Distrito Federal -->
     <g transform="translate(249.235312 384.865519) scale(0.09 -0.09)">
      <use xlink:href="#DejaVuSans-44"/>
      <use xlink:href="#DejaVuSans-69" transform="translate(77.001953 0)"/>
      <use xlink:href="#DejaVuSans-73" transform="translate(104.785156 0)"/>
      <use xlink:href="#DejaVuSans-74" transform="translate(156.884766 0)"/>
      <use xlink:href="#DejaVuSans-72" transform="translate(196.09375 0)"/>
      <use xlink:href="#DejaVuSans-69" transform="translate(237.207031 0)"/>
      <use xlink:href="#DejaVuSans-74" transform="translate(264.990234 0)"/>
      <use xlink:href="#DejaVuSans-6f" transform="translate(304.199219 0)"/>
      <use xlink:href="#DejaVuSans-20" transform="translate(365.380859 0)"/>
      <use xlink:href="#DejaVuSans-46" transform="translate(397.167969 0)"/>
      <use xlink:href="#DejaVuSans-65" transform="translate(449.1875 0)"/>
      <use xlink:href="#DejaVuSans-64" transform="translate(510.710938 0)"/>
      <use xlink:href="#DejaVuSans-65" transform="translate(574.1875 0)"/>
      <use xlink:href="#DejaVuSans-72" transform="translate(635.710938 0)"/>
      <use xlink:href="#DejaVuSans-61" transform="translate(676.824219 0)"/>
      <use xlink:href="#DejaVuSans-6c" transform="translate(738.103516 0)"/>
     </g>
    </g>
    <g id="line2d_54">
     <path d="M 224.035313 394.925831 
L 233.035313 394.925831 
L 242.035313 394.925831 
" style="fill: none; stroke: #0f7b5f; stroke-opacity: 0.9; stroke-width: 1.8; stroke-linecap: square"/>
    </g>
    <g id="text_16">
     <!-- Goiás -->
     <g transform="translate(249.235312 398.075831) scale(0.09 -0.09)">
      <defs>
       <path id="DejaVuSans-e1" d="M 2194 1759 
Q 1497 1759 1228 1600 
Q 959 1441 959 1056 
Q 959 750 1161 570 
Q 1363 391 1709 391 
Q 2188 391 2477 730 
Q 2766 1069 2766 1631 
L 2766 1759 
L 2194 1759 
z
M 3341 1997 
L 3341 0 
L 2766 0 
L 2766 531 
Q 2569 213 2275 61 
Q 1981 -91 1556 -91 
Q 1019 -91 701 211 
Q 384 513 384 1019 
Q 384 1609 779 1909 
Q 1175 2209 1959 2209 
L 2766 2209 
L 2766 2266 
Q 2766 2663 2505 2880 
Q 2244 3097 1772 3097 
Q 1472 3097 1187 3025 
Q 903 2953 641 2809 
L 641 3341 
Q 956 3463 1253 3523 
Q 1550 3584 1831 3584 
Q 2591 3584 2966 3190 
Q 3341 2797 3341 1997 
z
M 2290 5119 
L 2912 5119 
L 1894 3944 
L 1415 3944 
L 2290 5119 
z
" transform="scale(0.015625)"/>
      </defs>
      <use xlink:href="#DejaVuSans-47"/>
      <use xlink:href="#DejaVuSans-6f" transform="translate(77.490234 0)"/>
      <use xlink:href="#DejaVuSans-69" transform="translate(138.671875 0)"/>
      <use xlink:href="#DejaVuSans-e1" transform="translate(166.455078 0)"/>
      <use xlink:href="#DejaVuSans-73" transform="translate(227.734375 0)"/>
     </g>
    </g>
    <g id="line2d_55">
     <path d="M 336.164062 381.715519 
L 345.164062 381.715519 
L 354.164062 381.715519 
" style="fill: none; stroke: #b41e1e; stroke-width: 3; stroke-linecap: square"/>
    </g>
    <g id="text_17">
     <!-- Mato Grosso Do Sul -->
     <g transform="translate(361.364062 384.865519) scale(0.09 -0.09)">
      <use xlink:href="#DejaVuSans-4d"/>
      <use xlink:href="#DejaVuSans-61" transform="translate(86.279297 0)"/>
      <use xlink:href="#DejaVuSans-74" transform="translate(147.558594 0)"/>
      <use xlink:href="#DejaVuSans-6f" transform="translate(186.767578 0)"/>
      <use xlink:href="#DejaVuSans-20" transform="translate(247.949219 0)"/>
      <use xlink:href="#DejaVuSans-47" transform="translate(279.736328 0)"/>
      <use xlink:href="#DejaVuSans-72" transform="translate(357.226562 0)"/>
      <use xlink:href="#DejaVuSans-6f" transform="translate(396.089844 0)"/>
      <use xlink:href="#DejaVuSans-73" transform="translate(457.271484 0)"/>
      <use xlink:href="#DejaVuSans-73" transform="translate(509.371094 0)"/>
      <use xlink:href="#DejaVuSans-6f" transform="translate(561.470703 0)"/>
      <use xlink:href="#DejaVuSans-20" transform="translate(622.652344 0)"/>
      <use xlink:href="#DejaVuSans-44" transform="translate(654.439453 0)"/>
      <use xlink:href="#DejaVuSans-6f" transform="translate(731.441406 0)"/>
      <use xlink:href="#DejaVuSans-20" transform="translate(792.623047 0)"/>
      <use xlink:href="#DejaVuSans-53" transform="translate(824.410156 0)"/>
      <use xlink:href="#DejaVuSans-75" transform="translate(887.886719 0)"/>
      <use xlink:href="#DejaVuSans-6c" transform="translate(951.265625 0)"/>
     </g>
    </g>
    <g id="line2d_56">
     <path d="M 336.164062 394.925831 
L 345.164062 394.925831 
L 354.164062 394.925831 
" style="fill: none; stroke: #1b75bb; stroke-opacity: 0.9; stroke-width: 1.8; stroke-linecap: square"/>
    </g>
    <g id="text_18">
     <!-- Minas Gerais -->
     <g transform="translate(361.364062 398.075831) scale(0.09 -0.09)">
      <use xlink:href="#DejaVuSans-4d"/>
      <use xlink:href="#DejaVuSans-69" transform="translate(86.279297 0)"/>
      <use xlink:href="#DejaVuSans-6e" transform="translate(114.0625 0)"/>
      <use xlink:href="#DejaVuSans-61" transform="translate(177.441406 0)"/>
      <use xlink:href="#DejaVuSans-73" transform="translate(238.720703 0)"/>
      <use xlink:href="#DejaVuSans-20" transform="translate(290.820312 0)"/>
      <use xlink:href="#DejaVuSans-47" transform="translate(322.607422 0)"/>
      <use xlink:href="#DejaVuSans-65" transform="translate(400.097656 0)"/>
      <use xlink:href="#DejaVuSans-72" transform="translate(461.621094 0)"/>
      <use xlink:href="#DejaVuSans-61" transform="translate(502.734375 0)"/>
      <use xlink:href="#DejaVuSans-69" transform="translate(564.013672 0)"/>
      <use xlink:href="#DejaVuSans-73" transform="translate(591.796875 0)"/>
     </g>
    </g>
    <g id="line2d_57">
     <path d="M 467.476875 381.715519 
L 476.476875 381.715519 
L 485.476875 381.715519 
" style="fill: none; stroke: #c75d2c; stroke-opacity: 0.9; stroke-width: 1.8; stroke-linecap: square"/>
    </g>
    <g id="text_19">
     <!-- São Paulo -->
     <g transform="translate(492.676875 384.865519) scale(0.09 -0.09)">
      <defs>
       <path id="DejaVuSans-e3" d="M 2194 1759 
Q 1497 1759 1228 1600 
Q 959 1441 959 1056 
Q 959 750 1161 570 
Q 1363 391 1709 391 
Q 2188 391 2477 730 
Q 2766 1069 2766 1631 
L 2766 1759 
L 2194 1759 
z
M 3341 1997 
L 3341 0 
L 2766 0 
L 2766 531 
Q 2569 213 2275 61 
Q 1981 -91 1556 -91 
Q 1019 -91 701 211 
Q 384 513 384 1019 
Q 384 1609 779 1909 
Q 1175 2209 1959 2209 
L 2766 2209 
L 2766 2266 
Q 2766 2663 2505 2880 
Q 2244 3097 1772 3097 
Q 1472 3097 1187 3025 
Q 903 2953 641 2809 
L 641 3341 
Q 956 3463 1253 3523 
Q 1550 3584 1831 3584 
Q 2591 3584 2966 3190 
Q 3341 2797 3341 1997 
z
M 1844 4281 
L 1665 4453 
Q 1597 4516 1545 4545 
Q 1494 4575 1453 4575 
Q 1334 4575 1278 4461 
Q 1222 4347 1215 4091 
L 825 4091 
Q 831 4513 990 4742 
Q 1150 4972 1434 4972 
Q 1553 4972 1653 4928 
Q 1753 4884 1869 4781 
L 2047 4609 
Q 2115 4547 2167 4517 
Q 2219 4488 2259 4488 
Q 2378 4488 2434 4602 
Q 2490 4716 2497 4972 
L 2887 4972 
Q 2881 4550 2721 4320 
Q 2562 4091 2278 4091 
Q 2159 4091 2059 4134 
Q 1959 4178 1844 4281 
z
" transform="scale(0.015625)"/>
      </defs>
      <use xlink:href="#DejaVuSans-53"/>
      <use xlink:href="#DejaVuSans-e3" transform="translate(63.476562 0)"/>
      <use xlink:href="#DejaVuSans-6f" transform="translate(124.755859 0)"/>
      <use xlink:href="#DejaVuSans-20" transform="translate(185.9375 0)"/>
      <use xlink:href="#DejaVuSans-50" transform="translate(217.724609 0)"/>
      <use xlink:href="#DejaVuSans-61" transform="translate(273.527344 0)"/>
      <use xlink:href="#DejaVuSans-75" transform="translate(334.806641 0)"/>
      <use xlink:href="#DejaVuSans-6c" transform="translate(398.185547 0)"/>
      <use xlink:href="#DejaVuSans-6f" transform="translate(425.96875 0)"/>
     </g>
    </g>
   </g>
  </g>
 </g>
 <defs>
  <clipPath id="pe15f1f5015">
   <rect x="45.478125" y="22.318125" width="669.6" height="304.92"/>
  </clipPath>
 </defs>
</svg>
