<?xml version="1.0" encoding="utf-8" standalone="no"?>
<!DOCTYPE svg PUBLIC "-//W3C//DTD SVG 1.1//EN"
  "http://www.w3.org/Graphics/SVG/1.1/DTD/svg11.dtd">
<svg xmlns:xlink="http://www.w3.org/1999/xlink" width="730.128125pt" height="412.539844pt" viewBox="0 0 730.128125 412.539844" xmlns="http://www.w3.org/2000/svg" version="1.1">
 <metadata>
  <rdf:RDF xmlns:dc="http://purl.org/dc/elements/1.1/" xmlns:cc="http://creativecommons.org/ns#" xmlns:rdf="http://www.w3.org/1999/02/22-rdf-syntax-ns#">
   <cc:Work>
    <dc:type rdf:resource="http://purl.org/dc/dcmitype/StillImage"/>
    <dc:date>2026-06-11T03:05:30.034163</dc:date>
    <dc:format>image/svg+xml</dc:format>
    <dc:creator>
     <cc:Agent>
      <dc:title>Matplotlib v3.10.9, https://matplotlib.org/</dc:title>
     </cc:Agent>
    </dc:creator>
   </cc:Work>
  </rdf:RDF>
 </metadata>
 <defs>
  <style type="text/css">*{stroke-linejoin: round; stroke-linecap: butt}</style>
 </defs>
 <g id="figure_1">
  <g id="patch_1">
   <path d="M 0 412.539844 
L 730.128125 412.539844 
L 730.128125 0 
L 0 0 
z
" style="fill: #ffffff"/>
  </g>
  <g id="axes_1">
   <g id="patch_2">
    <path d="M 53.328125 327.238125 
L 722.928125 327.238125 
L 722.928125 22.318125 
L 53.328125 22.318125 
z
" style="fill: #ffffff"/>
   </g>
   <g id="patch_3">
    <path d="M 408.061754 327.238125 
L 455.77175 327.238125 
L 455.77175 22.318125 
L 408.061754 22.318125 
z
" clip-path="url(#p8eadef6d94)" style="fill: #f59e0b; opacity: 0.12; stroke: #f59e0b; stroke-linejoin: miter"/>
   </g>
   <g id="matplotlib.axis_1">
    <g id="xtick_1">
     <g id="line2d_1">
      <defs>
       <path id="m2c1f7f17f2" d="M 0 0 
L 0 3.5 
" style="stroke: #475569; stroke-width: 0.8"/>
      </defs>
      <g>
       <use xlink:href="#m2c1f7f17f2" x="73.830352" y="327.238125" style="fill: #475569; stroke: #475569; stroke-width: 0.8"/>
      </g>
     </g>
     <g id="text_1">
      <!-- 2000 -->
      <g style="fill: #475569" transform="translate(61.105352 341.836562) scale(0.1 -0.1)">
       <defs>
        <path id="DejaVuSans-32" d="M 1228 531 
L 3431 531 
L 3431 0 
L 469 0 
L 469 531 
Q 828 903 1448 1529 
Q 2069 2156 2228 2338 
Q 2531 2678 2651 2914 
Q 2772 3150 2772 3378 
Q 2772 3750 2511 3984 
Q 2250 4219 1831 4219 
Q 1534 4219 1204 4116 
Q 875 4013 500 3803 
L 500 4441 
Q 881 4594 1212 4672 
Q 1544 4750 1819 4750 
Q 2544 4750 2975 4387 
Q 3406 4025 3406 3419 
Q 3406 3131 3298 2873 
Q 3191 2616 2906 2266 
Q 2828 2175 2409 1742 
Q 1991 1309 1228 531 
z
" transform="scale(0.015625)"/>
        <path id="DejaVuSans-30" d="M 2034 4250 
Q 1547 4250 1301 3770 
Q 1056 3291 1056 2328 
Q 1056 1369 1301 889 
Q 1547 409 2034 409 
Q 2525 409 2770 889 
Q 3016 1369 3016 2328 
Q 3016 3291 2770 3770 
Q 2525 4250 2034 4250 
z
M 2034 4750 
Q 2819 4750 3233 4129 
Q 3647 3509 3647 2328 
Q 3647 1150 3233 529 
Q 2819 -91 2034 -91 
Q 1250 -91 836 529 
Q 422 1150 422 2328 
Q 422 3509 836 4129 
Q 1250 4750 2034 4750 
z
" transform="scale(0.015625)"/>
       </defs>
       <use xlink:href="#DejaVuSans-32"/>
       <use xlink:href="#DejaVuSans-30" transform="translate(63.623047 0)"/>
       <use xlink:href="#DejaVuSans-30" transform="translate(127.246094 0)"/>
       <use xlink:href="#DejaVuSans-30" transform="translate(190.869141 0)"/>
      </g>
     </g>
    </g>
    <g id="xtick_2">
     <g id="line2d_2">
      <g>
       <use xlink:href="#m2c1f7f17f2" x="169.315702" y="327.238125" style="fill: #475569; stroke: #475569; stroke-width: 0.8"/>
      </g>
     </g>
     <g id="text_2">
      <!-- 2004 -->
      <g style="fill: #475569" transform="translate(156.590702 341.836562) scale(0.1 -0.1)">
       <defs>
        <path id="DejaVuSans-34" d="M 2419 4116 
L 825 1625 
L 2419 1625 
L 2419 4116 
z
M 2253 4666 
L 3047 4666 
L 3047 1625 
L 3713 1625 
L 3713 1100 
L 3047 1100 
L 3047 0 
L 2419 0 
L 2419 1100 
L 313 1100 
L 313 1709 
L 2253 4666 
z
" transform="scale(0.015625)"/>
       </defs>
       <use xlink:href="#DejaVuSans-32"/>
       <use xlink:href="#DejaVuSans-30" transform="translate(63.623047 0)"/>
       <use xlink:href="#DejaVuSans-30" transform="translate(127.246094 0)"/>
       <use xlink:href="#DejaVuSans-34" transform="translate(190.869141 0)"/>
      </g>
     </g>
    </g>
    <g id="xtick_3">
     <g id="line2d_3">
      <g>
       <use xlink:href="#m2c1f7f17f2" x="264.801051" y="327.238125" style="fill: #475569; stroke: #475569; stroke-width: 0.8"/>
      </g>
     </g>
     <g id="text_3">
      <!-- 2008 -->
      <g style="fill: #475569" transform="translate(252.076051 341.836562) scale(0.1 -0.1)">
       <defs>
        <path id="DejaVuSans-38" d="M 2034 2216 
Q 1584 2216 1326 1975 
Q 1069 1734 1069 1313 
Q 1069 891 1326 650 
Q 1584 409 2034 409 
Q 2484 409 2743 651 
Q 3003 894 3003 1313 
Q 3003 1734 2745 1975 
Q 2488 2216 2034 2216 
z
M 1403 2484 
Q 997 2584 770 2862 
Q 544 3141 544 3541 
Q 544 4100 942 4425 
Q 1341 4750 2034 4750 
Q 2731 4750 3128 4425 
Q 3525 4100 3525 3541 
Q 3525 3141 3298 2862 
Q 3072 2584 2669 2484 
Q 3125 2378 3379 2068 
Q 3634 1759 3634 1313 
Q 3634 634 3220 271 
Q 2806 -91 2034 -91 
Q 1263 -91 848 271 
Q 434 634 434 1313 
Q 434 1759 690 2068 
Q 947 2378 1403 2484 
z
M 1172 3481 
Q 1172 3119 1398 2916 
Q 1625 2713 2034 2713 
Q 2441 2713 2670 2916 
Q 2900 3119 2900 3481 
Q 2900 3844 2670 4047 
Q 2441 4250 2034 4250 
Q 1625 4250 1398 4047 
Q 1172 3844 1172 3481 
z
" transform="scale(0.015625)"/>
       </defs>
       <use xlink:href="#DejaVuSans-32"/>
       <use xlink:href="#DejaVuSans-30" transform="translate(63.623047 0)"/>
       <use xlink:href="#DejaVuSans-30" transform="translate(127.246094 0)"/>
       <use xlink:href="#DejaVuSans-38" transform="translate(190.869141 0)"/>
      </g>
     </g>
    </g>
    <g id="xtick_4">
     <g id="line2d_4">
      <g>
       <use xlink:href="#m2c1f7f17f2" x="360.286401" y="327.238125" style="fill: #475569; stroke: #475569; stroke-width: 0.8"/>
      </g>
     </g>
     <g id="text_4">
      <!-- 2012 -->
      <g style="fill: #475569" transform="translate(347.561401 341.836562) scale(0.1 -0.1)">
       <defs>
        <path id="DejaVuSans-31" d="M 794 531 
L 1825 531 
L 1825 4091 
L 703 3866 
L 703 4441 
L 1819 4666 
L 2450 4666 
L 2450 531 
L 3481 531 
L 3481 0 
L 794 0 
L 794 531 
z
" transform="scale(0.015625)"/>
       </defs>
       <use xlink:href="#DejaVuSans-32"/>
       <use xlink:href="#DejaVuSans-30" transform="translate(63.623047 0)"/>
       <use xlink:href="#DejaVuSans-31" transform="translate(127.246094 0)"/>
       <use xlink:href="#DejaVuSans-32" transform="translate(190.869141 0)"/>
      </g>
     </g>
    </g>
    <g id="xtick_5">
     <g id="line2d_5">
      <g>
       <use xlink:href="#m2c1f7f17f2" x="455.77175" y="327.238125" style="fill: #475569; stroke: #475569; stroke-width: 0.8"/>
      </g>
     </g>
     <g id="text_5">
      <!-- 2016 -->
      <g style="fill: #475569" transform="translate(443.04675 341.836562) scale(0.1 -0.1)">
       <defs>
        <path id="DejaVuSans-36" d="M 2113 2584 
Q 1688 2584 1439 2293 
Q 1191 2003 1191 1497 
Q 1191 994 1439 701 
Q 1688 409 2113 409 
Q 2538 409 2786 701 
Q 3034 994 3034 1497 
Q 3034 2003 2786 2293 
Q 2538 2584 2113 2584 
z
M 3366 4563 
L 3366 3988 
Q 3128 4100 2886 4159 
Q 2644 4219 2406 4219 
Q 1781 4219 1451 3797 
Q 1122 3375 1075 2522 
Q 1259 2794 1537 2939 
Q 1816 3084 2150 3084 
Q 2853 3084 3261 2657 
Q 3669 2231 3669 1497 
Q 3669 778 3244 343 
Q 2819 -91 2113 -91 
Q 1303 -91 875 529 
Q 447 1150 447 2328 
Q 447 3434 972 4092 
Q 1497 4750 2381 4750 
Q 2619 4750 2861 4703 
Q 3103 4656 3366 4563 
z
" transform="scale(0.015625)"/>
       </defs>
       <use xlink:href="#DejaVuSans-32"/>
       <use xlink:href="#DejaVuSans-30" transform="translate(63.623047 0)"/>
       <use xlink:href="#DejaVuSans-31" transform="translate(127.246094 0)"/>
       <use xlink:href="#DejaVuSans-36" transform="translate(190.869141 0)"/>
      </g>
     </g>
    </g>
    <g id="xtick_6">
     <g id="line2d_6">
      <g>
       <use xlink:href="#m2c1f7f17f2" x="551.2571" y="327.238125" style="fill: #475569; stroke: #475569; stroke-width: 0.8"/>
      </g>
     </g>
     <g id="text_6">
      <!-- 2020 -->
      <g style="fill: #475569" transform="translate(538.5321 341.836562) scale(0.1 -0.1)">
       <use xlink:href="#DejaVuSans-32"/>
       <use xlink:href="#DejaVuSans-30" transform="translate(63.623047 0)"/>
       <use xlink:href="#DejaVuSans-32" transform="translate(127.246094 0)"/>
       <use xlink:href="#DejaVuSans-30" transform="translate(190.869141 0)"/>
      </g>
     </g>
    </g>
    <g id="xtick_7">
     <g id="line2d_7">
      <g>
       <use xlink:href="#m2c1f7f17f2" x="646.742449" y="327.238125" style="fill: #475569; stroke: #475569; stroke-width: 0.8"/>
      </g>
     </g>
     <g id="text_7">
      <!-- 2024 -->
      <g style="fill: #475569" transform="translate(634.017449 341.836562) scale(0.1 -0.1)">
       <use xlink:href="#DejaVuSans-32"/>
       <use xlink:href="#DejaVuSans-30" transform="translate(63.623047 0)"/>
       <use xlink:href="#DejaVuSans-32" transform="translate(127.246094 0)"/>
       <use xlink:href="#DejaVuSans-34" transform="translate(190.869141 0)"/>
      </g>
     </g>
    </g>
    <g id="text_8">
     <!-- Ano -->
     <g style="fill: #334155" transform="translate(378.479688 355.514687) scale(0.1 -0.1)">
      <defs>
       <path id="DejaVuSans-41" d="M 2188 4044 
L 1331 1722 
L 3047 1722 
L 2188 4044 
z
M 1831 4666 
L 2547 4666 
L 4325 0 
L 3669 0 
L 3244 1197 
L 1141 1197 
L 716 0 
L 50 0 
L 1831 4666 
z
" transform="scale(0.015625)"/>
       <path id="DejaVuSans-6e" d="M 3513 2113 
L 3513 0 
L 2938 0 
L 2938 2094 
Q 2938 2591 2744 2837 
Q 2550 3084 2163 3084 
Q 1697 3084 1428 2787 
Q 1159 2491 1159 1978 
L 1159 0 
L 581 0 
L 581 3500 
L 1159 3500 
L 1159 2956 
Q 1366 3272 1645 3428 
Q 1925 3584 2291 3584 
Q 2894 3584 3203 3211 
Q 3513 2838 3513 2113 
z
" transform="scale(0.015625)"/>
       <path id="DejaVuSans-6f" d="M 1959 3097 
Q 1497 3097 1228 2736 
Q 959 2375 959 1747 
Q 959 1119 1226 758 
Q 1494 397 1959 397 
Q 2419 397 2687 759 
Q 2956 1122 2956 1747 
Q 2956 2369 2687 2733 
Q 2419 3097 1959 3097 
z
M 1959 3584 
Q 2709 3584 3137 3096 
Q 3566 2609 3566 1747 
Q 3566 888 3137 398 
Q 2709 -91 1959 -91 
Q 1206 -91 779 398 
Q 353 888 353 1747 
Q 353 2609 779 3096 
Q 1206 3584 1959 3584 
z
" transform="scale(0.015625)"/>
      </defs>
      <use xlink:href="#DejaVuSans-41"/>
      <use xlink:href="#DejaVuSans-6e" transform="translate(68.408203 0)"/>
      <use xlink:href="#DejaVuSans-6f" transform="translate(131.787109 0)"/>
     </g>
    </g>
   </g>
   <g id="matplotlib.axis_2">
    <g id="ytick_1">
     <g id="line2d_8">
      <path d="M 53.328125 323.867597 
L 722.928125 323.867597 
" clip-path="url(#p8eadef6d94)" style="fill: none; stroke: #b0b0b0; stroke-opacity: 0.25; stroke-width: 0.8; stroke-linecap: square"/>
     </g>
     <g id="line2d_9">
      <defs>
       <path id="m972999dd40" d="M 0 0 
L -3.5 0 
" style="stroke: #475569; stroke-width: 0.8"/>
      </defs>
      <g>
       <use xlink:href="#m972999dd40" x="53.328125" y="323.867597" style="fill: #475569; stroke: #475569; stroke-width: 0.8"/>
      </g>
     </g>
     <g id="text_9">
      <!-- 0 -->
      <g style="fill: #475569" transform="translate(39.965625 327.666815) scale(0.1 -0.1)">
       <use xlink:href="#DejaVuSans-30"/>
      </g>
     </g>
    </g>
    <g id="ytick_2">
     <g id="line2d_10">
      <path d="M 53.328125 288.798093 
L 722.928125 288.798093 
" clip-path="url(#p8eadef6d94)" style="fill: none; stroke: #b0b0b0; stroke-opacity: 0.25; stroke-width: 0.8; stroke-linecap: square"/>
     </g>
     <g id="line2d_11">
      <g>
       <use xlink:href="#m972999dd40" x="53.328125" y="288.798093" style="fill: #475569; stroke: #475569; stroke-width: 0.8"/>
      </g>
     </g>
     <g id="text_10">
      <!-- 1000 -->
      <g style="fill: #475569" transform="translate(20.878125 292.597312) scale(0.1 -0.1)">
       <use xlink:href="#DejaVuSans-31"/>
       <use xlink:href="#DejaVuSans-30" transform="translate(63.623047 0)"/>
       <use xlink:href="#DejaVuSans-30" transform="translate(127.246094 0)"/>
       <use xlink:href="#DejaVuSans-30" transform="translate(190.869141 0)"/>
      </g>
     </g>
    </g>
    <g id="ytick_3">
     <g id="line2d_12">
      <path d="M 53.328125 253.72859 
L 722.928125 253.72859 
" clip-path="url(#p8eadef6d94)" style="fill: none; stroke: #b0b0b0; stroke-opacity: 0.25; stroke-width: 0.8; stroke-linecap: square"/>
     </g>
     <g id="line2d_13">
      <g>
       <use xlink:href="#m972999dd40" x="53.328125" y="253.72859" style="fill: #475569; stroke: #475569; stroke-width: 0.8"/>
      </g>
     </g>
     <g id="text_11">
      <!-- 2000 -->
      <g style="fill: #475569" transform="translate(20.878125 257.527809) scale(0.1 -0.1)">
       <use xlink:href="#DejaVuSans-32"/>
       <use xlink:href="#DejaVuSans-30" transform="translate(63.623047 0)"/>
       <use xlink:href="#DejaVuSans-30" transform="translate(127.246094 0)"/>
       <use xlink:href="#DejaVuSans-30" transform="translate(190.869141 0)"/>
      </g>
     </g>
    </g>
    <g id="ytick_4">
     <g id="line2d_14">
      <path d="M 53.328125 218.659087 
L 722.928125 218.659087 
" clip-path="url(#p8eadef6d94)" style="fill: none; stroke: #b0b0b0; stroke-opacity: 0.25; stroke-width: 0.8; stroke-linecap: square"/>
     </g>
     <g id="line2d_15">
      <g>
       <use xlink:href="#m972999dd40" x="53.328125" y="218.659087" style="fill: #475569; stroke: #475569; stroke-width: 0.8"/>
      </g>
     </g>
     <g id="text_12">
      <!-- 3000 -->
      <g style="fill: #475569" transform="translate(20.878125 222.458306) scale(0.1 -0.1)">
       <defs>
        <path id="DejaVuSans-33" d="M 2597 2516 
Q 3050 2419 3304 2112 
Q 3559 1806 3559 1356 
Q 3559 666 3084 287 
Q 2609 -91 1734 -91 
Q 1441 -91 1130 -33 
Q 819 25 488 141 
L 488 750 
Q 750 597 1062 519 
Q 1375 441 1716 441 
Q 2309 441 2620 675 
Q 2931 909 2931 1356 
Q 2931 1769 2642 2001 
Q 2353 2234 1838 2234 
L 1294 2234 
L 1294 2753 
L 1863 2753 
Q 2328 2753 2575 2939 
Q 2822 3125 2822 3475 
Q 2822 3834 2567 4026 
Q 2313 4219 1838 4219 
Q 1578 4219 1281 4162 
Q 984 4106 628 3988 
L 628 4550 
Q 988 4650 1302 4700 
Q 1616 4750 1894 4750 
Q 2613 4750 3031 4423 
Q 3450 4097 3450 3541 
Q 3450 3153 3228 2886 
Q 3006 2619 2597 2516 
z
" transform="scale(0.015625)"/>
       </defs>
       <use xlink:href="#DejaVuSans-33"/>
       <use xlink:href="#DejaVuSans-30" transform="translate(63.623047 0)"/>
       <use xlink:href="#DejaVuSans-30" transform="translate(127.246094 0)"/>
       <use xlink:href="#DejaVuSans-30" transform="translate(190.869141 0)"/>
      </g>
     </g>
    </g>
    <g id="ytick_5">
     <g id="line2d_16">
      <path d="M 53.328125 183.589584 
L 722.928125 183.589584 
" clip-path="url(#p8eadef6d94)" style="fill: none; stroke: #b0b0b0; stroke-opacity: 0.25; stroke-width: 0.8; stroke-linecap: square"/>
     </g>
     <g id="line2d_17">
      <g>
       <use xlink:href="#m972999dd40" x="53.328125" y="183.589584" style="fill: #475569; stroke: #475569; stroke-width: 0.8"/>
      </g>
     </g>
     <g id="text_13">
      <!-- 4000 -->
      <g style="fill: #475569" transform="translate(20.878125 187.388802) scale(0.1 -0.1)">
       <use xlink:href="#DejaVuSans-34"/>
       <use xlink:href="#DejaVuSans-30" transform="translate(63.623047 0)"/>
       <use xlink:href="#DejaVuSans-30" transform="translate(127.246094 0)"/>
       <use xlink:href="#DejaVuSans-30" transform="translate(190.869141 0)"/>
      </g>
     </g>
    </g>
    <g id="ytick_6">
     <g id="line2d_18">
      <path d="M 53.328125 148.52008 
L 722.928125 148.52008 
" clip-path="url(#p8eadef6d94)" style="fill: none; stroke: #b0b0b0; stroke-opacity: 0.25; stroke-width: 0.8; stroke-linecap: square"/>
     </g>
     <g id="line2d_19">
      <g>
       <use xlink:href="#m972999dd40" x="53.328125" y="148.52008" style="fill: #475569; stroke: #475569; stroke-width: 0.8"/>
      </g>
     </g>
     <g id="text_14">
      <!-- 5000 -->
      <g style="fill: #475569" transform="translate(20.878125 152.319299) scale(0.1 -0.1)">
       <defs>
        <path id="DejaVuSans-35" d="M 691 4666 
L 3169 4666 
L 3169 4134 
L 1269 4134 
L 1269 2991 
Q 1406 3038 1543 3061 
Q 1681 3084 1819 3084 
Q 2600 3084 3056 2656 
Q 3513 2228 3513 1497 
Q 3513 744 3044 326 
Q 2575 -91 1722 -91 
Q 1428 -91 1123 -41 
Q 819 9 494 109 
L 494 744 
Q 775 591 1075 516 
Q 1375 441 1709 441 
Q 2250 441 2565 725 
Q 2881 1009 2881 1497 
Q 2881 1984 2565 2268 
Q 2250 2553 1709 2553 
Q 1456 2553 1204 2497 
Q 953 2441 691 2322 
L 691 4666 
z
" transform="scale(0.015625)"/>
       </defs>
       <use xlink:href="#DejaVuSans-35"/>
       <use xlink:href="#DejaVuSans-30" transform="translate(63.623047 0)"/>
       <use xlink:href="#DejaVuSans-30" transform="translate(127.246094 0)"/>
       <use xlink:href="#DejaVuSans-30" transform="translate(190.869141 0)"/>
      </g>
     </g>
    </g>
    <g id="ytick_7">
     <g id="line2d_20">
      <path d="M 53.328125 113.450577 
L 722.928125 113.450577 
" clip-path="url(#p8eadef6d94)" style="fill: none; stroke: #b0b0b0; stroke-opacity: 0.25; stroke-width: 0.8; stroke-linecap: square"/>
     </g>
     <g id="line2d_21">
      <g>
       <use xlink:href="#m972999dd40" x="53.328125" y="113.450577" style="fill: #475569; stroke: #475569; stroke-width: 0.8"/>
      </g>
     </g>
     <g id="text_15">
      <!-- 6000 -->
      <g style="fill: #475569" transform="translate(20.878125 117.249796) scale(0.1 -0.1)">
       <use xlink:href="#DejaVuSans-36"/>
       <use xlink:href="#DejaVuSans-30" transform="translate(63.623047 0)"/>
       <use xlink:href="#DejaVuSans-30" transform="translate(127.246094 0)"/>
       <use xlink:href="#DejaVuSans-30" transform="translate(190.869141 0)"/>
      </g>
     </g>
    </g>
    <g id="ytick_8">
     <g id="line2d_22">
      <path d="M 53.328125 78.381074 
L 722.928125 78.381074 
" clip-path="url(#p8eadef6d94)" style="fill: none; stroke: #b0b0b0; stroke-opacity: 0.25; stroke-width: 0.8; stroke-linecap: square"/>
     </g>
     <g id="line2d_23">
      <g>
       <use xlink:href="#m972999dd40" x="53.328125" y="78.381074" style="fill: #475569; stroke: #475569; stroke-width: 0.8"/>
      </g>
     </g>
     <g id="text_16">
      <!-- 7000 -->
      <g style="fill: #475569" transform="translate(20.878125 82.180293) scale(0.1 -0.1)">
       <defs>
        <path id="DejaVuSans-37" d="M 525 4666 
L 3525 4666 
L 3525 4397 
L 1831 0 
L 1172 0 
L 2766 4134 
L 525 4134 
L 525 4666 
z
" transform="scale(0.015625)"/>
       </defs>
       <use xlink:href="#DejaVuSans-37"/>
       <use xlink:href="#DejaVuSans-30" transform="translate(63.623047 0)"/>
       <use xlink:href="#DejaVuSans-30" transform="translate(127.246094 0)"/>
       <use xlink:href="#DejaVuSans-30" transform="translate(190.869141 0)"/>
      </g>
     </g>
    </g>
    <g id="ytick_9">
     <g id="line2d_24">
      <path d="M 53.328125 43.311571 
L 722.928125 43.311571 
" clip-path="url(#p8eadef6d94)" style="fill: none; stroke: #b0b0b0; stroke-opacity: 0.25; stroke-width: 0.8; stroke-linecap: square"/>
     </g>
     <g id="line2d_25">
      <g>
       <use xlink:href="#m972999dd40" x="53.328125" y="43.311571" style="fill: #475569; stroke: #475569; stroke-width: 0.8"/>
      </g>
     </g>
     <g id="text_17">
      <!-- 8000 -->
      <g style="fill: #475569" transform="translate(20.878125 47.110789) scale(0.1 -0.1)">
       <use xlink:href="#DejaVuSans-38"/>
       <use xlink:href="#DejaVuSans-30" transform="translate(63.623047 0)"/>
       <use xlink:href="#DejaVuSans-30" transform="translate(127.246094 0)"/>
       <use xlink:href="#DejaVuSans-30" transform="translate(190.869141 0)"/>
      </g>
     </g>
    </g>
    <g id="text_18">
     <!-- Vazao afluente media (m3/s) -->
     <g style="fill: #334155" transform="translate(14.798438 246.870312) rotate(-90) scale(0.1 -0.1)">
      <defs>
       <path id="DejaVuSans-56" d="M 1831 0 
L 50 4666 
L 709 4666 
L 2188 738 
L 3669 4666 
L 4325 4666 
L 2547 0 
L 1831 0 
z
" transform="scale(0.015625)"/>
       <path id="DejaVuSans-61" d="M 2194 1759 
Q 1497 1759 1228 1600 
Q 959 1441 959 1056 
Q 959 750 1161 570 
Q 1363 391 1709 391 
Q 2188 391 2477 730 
Q 2766 1069 2766 1631 
L 2766 1759 
L 2194 1759 
z
M 3341 1997 
L 3341 0 
L 2766 0 
L 2766 531 
Q 2569 213 2275 61 
Q 1981 -91 1556 -91 
Q 1019 -91 701 211 
Q 384 513 384 1019 
Q 384 1609 779 1909 
Q 1175 2209 1959 2209 
L 2766 2209 
L 2766 2266 
Q 2766 2663 2505 2880 
Q 2244 3097 1772 3097 
Q 1472 3097 1187 3025 
Q 903 2953 641 2809 
L 641 3341 
Q 956 3463 1253 3523 
Q 1550 3584 1831 3584 
Q 2591 3584 2966 3190 
Q 3341 2797 3341 1997 
z
" transform="scale(0.015625)"/>
       <path id="DejaVuSans-7a" d="M 353 3500 
L 3084 3500 
L 3084 2975 
L 922 459 
L 3084 459 
L 3084 0 
L 275 0 
L 275 525 
L 2438 3041 
L 353 3041 
L 353 3500 
z
" transform="scale(0.015625)"/>
       <path id="DejaVuSans-20" transform="scale(0.015625)"/>
       <path id="DejaVuSans-66" d="M 2375 4863 
L 2375 4384 
L 1825 4384 
Q 1516 4384 1395 4259 
Q 1275 4134 1275 3809 
L 1275 3500 
L 2222 3500 
L 2222 3053 
L 1275 3053 
L 1275 0 
L 697 0 
L 697 3053 
L 147 3053 
L 147 3500 
L 697 3500 
L 697 3744 
Q 697 4328 969 4595 
Q 1241 4863 1831 4863 
L 2375 4863 
z
" transform="scale(0.015625)"/>
       <path id="DejaVuSans-6c" d="M 603 4863 
L 1178 4863 
L 1178 0 
L 603 0 
L 603 4863 
z
" transform="scale(0.015625)"/>
       <path id="DejaVuSans-75" d="M 544 1381 
L 544 3500 
L 1119 3500 
L 1119 1403 
Q 1119 906 1312 657 
Q 1506 409 1894 409 
Q 2359 409 2629 706 
Q 2900 1003 2900 1516 
L 2900 3500 
L 3475 3500 
L 3475 0 
L 2900 0 
L 2900 538 
Q 2691 219 2414 64 
Q 2138 -91 1772 -91 
Q 1169 -91 856 284 
Q 544 659 544 1381 
z
M 1991 3584 
L 1991 3584 
z
" transform="scale(0.015625)"/>
       <path id="DejaVuSans-65" d="M 3597 1894 
L 3597 1613 
L 953 1613 
Q 991 1019 1311 708 
Q 1631 397 2203 397 
Q 2534 397 2845 478 
Q 3156 559 3463 722 
L 3463 178 
Q 3153 47 2828 -22 
Q 2503 -91 2169 -91 
Q 1331 -91 842 396 
Q 353 884 353 1716 
Q 353 2575 817 3079 
Q 1281 3584 2069 3584 
Q 2775 3584 3186 3129 
Q 3597 2675 3597 1894 
z
M 3022 2063 
Q 3016 2534 2758 2815 
Q 2500 3097 2075 3097 
Q 1594 3097 1305 2825 
Q 1016 2553 972 2059 
L 3022 2063 
z
" transform="scale(0.015625)"/>
       <path id="DejaVuSans-74" d="M 1172 4494 
L 1172 3500 
L 2356 3500 
L 2356 3053 
L 1172 3053 
L 1172 1153 
Q 1172 725 1289 603 
Q 1406 481 1766 481 
L 2356 481 
L 2356 0 
L 1766 0 
Q 1100 0 847 248 
Q 594 497 594 1153 
L 594 3053 
L 172 3053 
L 172 3500 
L 594 3500 
L 594 4494 
L 1172 4494 
z
" transform="scale(0.015625)"/>
       <path id="DejaVuSans-6d" d="M 3328 2828 
Q 3544 3216 3844 3400 
Q 4144 3584 4550 3584 
Q 5097 3584 5394 3201 
Q 5691 2819 5691 2113 
L 5691 0 
L 5113 0 
L 5113 2094 
Q 5113 2597 4934 2840 
Q 4756 3084 4391 3084 
Q 3944 3084 3684 2787 
Q 3425 2491 3425 1978 
L 3425 0 
L 2847 0 
L 2847 2094 
Q 2847 2600 2669 2842 
Q 2491 3084 2119 3084 
Q 1678 3084 1418 2786 
Q 1159 2488 1159 1978 
L 1159 0 
L 581 0 
L 581 3500 
L 1159 3500 
L 1159 2956 
Q 1356 3278 1631 3431 
Q 1906 3584 2284 3584 
Q 2666 3584 2933 3390 
Q 3200 3197 3328 2828 
z
" transform="scale(0.015625)"/>
       <path id="DejaVuSans-64" d="M 2906 2969 
L 2906 4863 
L 3481 4863 
L 3481 0 
L 2906 0 
L 2906 525 
Q 2725 213 2448 61 
Q 2172 -91 1784 -91 
Q 1150 -91 751 415 
Q 353 922 353 1747 
Q 353 2572 751 3078 
Q 1150 3584 1784 3584 
Q 2172 3584 2448 3432 
Q 2725 3281 2906 2969 
z
M 947 1747 
Q 947 1113 1208 752 
Q 1469 391 1925 391 
Q 2381 391 2643 752 
Q 2906 1113 2906 1747 
Q 2906 2381 2643 2742 
Q 2381 3103 1925 3103 
Q 1469 3103 1208 2742 
Q 947 2381 947 1747 
z
" transform="scale(0.015625)"/>
       <path id="DejaVuSans-69" d="M 603 3500 
L 1178 3500 
L 1178 0 
L 603 0 
L 603 3500 
z
M 603 4863 
L 1178 4863 
L 1178 4134 
L 603 4134 
L 603 4863 
z
" transform="scale(0.015625)"/>
       <path id="DejaVuSans-28" d="M 1984 4856 
Q 1566 4138 1362 3434 
Q 1159 2731 1159 2009 
Q 1159 1288 1364 580 
Q 1569 -128 1984 -844 
L 1484 -844 
Q 1016 -109 783 600 
Q 550 1309 550 2009 
Q 550 2706 781 3412 
Q 1013 4119 1484 4856 
L 1984 4856 
z
" transform="scale(0.015625)"/>
       <path id="DejaVuSans-2f" d="M 1625 4666 
L 2156 4666 
L 531 -594 
L 0 -594 
L 1625 4666 
z
" transform="scale(0.015625)"/>
       <path id="DejaVuSans-73" d="M 2834 3397 
L 2834 2853 
Q 2591 2978 2328 3040 
Q 2066 3103 1784 3103 
Q 1356 3103 1142 2972 
Q 928 2841 928 2578 
Q 928 2378 1081 2264 
Q 1234 2150 1697 2047 
L 1894 2003 
Q 2506 1872 2764 1633 
Q 3022 1394 3022 966 
Q 3022 478 2636 193 
Q 2250 -91 1575 -91 
Q 1294 -91 989 -36 
Q 684 19 347 128 
L 347 722 
Q 666 556 975 473 
Q 1284 391 1588 391 
Q 1994 391 2212 530 
Q 2431 669 2431 922 
Q 2431 1156 2273 1281 
Q 2116 1406 1581 1522 
L 1381 1569 
Q 847 1681 609 1914 
Q 372 2147 372 2553 
Q 372 3047 722 3315 
Q 1072 3584 1716 3584 
Q 2034 3584 2315 3537 
Q 2597 3491 2834 3397 
z
" transform="scale(0.015625)"/>
       <path id="DejaVuSans-29" d="M 513 4856 
L 1013 4856 
Q 1481 4119 1714 3412 
Q 1947 2706 1947 2009 
Q 1947 1309 1714 600 
Q 1481 -109 1013 -844 
L 513 -844 
Q 928 -128 1133 580 
Q 1338 1288 1338 2009 
Q 1338 2731 1133 3434 
Q 928 4138 513 4856 
z
" transform="scale(0.015625)"/>
      </defs>
      <use xlink:href="#DejaVuSans-56"/>
      <use xlink:href="#DejaVuSans-61" transform="translate(60.658203 0)"/>
      <use xlink:href="#DejaVuSans-7a" transform="translate(121.9375 0)"/>
      <use xlink:href="#DejaVuSans-61" transform="translate(174.427734 0)"/>
      <use xlink:href="#DejaVuSans-6f" transform="translate(235.707031 0)"/>
      <use xlink:href="#DejaVuSans-20" transform="translate(296.888672 0)"/>
      <use xlink:href="#DejaVuSans-61" transform="translate(328.675781 0)"/>
      <use xlink:href="#DejaVuSans-66" transform="translate(389.955078 0)"/>
      <use xlink:href="#DejaVuSans-6c" transform="translate(425.160156 0)"/>
      <use xlink:href="#DejaVuSans-75" transform="translate(452.943359 0)"/>
      <use xlink:href="#DejaVuSans-65" transform="translate(516.322266 0)"/>
      <use xlink:href="#DejaVuSans-6e" transform="translate(577.845703 0)"/>
      <use xlink:href="#DejaVuSans-74" transform="translate(641.224609 0)"/>
      <use xlink:href="#DejaVuSans-65" transform="translate(680.433594 0)"/>
      <use xlink:href="#DejaVuSans-20" transform="translate(741.957031 0)"/>
      <use xlink:href="#DejaVuSans-6d" transform="translate(773.744141 0)"/>
      <use xlink:href="#DejaVuSans-65" transform="translate(871.15625 0)"/>
      <use xlink:href="#DejaVuSans-64" transform="translate(932.679688 0)"/>
      <use xlink:href="#DejaVuSans-69" transform="translate(996.15625 0)"/>
      <use xlink:href="#DejaVuSans-61" transform="translate(1023.939453 0)"/>
      <use xlink:href="#DejaVuSans-20" transform="translate(1085.21875 0)"/>
      <use xlink:href="#DejaVuSans-28" transform="translate(1117.005859 0)"/>
      <use xlink:href="#DejaVuSans-6d" transform="translate(1156.019531 0)"/>
      <use xlink:href="#DejaVuSans-33" transform="translate(1253.431641 0)"/>
      <use xlink:href="#DejaVuSans-2f" transform="translate(1317.054688 0)"/>
      <use xlink:href="#DejaVuSans-73" transform="translate(1350.746094 0)"/>
      <use xlink:href="#DejaVuSans-29" transform="translate(1402.845703 0)"/>
     </g>
    </g>
   </g>
   <g id="line2d_26">
    <path d="M 83.764489 270.048423 
L 85.725173 272.20509 
L 87.751214 273.941825 
L 91.73794 276.958518 
L 93.763981 278.03803 
L 95.724666 278.898232 
L 97.750707 281.135536 
L 99.776748 284.134722 
L 101.60672 285.710448 
L 103.632761 286.8522 
L 105.593446 288.727305 
L 111.606213 294.991715 
L 113.632254 296.784218 
L 115.592938 298.173521 
L 119.579664 299.869258 
L 121.605705 300.308223 
L 123.631746 300.08499 
L 125.461719 300.176618 
L 127.48776 300.715497 
L 129.448444 300.420158 
L 131.474485 299.966315 
L 133.43517 298.355285 
L 137.487252 296.154709 
L 139.447937 295.386196 
L 141.473978 294.965141 
L 143.434663 294.208706 
L 145.460704 292.733928 
L 147.486744 291.545515 
L 149.316717 289.932108 
L 151.342758 288.776573 
L 155.329484 287.161891 
L 157.290168 287.039609 
L 165.328976 285.024833 
L 167.289661 284.582443 
L 169.315702 285.3575 
L 173.237071 286.578163 
L 175.263112 286.374225 
L 179.249838 285.656284 
L 181.210523 285.747265 
L 183.236564 286.187694 
L 185.262605 286.495196 
L 187.22329 286.43366 
L 189.249331 286.743186 
L 191.210015 286.145541 
L 193.236056 281.353553 
L 195.262097 278.524546 
L 197.09207 276.936645 
L 199.118111 277.030192 
L 205.065521 276.430536 
L 207.091562 275.873529 
L 213.104329 275.192451 
L 215.065014 275.423177 
L 217.091055 279.214854 
L 219.117096 281.636505 
L 222.973109 282.139413 
L 226.959835 283.059082 
L 228.92052 283.073498 
L 230.946561 282.358178 
L 232.972602 281.857701 
L 236.959327 280.107228 
L 238.920012 279.500516 
L 240.946053 276.635157 
L 242.972094 272.50205 
L 244.802066 273.245766 
L 246.828107 273.011741 
L 248.788792 273.267392 
L 250.814833 273.342043 
L 252.775518 273.030331 
L 254.801559 273.726519 
L 256.8276 274.038357 
L 258.788285 274.703867 
L 262.77501 276.417662 
L 264.801051 279.794851 
L 266.827092 283.567386 
L 268.722421 283.352201 
L 270.748462 281.532827 
L 272.709147 280.514519 
L 274.735188 279.821136 
L 276.695872 279.990485 
L 282.708639 279.668681 
L 284.73468 279.826773 
L 286.695365 279.624014 
L 288.721406 277.720105 
L 290.747447 272.659563 
L 292.577419 271.236877 
L 294.60346 270.335851 
L 296.564145 270.109892 
L 298.590186 270.06893 
L 300.550871 269.640007 
L 302.576912 269.668448 
L 308.589678 268.547359 
L 310.550363 266.173115 
L 312.576404 264.598494 
L 314.602445 269.316778 
L 316.432418 270.649328 
L 318.458459 272.903333 
L 322.445184 273.929831 
L 328.457951 274.621589 
L 330.418636 274.535153 
L 332.444677 274.094471 
L 336.431403 277.483206 
L 338.457444 278.490554 
L 340.287416 274.951658 
L 342.313457 273.88928 
L 344.274142 273.748901 
L 346.300183 273.243996 
L 348.260867 273.28888 
L 350.286908 273.084785 
L 354.273634 273.651126 
L 358.26036 274.290973 
L 360.286401 273.449272 
L 362.312442 272.463691 
L 364.20777 276.204848 
L 366.233811 277.568297 
L 370.220537 277.611146 
L 372.181222 277.41378 
L 376.233304 276.513147 
L 378.193989 275.418195 
L 380.22003 274.502126 
L 382.180714 274.889526 
L 384.206755 277.842783 
L 386.232796 279.295761 
L 388.062769 280.830967 
L 390.08881 281.836893 
L 398.062261 284.780401 
L 400.088302 285.153932 
L 402.048987 286.315642 
L 404.075028 287.269577 
L 408.061754 287.248447 
L 410.087795 287.099909 
L 411.917767 287.478747 
L 413.943808 288.699708 
L 419.891219 294.067241 
L 421.91726 295.795519 
L 425.903985 297.465533 
L 429.890711 300.534705 
L 431.916752 301.722263 
L 433.942793 303.298405 
L 435.772766 303.938064 
L 437.798806 303.784671 
L 439.759491 303.487494 
L 445.772258 303.049756 
L 449.758984 303.894063 
L 453.745709 303.605061 
L 455.77175 302.07976 
L 457.797791 301.229485 
L 459.69312 300.118471 
L 461.719161 299.40218 
L 463.679846 298.415245 
L 465.705887 297.121844 
L 469.692612 294.089937 
L 477.666064 289.857188 
L 479.692105 290.097074 
L 481.718146 289.571407 
L 485.574159 289.33983 
L 487.534844 289.769262 
L 489.560885 290.846609 
L 491.52157 291.535834 
L 495.573652 291.865076 
L 497.534337 292.193208 
L 499.560378 292.719215 
L 501.521062 293.574331 
L 503.547103 294.19398 
L 505.573144 295.430522 
L 511.389842 297.499357 
L 513.415883 297.45924 
L 515.376568 297.141266 
L 519.42865 298.441432 
L 521.389335 298.656488 
L 523.415376 298.349752 
L 525.376061 298.458779 
L 527.402102 298.266866 
L 529.428143 297.251419 
L 531.258115 296.749176 
L 533.284156 295.474426 
L 535.244841 294.454799 
L 537.270882 294.084907 
L 539.231567 294.540253 
L 541.257607 294.277158 
L 545.244333 291.889393 
L 547.270374 291.703855 
L 549.231059 291.074024 
L 551.2571 290.671016 
L 553.283141 289.75547 
L 555.17847 289.397829 
L 557.20451 290.214489 
L 559.165195 290.748856 
L 561.191236 290.176758 
L 563.151921 288.856178 
L 565.177962 288.37043 
L 567.204003 288.476331 
L 569.164688 288.865126 
L 571.190729 288.774131 
L 573.151414 288.062612 
L 575.177454 288.202148 
L 579.033468 291.627328 
L 583.020194 292.669978 
L 585.046235 292.361817 
L 587.006919 293.23832 
L 589.03296 293.591236 
L 593.019686 296.703453 
L 595.045727 297.474619 
L 597.006412 299.540107 
L 599.032453 300.157635 
L 602.888466 297.328768 
L 606.875192 296.505511 
L 608.901233 296.730957 
L 610.861918 296.194598 
L 612.887959 296.168321 
L 614.914 295.34694 
L 616.874684 294.88942 
L 618.900725 294.687681 
L 620.86141 293.251477 
L 624.913492 283.479027 
L 628.769506 277.489467 
L 630.73019 276.075851 
L 632.756231 275.676019 
L 634.716916 276.032824 
L 636.742957 275.574858 
L 638.768998 274.445356 
L 640.729683 273.075541 
L 642.755724 272.476491 
L 644.716409 272.857446 
L 646.742449 276.906596 
L 648.76849 282.592488 
L 650.663819 285.156536 
L 652.68986 287.274615 
L 654.650545 288.53344 
L 656.676586 289.085653 
L 660.663312 289.466765 
L 664.650037 290.372653 
L 666.676078 289.722374 
L 668.636763 289.713252 
L 670.662804 290.165279 
L 672.688845 290.183546 
L 674.518817 291.167694 
L 676.544858 291.467603 
L 678.505543 291.197978 
L 680.531584 291.38514 
L 682.492269 291.876753 
L 688.505036 292.860441 
L 690.531077 294.439637 
L 692.491761 294.757441 
L 692.491761 294.757441 
" clip-path="url(#p8eadef6d94)" style="fill: none; stroke: #1b75bb; stroke-width: 2; stroke-linecap: square"/>
   </g>
   <g id="line2d_27">
    <path d="M 83.764489 86.371033 
L 85.725173 87.560135 
L 87.751214 88.95424 
L 89.777255 92.632802 
L 93.763981 97.897499 
L 95.724666 100.087326 
L 97.750707 100.155511 
L 99.776748 100.623865 
L 101.60672 105.064284 
L 103.632761 108.198458 
L 105.593446 113.188044 
L 107.619487 121.873991 
L 109.580172 131.712137 
L 111.606213 140.520136 
L 113.632254 147.437299 
L 115.592938 155.091654 
L 117.618979 161.310416 
L 119.579664 166.549147 
L 121.605705 169.724852 
L 123.631746 165.151771 
L 125.461719 161.330804 
L 127.48776 159.682644 
L 129.448444 158.437062 
L 131.474485 156.140764 
L 137.487252 142.767541 
L 139.447937 136.765371 
L 141.473978 132.773642 
L 143.434663 129.922083 
L 145.460704 130.777047 
L 147.486744 133.757499 
L 149.316717 135.38831 
L 151.342758 133.755868 
L 153.303443 133.240479 
L 155.329484 131.748905 
L 157.290168 129.84141 
L 159.316209 127.44395 
L 161.34225 124.062737 
L 163.302935 120.437497 
L 165.328976 117.885395 
L 169.315702 113.649681 
L 171.341743 115.9753 
L 173.237071 115.331993 
L 175.263112 113.50518 
L 177.223797 112.266522 
L 179.249838 110.805247 
L 181.210523 111.780278 
L 183.236564 112.654006 
L 185.262605 113.304593 
L 187.22329 115.90611 
L 189.249331 116.362962 
L 191.210015 115.264288 
L 193.236056 102.64233 
L 195.262097 93.663604 
L 197.09207 92.554618 
L 199.118111 94.760788 
L 203.104836 95.127607 
L 207.091562 93.409878 
L 209.117603 95.37246 
L 211.078288 96.145251 
L 213.104329 97.345342 
L 215.065014 90.443502 
L 217.091055 97.49968 
L 219.117096 104.142447 
L 220.947068 98.297078 
L 222.973109 92.974038 
L 224.933794 91.909729 
L 226.959835 88.826969 
L 230.946561 81.368153 
L 232.972602 77.162997 
L 234.933286 74.455155 
L 236.959327 70.404049 
L 238.920012 75.301945 
L 240.946053 62.819436 
L 242.972094 36.178125 
L 244.802066 38.680463 
L 246.828107 43.995253 
L 248.788792 45.047082 
L 250.814833 47.540565 
L 252.775518 49.482072 
L 254.801559 52.69355 
L 256.8276 53.492866 
L 258.788285 52.43541 
L 260.814326 55.196144 
L 262.77501 55.356433 
L 264.801051 70.611635 
L 266.827092 98.913629 
L 268.722421 101.328376 
L 270.748462 92.242025 
L 272.709147 89.457393 
L 274.735188 86.976198 
L 276.695872 84.838269 
L 278.721913 83.408408 
L 280.747954 84.059973 
L 282.708639 85.943291 
L 284.73468 86.393762 
L 286.695365 90.950056 
L 288.721406 93.072102 
L 290.747447 90.196893 
L 292.577419 91.610405 
L 294.60346 97.2664 
L 296.564145 99.862429 
L 298.590186 101.582621 
L 300.550871 103.575582 
L 302.576912 106.469322 
L 304.602953 108.00637 
L 306.563638 108.506776 
L 308.589678 106.462993 
L 312.576404 70.394183 
L 314.602445 64.519496 
L 316.432418 61.056403 
L 318.458459 58.812002 
L 320.419143 59.044741 
L 322.445184 59.557419 
L 324.405869 59.024062 
L 328.457951 55.701537 
L 330.418636 54.985493 
L 332.444677 55.173484 
L 336.431403 83.088922 
L 338.457444 90.517276 
L 340.287416 76.418865 
L 342.313457 75.535897 
L 344.274142 73.772464 
L 346.300183 72.736758 
L 348.260867 72.852163 
L 350.286908 72.572777 
L 354.273634 74.489802 
L 356.299675 74.269446 
L 358.26036 72.617609 
L 360.286401 71.447993 
L 362.312442 71.098172 
L 364.20777 89.544189 
L 366.233811 95.740737 
L 368.194496 95.943431 
L 370.220537 94.841353 
L 372.181222 94.086868 
L 374.207263 92.909105 
L 376.233304 91.877991 
L 378.193989 91.15194 
L 380.22003 91.874933 
L 382.180714 94.288921 
L 384.206755 100.370928 
L 386.232796 101.522286 
L 388.062769 105.851994 
L 394.075536 119.18912 
L 398.062261 126.774847 
L 400.088302 129.447464 
L 402.048987 131.81791 
L 404.075028 133.266827 
L 406.035713 132.841496 
L 408.061754 130.995619 
L 410.087795 131.747506 
L 411.917767 131.700147 
L 413.943808 131.083496 
L 415.904493 133.029946 
L 417.930534 136.815926 
L 423.943301 149.623748 
L 427.930026 157.297529 
L 429.890711 162.251345 
L 431.916752 165.049843 
L 433.942793 169.244836 
L 435.772766 170.888553 
L 437.798806 173.478199 
L 439.759491 173.994417 
L 441.785532 173.95063 
L 443.746217 175.432153 
L 445.772258 177.224797 
L 447.798299 178.041492 
L 449.758984 176.536134 
L 451.785025 176.037609 
L 453.745709 176.719979 
L 455.77175 177.256633 
L 457.797791 173.706533 
L 459.69312 169.04861 
L 461.719161 167.868185 
L 463.679846 166.145693 
L 465.705887 161.764888 
L 467.666572 156.837856 
L 469.692612 151.140187 
L 471.718653 147.345551 
L 473.679338 145.041901 
L 475.705379 144.082817 
L 477.666064 140.132382 
L 479.692105 138.019857 
L 481.718146 139.789649 
L 483.548118 143.151899 
L 485.574159 144.179749 
L 487.534844 144.08855 
L 489.560885 147.651589 
L 491.52157 150.276077 
L 493.547611 151.943196 
L 495.573652 151.60511 
L 497.534337 152.166238 
L 499.560378 153.919089 
L 505.573144 158.451512 
L 507.403117 159.123819 
L 509.429158 159.014169 
L 511.389842 160.446481 
L 513.415883 159.97779 
L 515.376568 159.226653 
L 517.402609 157.593232 
L 519.42865 159.978031 
L 521.389335 160.785265 
L 523.415376 157.29596 
L 525.376061 157.656183 
L 527.402102 156.849833 
L 529.428143 156.619418 
L 531.258115 158.077262 
L 533.284156 157.280377 
L 535.244841 157.779682 
L 537.270882 159.165437 
L 539.231567 159.170255 
L 541.257607 160.808332 
L 543.283648 157.481745 
L 545.244333 155.906334 
L 547.270374 158.363623 
L 549.231059 157.192724 
L 551.2571 157.43269 
L 555.17847 155.392687 
L 557.20451 155.671679 
L 559.165195 154.393206 
L 561.191236 152.648934 
L 565.177962 151.298115 
L 567.204003 150.971269 
L 569.164688 150.437323 
L 571.190729 149.168706 
L 573.151414 152.458958 
L 575.177454 156.248425 
L 579.033468 164.453036 
L 581.059509 167.200566 
L 583.020194 169.574218 
L 585.046235 173.519269 
L 587.006919 179.603067 
L 591.059001 189.253223 
L 593.019686 196.030511 
L 595.045727 199.857393 
L 597.006412 201.962158 
L 599.032453 203.445929 
L 601.058494 204.459066 
L 602.888466 201.581125 
L 604.914507 203.164963 
L 606.875192 204.141256 
L 608.901233 203.872169 
L 610.861918 201.124995 
L 612.887959 198.092787 
L 616.874684 198.488458 
L 618.900725 197.469872 
L 620.86141 196.043902 
L 622.887451 187.769802 
L 624.913492 173.701729 
L 626.743465 164.53115 
L 628.769506 155.363543 
L 630.73019 152.486172 
L 632.756231 149.940764 
L 634.716916 148.56118 
L 636.742957 147.438638 
L 638.768998 145.302629 
L 640.729683 141.133026 
L 642.755724 138.306607 
L 644.716409 136.71902 
L 646.742449 141.256607 
L 650.663819 163.74125 
L 652.68986 171.020774 
L 654.650545 174.047772 
L 656.676586 175.600615 
L 658.637271 176.156894 
L 660.663312 177.769054 
L 662.689352 177.378461 
L 666.676078 178.167845 
L 668.636763 178.050924 
L 670.662804 176.802484 
L 672.688845 173.022404 
L 674.518817 170.236663 
L 676.544858 168.416898 
L 678.505543 166.226964 
L 680.531584 165.813599 
L 684.51831 167.988358 
L 686.544351 169.4334 
L 688.505036 171.090363 
L 690.531077 173.787374 
L 692.491761 175.823487 
L 692.491761 175.823487 
" clip-path="url(#p8eadef6d94)" style="fill: none; stroke: #87714d; stroke-width: 2; stroke-linecap: square"/>
   </g>
   <g id="line2d_28">
    <path d="M 83.764489 286.085676 
L 85.725173 287.206903 
L 87.751214 287.937963 
L 89.777255 288.853388 
L 93.763981 289.983584 
L 95.724666 289.828458 
L 97.750707 290.47653 
L 99.776748 291.891715 
L 101.60672 292.947194 
L 103.632761 293.311729 
L 105.593446 294.264584 
L 107.619487 295.820155 
L 111.606213 298.30444 
L 113.632254 299.146884 
L 115.592938 300.159187 
L 117.618979 300.865468 
L 119.579664 302.156148 
L 121.605705 302.410029 
L 123.631746 301.921607 
L 127.48776 302.304859 
L 129.448444 302.38418 
L 133.43517 302.062379 
L 135.461211 301.551691 
L 137.487252 301.336179 
L 139.447937 300.903709 
L 145.460704 300.48003 
L 147.486744 300.869236 
L 149.316717 300.87713 
L 153.303443 300.227069 
L 155.329484 299.514164 
L 157.290168 298.644089 
L 159.316209 297.895786 
L 161.34225 296.699154 
L 163.302935 295.762086 
L 165.328976 294.47193 
L 167.289661 294.333957 
L 169.315702 294.891457 
L 171.341743 293.992696 
L 173.237071 292.287607 
L 175.263112 291.525184 
L 177.223797 291.141818 
L 179.249838 291.404053 
L 181.210523 292.051268 
L 185.262605 293.939028 
L 189.249331 296.374102 
L 191.210015 296.033751 
L 193.236056 295.11935 
L 197.09207 295.919755 
L 199.118111 296.637087 
L 201.078796 297.052662 
L 205.065521 297.054336 
L 207.091562 296.745274 
L 209.117603 297.021103 
L 213.104329 296.656814 
L 215.065014 295.180951 
L 217.091055 294.922502 
L 219.117096 295.03609 
L 220.947068 294.505518 
L 222.973109 292.458019 
L 230.946561 288.865459 
L 236.959327 284.850263 
L 238.920012 284.461152 
L 240.946053 282.267863 
L 242.972094 276.57651 
L 244.802066 276.342178 
L 246.828107 277.928773 
L 248.788792 278.33952 
L 250.814833 278.615649 
L 252.775518 279.117231 
L 254.801559 279.758928 
L 258.788285 280.695599 
L 260.814326 281.705425 
L 262.77501 283.016169 
L 264.801051 285.290491 
L 266.827092 290.600591 
L 268.722421 291.354309 
L 270.748462 291.09817 
L 272.709147 291.235326 
L 274.735188 291.537086 
L 278.721913 291.60588 
L 280.747954 291.979661 
L 284.73468 293.476766 
L 286.695365 294.15184 
L 290.747447 295.886244 
L 292.577419 297.030463 
L 294.60346 297.70746 
L 296.564145 297.869706 
L 298.590186 297.749793 
L 300.550871 297.823423 
L 302.576912 298.26299 
L 304.602953 298.429225 
L 306.563638 298.349888 
L 308.589678 297.742645 
L 310.550363 297.381171 
L 312.576404 296.505893 
L 314.602445 296.236881 
L 316.432418 296.239337 
L 322.445184 297.723181 
L 324.405869 297.788818 
L 326.43191 297.639045 
L 328.457951 297.758183 
L 330.418636 297.704918 
L 332.444677 297.477787 
L 334.405362 297.610288 
L 338.457444 298.564217 
L 340.287416 297.551754 
L 342.313457 297.151229 
L 346.300183 296.614147 
L 348.260867 296.67544 
L 350.286908 296.589369 
L 352.312949 296.247851 
L 354.273634 296.267123 
L 356.299675 296.488056 
L 358.26036 296.58916 
L 360.286401 296.327483 
L 362.312442 295.699717 
L 364.20777 296.428169 
L 366.233811 296.779101 
L 368.194496 296.521844 
L 370.220537 296.534124 
L 374.207263 296.818211 
L 376.233304 297.252882 
L 378.193989 297.262937 
L 380.22003 297.607571 
L 382.180714 297.637909 
L 384.206755 298.697145 
L 386.232796 299.272178 
L 388.062769 300.305311 
L 390.08881 300.67898 
L 392.049495 301.432348 
L 400.088302 303.094785 
L 402.048987 303.665992 
L 404.075028 303.859396 
L 406.035713 304.178732 
L 408.061754 304.218314 
L 411.917767 303.965134 
L 413.943808 303.702011 
L 415.904493 303.701413 
L 417.930534 304.164014 
L 421.91726 304.274335 
L 427.930026 304.267879 
L 429.890711 304.250171 
L 431.916752 304.59571 
L 433.942793 305.373726 
L 435.772766 305.566934 
L 437.798806 305.945169 
L 441.785532 305.940372 
L 445.772258 306.93349 
L 451.785025 307.438137 
L 453.745709 308.243265 
L 455.77175 307.912093 
L 459.69312 308.314432 
L 461.719161 308.821659 
L 463.679846 309.045895 
L 465.705887 308.952563 
L 469.692612 308.447776 
L 471.718653 308.621046 
L 475.705379 308.697075 
L 477.666064 308.29648 
L 479.692105 308.700327 
L 481.718146 308.542712 
L 483.548118 308.68119 
L 485.574159 308.964704 
L 491.52157 310.401844 
L 493.547611 310.49762 
L 497.534337 310.099144 
L 499.560378 310.153865 
L 503.547103 310.052911 
L 505.573144 310.110585 
L 511.389842 309.505372 
L 513.415883 309.003849 
L 515.376568 308.059155 
L 517.402609 307.733287 
L 519.42865 307.854076 
L 521.389335 307.832643 
L 523.415376 307.365265 
L 525.376061 307.631492 
L 527.402102 307.289198 
L 529.428143 306.735126 
L 531.258115 306.780576 
L 535.244841 306.397061 
L 537.270882 306.595724 
L 539.231567 307.237877 
L 541.257607 307.180741 
L 543.283648 306.662983 
L 545.244333 306.276834 
L 547.270374 306.436985 
L 549.231059 306.038337 
L 551.2571 305.952812 
L 553.283141 305.441196 
L 555.17847 304.817333 
L 559.165195 304.444126 
L 561.191236 303.849926 
L 563.151921 303.091757 
L 567.204003 302.376277 
L 569.164688 302.179009 
L 571.190729 301.782423 
L 573.151414 302.066303 
L 575.177454 302.664339 
L 577.203495 303.722646 
L 579.033468 304.525004 
L 581.059509 304.795831 
L 583.020194 304.670921 
L 585.046235 304.986588 
L 589.03296 306.79964 
L 593.019686 309.458968 
L 595.045727 310.452089 
L 597.006412 310.699699 
L 599.032453 309.997844 
L 601.058494 309.048054 
L 602.888466 308.779897 
L 604.914507 309.039913 
L 606.875192 309.579119 
L 608.901233 309.761577 
L 612.887959 308.665054 
L 614.914 307.701164 
L 616.874684 307.434811 
L 618.900725 306.842952 
L 620.86141 306.572928 
L 622.887451 306.826463 
L 624.913492 307.760557 
L 626.743465 307.475959 
L 628.769506 306.919244 
L 630.73019 306.754672 
L 632.756231 306.885568 
L 634.716916 307.436188 
L 636.742957 307.798385 
L 638.768998 308.378548 
L 640.729683 307.995933 
L 644.716409 308.465802 
L 646.742449 308.242143 
L 648.76849 308.13342 
L 650.663819 308.350117 
L 652.68986 308.249926 
L 654.650545 308.284393 
L 656.676586 307.928873 
L 658.637271 307.268212 
L 660.663312 307.087283 
L 662.689352 306.491897 
L 664.650037 306.069807 
L 666.676078 305.379054 
L 670.662804 304.829093 
L 672.688845 304.247078 
L 674.518817 304.31326 
L 676.544858 304.563335 
L 678.505543 304.519014 
L 680.531584 304.668617 
L 682.492269 305.195664 
L 684.51831 305.431417 
L 690.531077 307.007147 
L 692.491761 307.043798 
L 692.491761 307.043798 
" clip-path="url(#p8eadef6d94)" style="fill: none; stroke: #0f7b5f; stroke-width: 2; stroke-linecap: square"/>
   </g>
   <g id="line2d_29">
    <path d="M 83.764489 303.449314 
L 85.725173 304.537734 
L 87.751214 305.393094 
L 91.73794 305.936947 
L 93.763981 305.995877 
L 95.724666 305.38233 
L 97.750707 305.347606 
L 99.776748 304.41831 
L 103.632761 304.233319 
L 105.593446 304.094499 
L 107.619487 304.2014 
L 109.580172 303.935315 
L 111.606213 303.981483 
L 113.632254 304.471677 
L 115.592938 304.562166 
L 119.579664 305.156609 
L 121.605705 303.884721 
L 125.461719 302.457422 
L 127.48776 302.775103 
L 131.474485 302.66033 
L 133.43517 302.890776 
L 137.487252 302.225229 
L 139.447937 302.34935 
L 141.473978 302.339259 
L 143.434663 302.819478 
L 145.460704 303.688011 
L 147.486744 304.306947 
L 149.316717 305.225925 
L 151.342758 305.214421 
L 153.303443 305.743582 
L 155.329484 306.004252 
L 157.290168 306.109044 
L 159.316209 306.409177 
L 161.34225 306.402375 
L 163.302935 306.170658 
L 165.328976 306.056738 
L 167.289661 306.099911 
L 169.315702 306.917138 
L 171.341743 307.44003 
L 173.237071 307.132695 
L 177.223797 306.699163 
L 183.236564 305.810212 
L 185.262605 305.95155 
L 187.22329 306.293239 
L 189.249331 306.217807 
L 191.210015 306.006079 
L 193.236056 304.642665 
L 195.262097 305.300141 
L 197.09207 305.161619 
L 199.118111 305.241428 
L 201.078796 304.899943 
L 203.104836 305.018821 
L 207.091562 305.676759 
L 209.117603 305.592052 
L 211.078288 305.2898 
L 213.104329 305.333274 
L 215.065014 305.125605 
L 217.091055 306.182968 
L 219.117096 305.654091 
L 220.947068 305.639696 
L 222.973109 304.995172 
L 224.933794 305.420307 
L 228.92052 305.41075 
L 230.946561 305.252672 
L 234.933286 305.376333 
L 236.959327 305.765171 
L 238.920012 305.839232 
L 240.946053 303.36809 
L 242.972094 302.995107 
L 244.802066 303.330657 
L 246.828107 304.215764 
L 250.814833 304.30381 
L 254.801559 303.821781 
L 258.788285 303.802329 
L 260.814326 303.457902 
L 262.77501 303.538468 
L 264.801051 306.250008 
L 266.827092 306.695711 
L 268.722421 306.304845 
L 270.748462 305.414398 
L 272.709147 304.748015 
L 274.735188 304.229498 
L 278.721913 304.446308 
L 282.708639 304.25302 
L 284.73468 304.336751 
L 286.695365 304.57529 
L 288.721406 304.601971 
L 290.747447 304.335933 
L 298.590186 306.345742 
L 302.576912 305.843965 
L 304.602953 304.902516 
L 308.589678 303.288211 
L 310.550363 299.617481 
L 312.576404 295.557751 
L 316.432418 292.978694 
L 318.458459 292.026252 
L 322.445184 291.410479 
L 324.405869 291.097959 
L 326.43191 291.327128 
L 332.444677 293.359798 
L 334.405362 296.430712 
L 336.431403 296.93974 
L 338.457444 298.220154 
L 340.287416 296.960052 
L 342.313457 296.818504 
L 344.274142 296.891504 
L 346.300183 296.684438 
L 348.260867 296.922818 
L 350.286908 296.966024 
L 354.273634 296.794547 
L 356.299675 295.836115 
L 358.26036 295.326028 
L 360.286401 297.459731 
L 362.312442 297.864279 
L 364.20777 300.183217 
L 366.233811 301.240017 
L 368.194496 300.810448 
L 370.220537 299.331601 
L 372.181222 298.580018 
L 374.207263 298.245823 
L 378.193989 298.89702 
L 380.22003 299.926179 
L 382.180714 300.696466 
L 384.206755 300.965319 
L 386.232796 300.764664 
L 390.08881 299.877333 
L 392.049495 300.253038 
L 394.075536 301.219049 
L 396.03622 301.491451 
L 400.088302 301.622416 
L 402.048987 301.239596 
L 404.075028 301.174605 
L 406.035713 301.418942 
L 411.917767 305.52391 
L 413.943808 306.61793 
L 415.904493 307.47209 
L 417.930534 308.993672 
L 419.891219 310.26496 
L 421.91726 311.163567 
L 423.943301 311.562723 
L 425.903985 312.406679 
L 429.890711 312.86488 
L 431.916752 313.06009 
L 433.942793 312.618956 
L 435.772766 312.037669 
L 439.759491 312.066174 
L 441.785532 311.97143 
L 443.746217 311.615357 
L 445.772258 311.391964 
L 451.785025 309.098355 
L 453.745709 308.107284 
L 455.77175 303.58809 
L 457.797791 302.071048 
L 459.69312 300.053711 
L 463.679846 298.543829 
L 465.705887 295.812219 
L 467.666572 295.207407 
L 469.692612 294.428486 
L 473.679338 294.39209 
L 475.705379 294.508205 
L 477.666064 294.778459 
L 479.692105 297.773515 
L 481.718146 298.514992 
L 483.548118 300.13024 
L 485.574159 300.196333 
L 487.534844 298.996581 
L 489.560885 300.495975 
L 491.52157 300.691836 
L 495.573652 300.695716 
L 497.534337 300.987023 
L 499.560378 300.991761 
L 503.547103 301.941022 
L 507.403117 303.299447 
L 509.429158 303.560801 
L 511.389842 305.298709 
L 513.415883 306.402643 
L 517.402609 307.533065 
L 519.42865 308.062504 
L 521.389335 307.494745 
L 523.415376 307.735794 
L 525.376061 307.345753 
L 527.402102 307.863892 
L 529.428143 307.71232 
L 531.258115 306.997334 
L 533.284156 306.373355 
L 537.270882 306.140242 
L 539.231567 305.607554 
L 543.283648 305.141398 
L 545.244333 305.84101 
L 547.270374 306.325664 
L 549.231059 306.521904 
L 551.2571 306.247153 
L 553.283141 305.156715 
L 555.17847 305.643823 
L 557.20451 306.444447 
L 561.191236 306.479114 
L 565.177962 307.327359 
L 567.204003 307.461086 
L 571.190729 307.991505 
L 575.177454 308.445987 
L 577.203495 309.936669 
L 579.033468 310.367127 
L 589.03296 312.090182 
L 591.059001 312.762885 
L 593.019686 312.801336 
L 595.045727 312.637525 
L 597.006412 313.135757 
L 599.032453 313.378125 
L 601.058494 312.162155 
L 602.888466 311.915201 
L 604.914507 311.907622 
L 606.875192 312.146089 
L 610.861918 312.148539 
L 612.887959 312.161692 
L 618.900725 311.735601 
L 620.86141 311.109217 
L 622.887451 309.251169 
L 626.743465 306.757887 
L 628.769506 305.769968 
L 632.756231 304.424822 
L 636.742957 303.541627 
L 638.768998 303.063661 
L 642.755724 301.008027 
L 644.716409 300.764048 
L 646.742449 302.694056 
L 648.76849 305.320966 
L 650.663819 306.843522 
L 652.68986 307.728539 
L 656.676586 308.966416 
L 662.689352 310.333286 
L 664.650037 311.529946 
L 666.676078 311.490364 
L 668.636763 311.060512 
L 670.662804 310.30959 
L 672.688845 309.192395 
L 674.518817 308.910198 
L 676.544858 308.835299 
L 688.505036 307.702919 
L 690.531077 308.779798 
L 692.491761 309.186563 
L 692.491761 309.186563 
" clip-path="url(#p8eadef6d94)" style="fill: none; stroke: #c75d2c; stroke-width: 2; stroke-linecap: square"/>
   </g>
   <g id="patch_4">
    <path d="M 53.328125 327.238125 
L 53.328125 22.318125 
" style="fill: none; stroke: #000000; stroke-width: 0.8; stroke-linejoin: miter; stroke-linecap: square"/>
   </g>
   <g id="patch_5">
    <path d="M 53.328125 327.238125 
L 722.928125 327.238125 
" style="fill: none; stroke: #000000; stroke-width: 0.8; stroke-linejoin: miter; stroke-linecap: square"/>
   </g>
   <g id="text_19">
    <!-- Faixa laranja: crise hidrica 2014-2015. Fonte: ONS Dados Abertos. -->
    <g style="fill: #64748b" transform="translate(60.024125 403.468125) scale(0.09 -0.09)">
     <defs>
      <path id="DejaVuSans-46" d="M 628 4666 
L 3309 4666 
L 3309 4134 
L 1259 4134 
L 1259 2759 
L 3109 2759 
L 3109 2228 
L 1259 2228 
L 1259 0 
L 628 0 
L 628 4666 
z
" transform="scale(0.015625)"/>
      <path id="DejaVuSans-78" d="M 3513 3500 
L 2247 1797 
L 3578 0 
L 2900 0 
L 1881 1375 
L 863 0 
L 184 0 
L 1544 1831 
L 300 3500 
L 978 3500 
L 1906 2253 
L 2834 3500 
L 3513 3500 
z
" transform="scale(0.015625)"/>
      <path id="DejaVuSans-72" d="M 2631 2963 
Q 2534 3019 2420 3045 
Q 2306 3072 2169 3072 
Q 1681 3072 1420 2755 
Q 1159 2438 1159 1844 
L 1159 0 
L 581 0 
L 581 3500 
L 1159 3500 
L 1159 2956 
Q 1341 3275 1631 3429 
Q 1922 3584 2338 3584 
Q 2397 3584 2469 3576 
Q 2541 3569 2628 3553 
L 2631 2963 
z
" transform="scale(0.015625)"/>
      <path id="DejaVuSans-6a" d="M 603 3500 
L 1178 3500 
L 1178 -63 
Q 1178 -731 923 -1031 
Q 669 -1331 103 -1331 
L -116 -1331 
L -116 -844 
L 38 -844 
Q 366 -844 484 -692 
Q 603 -541 603 -63 
L 603 3500 
z
M 603 4863 
L 1178 4863 
L 1178 4134 
L 603 4134 
L 603 4863 
z
" transform="scale(0.015625)"/>
      <path id="DejaVuSans-3a" d="M 750 794 
L 1409 794 
L 1409 0 
L 750 0 
L 750 794 
z
M 750 3309 
L 1409 3309 
L 1409 2516 
L 750 2516 
L 750 3309 
z
" transform="scale(0.015625)"/>
      <path id="DejaVuSans-63" d="M 3122 3366 
L 3122 2828 
Q 2878 2963 2633 3030 
Q 2388 3097 2138 3097 
Q 1578 3097 1268 2742 
Q 959 2388 959 1747 
Q 959 1106 1268 751 
Q 1578 397 2138 397 
Q 2388 397 2633 464 
Q 2878 531 3122 666 
L 3122 134 
Q 2881 22 2623 -34 
Q 2366 -91 2075 -91 
Q 1284 -91 818 406 
Q 353 903 353 1747 
Q 353 2603 823 3093 
Q 1294 3584 2113 3584 
Q 2378 3584 2631 3529 
Q 2884 3475 3122 3366 
z
" transform="scale(0.015625)"/>
      <path id="DejaVuSans-68" d="M 3513 2113 
L 3513 0 
L 2938 0 
L 2938 2094 
Q 2938 2591 2744 2837 
Q 2550 3084 2163 3084 
Q 1697 3084 1428 2787 
Q 1159 2491 1159 1978 
L 1159 0 
L 581 0 
L 581 4863 
L 1159 4863 
L 1159 2956 
Q 1366 3272 1645 3428 
Q 1925 3584 2291 3584 
Q 2894 3584 3203 3211 
Q 3513 2838 3513 2113 
z
" transform="scale(0.015625)"/>
      <path id="DejaVuSans-2d" d="M 313 2009 
L 1997 2009 
L 1997 1497 
L 313 1497 
L 313 2009 
z
" transform="scale(0.015625)"/>
      <path id="DejaVuSans-2e" d="M 684 794 
L 1344 794 
L 1344 0 
L 684 0 
L 684 794 
z
" transform="scale(0.015625)"/>
      <path id="DejaVuSans-4f" d="M 2522 4238 
Q 1834 4238 1429 3725 
Q 1025 3213 1025 2328 
Q 1025 1447 1429 934 
Q 1834 422 2522 422 
Q 3209 422 3611 934 
Q 4013 1447 4013 2328 
Q 4013 3213 3611 3725 
Q 3209 4238 2522 4238 
z
M 2522 4750 
Q 3503 4750 4090 4092 
Q 4678 3434 4678 2328 
Q 4678 1225 4090 567 
Q 3503 -91 2522 -91 
Q 1538 -91 948 565 
Q 359 1222 359 2328 
Q 359 3434 948 4092 
Q 1538 4750 2522 4750 
z
" transform="scale(0.015625)"/>
      <path id="DejaVuSans-4e" d="M 628 4666 
L 1478 4666 
L 3547 763 
L 3547 4666 
L 4159 4666 
L 4159 0 
L 3309 0 
L 1241 3903 
L 1241 0 
L 628 0 
L 628 4666 
z
" transform="scale(0.015625)"/>
      <path id="DejaVuSans-53" d="M 3425 4513 
L 3425 3897 
Q 3066 4069 2747 4153 
Q 2428 4238 2131 4238 
Q 1616 4238 1336 4038 
Q 1056 3838 1056 3469 
Q 1056 3159 1242 3001 
Q 1428 2844 1947 2747 
L 2328 2669 
Q 3034 2534 3370 2195 
Q 3706 1856 3706 1288 
Q 3706 609 3251 259 
Q 2797 -91 1919 -91 
Q 1588 -91 1214 -16 
Q 841 59 441 206 
L 441 856 
Q 825 641 1194 531 
Q 1563 422 1919 422 
Q 2459 422 2753 634 
Q 3047 847 3047 1241 
Q 3047 1584 2836 1778 
Q 2625 1972 2144 2069 
L 1759 2144 
Q 1053 2284 737 2584 
Q 422 2884 422 3419 
Q 422 4038 858 4394 
Q 1294 4750 2059 4750 
Q 2388 4750 2728 4690 
Q 3069 4631 3425 4513 
z
" transform="scale(0.015625)"/>
      <path id="DejaVuSans-44" d="M 1259 4147 
L 1259 519 
L 2022 519 
Q 2988 519 3436 956 
Q 3884 1394 3884 2338 
Q 3884 3275 3436 3711 
Q 2988 4147 2022 4147 
L 1259 4147 
z
M 628 4666 
L 1925 4666 
Q 3281 4666 3915 4102 
Q 4550 3538 4550 2338 
Q 4550 1131 3912 565 
Q 3275 0 1925 0 
L 628 0 
L 628 4666 
z
" transform="scale(0.015625)"/>
      <path id="DejaVuSans-62" d="M 3116 1747 
Q 3116 2381 2855 2742 
Q 2594 3103 2138 3103 
Q 1681 3103 1420 2742 
Q 1159 2381 1159 1747 
Q 1159 1113 1420 752 
Q 1681 391 2138 391 
Q 2594 391 2855 752 
Q 3116 1113 3116 1747 
z
M 1159 2969 
Q 1341 3281 1617 3432 
Q 1894 3584 2278 3584 
Q 2916 3584 3314 3078 
Q 3713 2572 3713 1747 
Q 3713 922 3314 415 
Q 2916 -91 2278 -91 
Q 1894 -91 1617 61 
Q 1341 213 1159 525 
L 1159 0 
L 581 0 
L 581 4863 
L 1159 4863 
L 1159 2969 
z
" transform="scale(0.015625)"/>
     </defs>
     <use xlink:href="#DejaVuSans-46"/>
     <use xlink:href="#DejaVuSans-61" transform="translate(48.394531 0)"/>
     <use xlink:href="#DejaVuSans-69" transform="translate(109.673828 0)"/>
     <use xlink:href="#DejaVuSans-78" transform="translate(137.457031 0)"/>
     <use xlink:href="#DejaVuSans-61" transform="translate(196.636719 0)"/>
     <use xlink:href="#DejaVuSans-20" transform="translate(257.916016 0)"/>
     <use xlink:href="#DejaVuSans-6c" transform="translate(289.703125 0)"/>
     <use xlink:href="#DejaVuSans-61" transform="translate(317.486328 0)"/>
     <use xlink:href="#DejaVuSans-72" transform="translate(378.765625 0)"/>
     <use xlink:href="#DejaVuSans-61" transform="translate(419.878906 0)"/>
     <use xlink:href="#DejaVuSans-6e" transform="translate(481.158203 0)"/>
     <use xlink:href="#DejaVuSans-6a" transform="translate(544.537109 0)"/>
     <use xlink:href="#DejaVuSans-61" transform="translate(572.320312 0)"/>
     <use xlink:href="#DejaVuSans-3a" transform="translate(633.599609 0)"/>
     <use xlink:href="#DejaVuSans-20" transform="translate(667.291016 0)"/>
     <use xlink:href="#DejaVuSans-63" transform="translate(699.078125 0)"/>
     <use xlink:href="#DejaVuSans-72" transform="translate(754.058594 0)"/>
     <use xlink:href="#DejaVuSans-69" transform="translate(795.171875 0)"/>
     <use xlink:href="#DejaVuSans-73" transform="translate(822.955078 0)"/>
     <use xlink:href="#DejaVuSans-65" transform="translate(875.054688 0)"/>
     <use xlink:href="#DejaVuSans-20" transform="translate(936.578125 0)"/>
     <use xlink:href="#DejaVuSans-68" transform="translate(968.365234 0)"/>
     <use xlink:href="#DejaVuSans-69" transform="translate(1031.744141 0)"/>
     <use xlink:href="#DejaVuSans-64" transform="translate(1059.527344 0)"/>
     <use xlink:href="#DejaVuSans-72" transform="translate(1123.003906 0)"/>
     <use xlink:href="#DejaVuSans-69" transform="translate(1164.117188 0)"/>
     <use xlink:href="#DejaVuSans-63" transform="translate(1191.900391 0)"/>
     <use xlink:href="#DejaVuSans-61" transform="translate(1246.880859 0)"/>
     <use xlink:href="#DejaVuSans-20" transform="translate(1308.160156 0)"/>
     <use xlink:href="#DejaVuSans-32" transform="translate(1339.947266 0)"/>
     <use xlink:href="#DejaVuSans-30" transform="translate(1403.570312 0)"/>
     <use xlink:href="#DejaVuSans-31" transform="translate(1467.193359 0)"/>
     <use xlink:href="#DejaVuSans-34" transform="translate(1530.816406 0)"/>
     <use xlink:href="#DejaVuSans-2d" transform="translate(1594.439453 0)"/>
     <use xlink:href="#DejaVuSans-32" transform="translate(1630.523438 0)"/>
     <use xlink:href="#DejaVuSans-30" transform="translate(1694.146484 0)"/>
     <use xlink:href="#DejaVuSans-31" transform="translate(1757.769531 0)"/>
     <use xlink:href="#DejaVuSans-35" transform="translate(1821.392578 0)"/>
     <use xlink:href="#DejaVuSans-2e" transform="translate(1885.015625 0)"/>
     <use xlink:href="#DejaVuSans-20" transform="translate(1916.802734 0)"/>
     <use xlink:href="#DejaVuSans-46" transform="translate(1948.589844 0)"/>
     <use xlink:href="#DejaVuSans-6f" transform="translate(2002.484375 0)"/>
     <use xlink:href="#DejaVuSans-6e" transform="translate(2063.666016 0)"/>
     <use xlink:href="#DejaVuSans-74" transform="translate(2127.044922 0)"/>
     <use xlink:href="#DejaVuSans-65" transform="translate(2166.253906 0)"/>
     <use xlink:href="#DejaVuSans-3a" transform="translate(2227.777344 0)"/>
     <use xlink:href="#DejaVuSans-20" transform="translate(2261.46875 0)"/>
     <use xlink:href="#DejaVuSans-4f" transform="translate(2293.255859 0)"/>
     <use xlink:href="#DejaVuSans-4e" transform="translate(2371.966797 0)"/>
     <use xlink:href="#DejaVuSans-53" transform="translate(2446.771484 0)"/>
     <use xlink:href="#DejaVuSans-20" transform="translate(2510.248047 0)"/>
     <use xlink:href="#DejaVuSans-44" transform="translate(2542.035156 0)"/>
     <use xlink:href="#DejaVuSans-61" transform="translate(2619.037109 0)"/>
     <use xlink:href="#DejaVuSans-64" transform="translate(2680.316406 0)"/>
     <use xlink:href="#DejaVuSans-6f" transform="translate(2743.792969 0)"/>
     <use xlink:href="#DejaVuSans-73" transform="translate(2804.974609 0)"/>
     <use xlink:href="#DejaVuSans-20" transform="translate(2857.074219 0)"/>
     <use xlink:href="#DejaVuSans-41" transform="translate(2888.861328 0)"/>
     <use xlink:href="#DejaVuSans-62" transform="translate(2957.269531 0)"/>
     <use xlink:href="#DejaVuSans-65" transform="translate(3020.746094 0)"/>
     <use xlink:href="#DejaVuSans-72" transform="translate(3082.269531 0)"/>
     <use xlink:href="#DejaVuSans-74" transform="translate(3123.382812 0)"/>
     <use xlink:href="#DejaVuSans-6f" transform="translate(3162.591797 0)"/>
     <use xlink:href="#DejaVuSans-73" transform="translate(3223.773438 0)"/>
     <use xlink:href="#DejaVuSans-2e" transform="translate(3275.873047 0)"/>
    </g>
   </g>
   <g id="text_20">
    <!-- Vazao afluente mensal por contribuinte - media movel de 12 meses -->
    <g transform="translate(159.76625 16.318125) scale(0.12 -0.12)">
     <defs>
      <path id="DejaVuSans-Bold-56" d="M 31 4666 
L 1241 4666 
L 2478 1222 
L 3713 4666 
L 4922 4666 
L 3194 0 
L 1759 0 
L 31 4666 
z
" transform="scale(0.015625)"/>
      <path id="DejaVuSans-Bold-61" d="M 2106 1575 
Q 1756 1575 1579 1456 
Q 1403 1338 1403 1106 
Q 1403 894 1545 773 
Q 1688 653 1941 653 
Q 2256 653 2472 879 
Q 2688 1106 2688 1447 
L 2688 1575 
L 2106 1575 
z
M 3816 1997 
L 3816 0 
L 2688 0 
L 2688 519 
Q 2463 200 2181 54 
Q 1900 -91 1497 -91 
Q 953 -91 614 226 
Q 275 544 275 1050 
Q 275 1666 698 1953 
Q 1122 2241 2028 2241 
L 2688 2241 
L 2688 2328 
Q 2688 2594 2478 2717 
Q 2269 2841 1825 2841 
Q 1466 2841 1156 2769 
Q 847 2697 581 2553 
L 581 3406 
Q 941 3494 1303 3539 
Q 1666 3584 2028 3584 
Q 2975 3584 3395 3211 
Q 3816 2838 3816 1997 
z
" transform="scale(0.015625)"/>
      <path id="DejaVuSans-Bold-7a" d="M 366 3500 
L 3419 3500 
L 3419 2719 
L 1575 800 
L 3419 800 
L 3419 0 
L 288 0 
L 288 781 
L 2131 2700 
L 366 2700 
L 366 3500 
z
" transform="scale(0.015625)"/>
      <path id="DejaVuSans-Bold-6f" d="M 2203 2784 
Q 1831 2784 1636 2517 
Q 1441 2250 1441 1747 
Q 1441 1244 1636 976 
Q 1831 709 2203 709 
Q 2569 709 2762 976 
Q 2956 1244 2956 1747 
Q 2956 2250 2762 2517 
Q 2569 2784 2203 2784 
z
M 2203 3584 
Q 3106 3584 3614 3096 
Q 4122 2609 4122 1747 
Q 4122 884 3614 396 
Q 3106 -91 2203 -91 
Q 1297 -91 786 396 
Q 275 884 275 1747 
Q 275 2609 786 3096 
Q 1297 3584 2203 3584 
z
" transform="scale(0.015625)"/>
      <path id="DejaVuSans-Bold-20" transform="scale(0.015625)"/>
      <path id="DejaVuSans-Bold-66" d="M 2841 4863 
L 2841 4128 
L 2222 4128 
Q 1984 4128 1890 4042 
Q 1797 3956 1797 3744 
L 1797 3500 
L 2753 3500 
L 2753 2700 
L 1797 2700 
L 1797 0 
L 678 0 
L 678 2700 
L 122 2700 
L 122 3500 
L 678 3500 
L 678 3744 
Q 678 4316 997 4589 
Q 1316 4863 1984 4863 
L 2841 4863 
z
" transform="scale(0.015625)"/>
      <path id="DejaVuSans-Bold-6c" d="M 538 4863 
L 1656 4863 
L 1656 0 
L 538 0 
L 538 4863 
z
" transform="scale(0.015625)"/>
      <path id="DejaVuSans-Bold-75" d="M 500 1363 
L 500 3500 
L 1625 3500 
L 1625 3150 
Q 1625 2866 1622 2436 
Q 1619 2006 1619 1863 
Q 1619 1441 1641 1255 
Q 1663 1069 1716 984 
Q 1784 875 1895 815 
Q 2006 756 2150 756 
Q 2500 756 2700 1025 
Q 2900 1294 2900 1772 
L 2900 3500 
L 4019 3500 
L 4019 0 
L 2900 0 
L 2900 506 
Q 2647 200 2364 54 
Q 2081 -91 1741 -91 
Q 1134 -91 817 281 
Q 500 653 500 1363 
z
" transform="scale(0.015625)"/>
      <path id="DejaVuSans-Bold-65" d="M 4031 1759 
L 4031 1441 
L 1416 1441 
Q 1456 1047 1700 850 
Q 1944 653 2381 653 
Q 2734 653 3104 758 
Q 3475 863 3866 1075 
L 3866 213 
Q 3469 63 3072 -14 
Q 2675 -91 2278 -91 
Q 1328 -91 801 392 
Q 275 875 275 1747 
Q 275 2603 792 3093 
Q 1309 3584 2216 3584 
Q 3041 3584 3536 3087 
Q 4031 2591 4031 1759 
z
M 2881 2131 
Q 2881 2450 2695 2645 
Q 2509 2841 2209 2841 
Q 1884 2841 1681 2658 
Q 1478 2475 1428 2131 
L 2881 2131 
z
" transform="scale(0.015625)"/>
      <path id="DejaVuSans-Bold-6e" d="M 4056 2131 
L 4056 0 
L 2931 0 
L 2931 347 
L 2931 1631 
Q 2931 2084 2911 2256 
Q 2891 2428 2841 2509 
Q 2775 2619 2662 2680 
Q 2550 2741 2406 2741 
Q 2056 2741 1856 2470 
Q 1656 2200 1656 1722 
L 1656 0 
L 538 0 
L 538 3500 
L 1656 3500 
L 1656 2988 
Q 1909 3294 2193 3439 
Q 2478 3584 2822 3584 
Q 3428 3584 3742 3212 
Q 4056 2841 4056 2131 
z
" transform="scale(0.015625)"/>
      <path id="DejaVuSans-Bold-74" d="M 1759 4494 
L 1759 3500 
L 2913 3500 
L 2913 2700 
L 1759 2700 
L 1759 1216 
Q 1759 972 1856 886 
Q 1953 800 2241 800 
L 2816 800 
L 2816 0 
L 1856 0 
Q 1194 0 917 276 
Q 641 553 641 1216 
L 641 2700 
L 84 2700 
L 84 3500 
L 641 3500 
L 641 4494 
L 1759 4494 
z
" transform="scale(0.015625)"/>
      <path id="DejaVuSans-Bold-6d" d="M 3781 2919 
Q 3994 3244 4286 3414 
Q 4578 3584 4928 3584 
Q 5531 3584 5847 3212 
Q 6163 2841 6163 2131 
L 6163 0 
L 5038 0 
L 5038 1825 
Q 5041 1866 5042 1909 
Q 5044 1953 5044 2034 
Q 5044 2406 4934 2573 
Q 4825 2741 4581 2741 
Q 4263 2741 4089 2478 
Q 3916 2216 3909 1719 
L 3909 0 
L 2784 0 
L 2784 1825 
Q 2784 2406 2684 2573 
Q 2584 2741 2328 2741 
Q 2006 2741 1831 2477 
Q 1656 2213 1656 1722 
L 1656 0 
L 531 0 
L 531 3500 
L 1656 3500 
L 1656 2988 
Q 1863 3284 2130 3434 
Q 2397 3584 2719 3584 
Q 3081 3584 3359 3409 
Q 3638 3234 3781 2919 
z
" transform="scale(0.015625)"/>
      <path id="DejaVuSans-Bold-73" d="M 3272 3391 
L 3272 2541 
Q 2913 2691 2578 2766 
Q 2244 2841 1947 2841 
Q 1628 2841 1473 2761 
Q 1319 2681 1319 2516 
Q 1319 2381 1436 2309 
Q 1553 2238 1856 2203 
L 2053 2175 
Q 2913 2066 3209 1816 
Q 3506 1566 3506 1031 
Q 3506 472 3093 190 
Q 2681 -91 1863 -91 
Q 1516 -91 1145 -36 
Q 775 19 384 128 
L 384 978 
Q 719 816 1070 734 
Q 1422 653 1784 653 
Q 2113 653 2278 743 
Q 2444 834 2444 1013 
Q 2444 1163 2330 1236 
Q 2216 1309 1875 1350 
L 1678 1375 
Q 931 1469 631 1722 
Q 331 1975 331 2491 
Q 331 3047 712 3315 
Q 1094 3584 1881 3584 
Q 2191 3584 2531 3537 
Q 2872 3491 3272 3391 
z
" transform="scale(0.015625)"/>
      <path id="DejaVuSans-Bold-70" d="M 1656 506 
L 1656 -1331 
L 538 -1331 
L 538 3500 
L 1656 3500 
L 1656 2988 
Q 1888 3294 2169 3439 
Q 2450 3584 2816 3584 
Q 3463 3584 3878 3070 
Q 4294 2556 4294 1747 
Q 4294 938 3878 423 
Q 3463 -91 2816 -91 
Q 2450 -91 2169 54 
Q 1888 200 1656 506 
z
M 2400 2772 
Q 2041 2772 1848 2508 
Q 1656 2244 1656 1747 
Q 1656 1250 1848 986 
Q 2041 722 2400 722 
Q 2759 722 2948 984 
Q 3138 1247 3138 1747 
Q 3138 2247 2948 2509 
Q 2759 2772 2400 2772 
z
" transform="scale(0.015625)"/>
      <path id="DejaVuSans-Bold-72" d="M 3138 2547 
Q 2991 2616 2845 2648 
Q 2700 2681 2553 2681 
Q 2122 2681 1889 2404 
Q 1656 2128 1656 1613 
L 1656 0 
L 538 0 
L 538 3500 
L 1656 3500 
L 1656 2925 
Q 1872 3269 2151 3426 
Q 2431 3584 2822 3584 
Q 2878 3584 2943 3579 
Q 3009 3575 3134 3559 
L 3138 2547 
z
" transform="scale(0.015625)"/>
      <path id="DejaVuSans-Bold-63" d="M 3366 3391 
L 3366 2478 
Q 3138 2634 2908 2709 
Q 2678 2784 2431 2784 
Q 1963 2784 1702 2511 
Q 1441 2238 1441 1747 
Q 1441 1256 1702 982 
Q 1963 709 2431 709 
Q 2694 709 2930 787 
Q 3166 866 3366 1019 
L 3366 103 
Q 3103 6 2833 -42 
Q 2563 -91 2291 -91 
Q 1344 -91 809 395 
Q 275 881 275 1747 
Q 275 2613 809 3098 
Q 1344 3584 2291 3584 
Q 2566 3584 2833 3536 
Q 3100 3488 3366 3391 
z
" transform="scale(0.015625)"/>
      <path id="DejaVuSans-Bold-69" d="M 538 3500 
L 1656 3500 
L 1656 0 
L 538 0 
L 538 3500 
z
M 538 4863 
L 1656 4863 
L 1656 3950 
L 538 3950 
L 538 4863 
z
" transform="scale(0.015625)"/>
      <path id="DejaVuSans-Bold-62" d="M 2400 722 
Q 2759 722 2948 984 
Q 3138 1247 3138 1747 
Q 3138 2247 2948 2509 
Q 2759 2772 2400 2772 
Q 2041 2772 1848 2508 
Q 1656 2244 1656 1747 
Q 1656 1250 1848 986 
Q 2041 722 2400 722 
z
M 1656 2988 
Q 1888 3294 2169 3439 
Q 2450 3584 2816 3584 
Q 3463 3584 3878 3070 
Q 4294 2556 4294 1747 
Q 4294 938 3878 423 
Q 3463 -91 2816 -91 
Q 2450 -91 2169 54 
Q 1888 200 1656 506 
L 1656 0 
L 538 0 
L 538 4863 
L 1656 4863 
L 1656 2988 
z
" transform="scale(0.015625)"/>
      <path id="DejaVuSans-Bold-2d" d="M 347 2297 
L 2309 2297 
L 2309 1388 
L 347 1388 
L 347 2297 
z
" transform="scale(0.015625)"/>
      <path id="DejaVuSans-Bold-64" d="M 2919 2988 
L 2919 4863 
L 4044 4863 
L 4044 0 
L 2919 0 
L 2919 506 
Q 2688 197 2409 53 
Q 2131 -91 1766 -91 
Q 1119 -91 703 423 
Q 288 938 288 1747 
Q 288 2556 703 3070 
Q 1119 3584 1766 3584 
Q 2128 3584 2408 3439 
Q 2688 3294 2919 2988 
z
M 2181 722 
Q 2541 722 2730 984 
Q 2919 1247 2919 1747 
Q 2919 2247 2730 2509 
Q 2541 2772 2181 2772 
Q 1825 2772 1636 2509 
Q 1447 2247 1447 1747 
Q 1447 1247 1636 984 
Q 1825 722 2181 722 
z
" transform="scale(0.015625)"/>
      <path id="DejaVuSans-Bold-76" d="M 97 3500 
L 1216 3500 
L 2088 1081 
L 2956 3500 
L 4078 3500 
L 2700 0 
L 1472 0 
L 97 3500 
z
" transform="scale(0.015625)"/>
      <path id="DejaVuSans-Bold-31" d="M 750 831 
L 1813 831 
L 1813 3847 
L 722 3622 
L 722 4441 
L 1806 4666 
L 2950 4666 
L 2950 831 
L 4013 831 
L 4013 0 
L 750 0 
L 750 831 
z
" transform="scale(0.015625)"/>
      <path id="DejaVuSans-Bold-32" d="M 1844 884 
L 3897 884 
L 3897 0 
L 506 0 
L 506 884 
L 2209 2388 
Q 2438 2594 2547 2791 
Q 2656 2988 2656 3200 
Q 2656 3528 2436 3728 
Q 2216 3928 1850 3928 
Q 1569 3928 1234 3808 
Q 900 3688 519 3450 
L 519 4475 
Q 925 4609 1322 4679 
Q 1719 4750 2100 4750 
Q 2938 4750 3402 4381 
Q 3866 4013 3866 3353 
Q 3866 2972 3669 2642 
Q 3472 2313 2841 1759 
L 1844 884 
z
" transform="scale(0.015625)"/>
     </defs>
     <use xlink:href="#DejaVuSans-Bold-56"/>
     <use xlink:href="#DejaVuSans-Bold-61" transform="translate(71.892578 0)"/>
     <use xlink:href="#DejaVuSans-Bold-7a" transform="translate(139.373047 0)"/>
     <use xlink:href="#DejaVuSans-Bold-61" transform="translate(197.576172 0)"/>
     <use xlink:href="#DejaVuSans-Bold-6f" transform="translate(265.056641 0)"/>
     <use xlink:href="#DejaVuSans-Bold-20" transform="translate(333.757812 0)"/>
     <use xlink:href="#DejaVuSans-Bold-61" transform="translate(368.572266 0)"/>
     <use xlink:href="#DejaVuSans-Bold-66" transform="translate(436.052734 0)"/>
     <use xlink:href="#DejaVuSans-Bold-6c" transform="translate(479.558594 0)"/>
     <use xlink:href="#DejaVuSans-Bold-75" transform="translate(513.835938 0)"/>
     <use xlink:href="#DejaVuSans-Bold-65" transform="translate(585.027344 0)"/>
     <use xlink:href="#DejaVuSans-Bold-6e" transform="translate(652.849609 0)"/>
     <use xlink:href="#DejaVuSans-Bold-74" transform="translate(724.041016 0)"/>
     <use xlink:href="#DejaVuSans-Bold-65" transform="translate(771.84375 0)"/>
     <use xlink:href="#DejaVuSans-Bold-20" transform="translate(839.666016 0)"/>
     <use xlink:href="#DejaVuSans-Bold-6d" transform="translate(874.480469 0)"/>
     <use xlink:href="#DejaVuSans-Bold-65" transform="translate(978.679688 0)"/>
     <use xlink:href="#DejaVuSans-Bold-6e" transform="translate(1046.501953 0)"/>
     <use xlink:href="#DejaVuSans-Bold-73" transform="translate(1117.693359 0)"/>
     <use xlink:href="#DejaVuSans-Bold-61" transform="translate(1177.214844 0)"/>
     <use xlink:href="#DejaVuSans-Bold-6c" transform="translate(1244.695312 0)"/>
     <use xlink:href="#DejaVuSans-Bold-20" transform="translate(1278.972656 0)"/>
     <use xlink:href="#DejaVuSans-Bold-70" transform="translate(1313.787109 0)"/>
     <use xlink:href="#DejaVuSans-Bold-6f" transform="translate(1385.369141 0)"/>
     <use xlink:href="#DejaVuSans-Bold-72" transform="translate(1454.070312 0)"/>
     <use xlink:href="#DejaVuSans-Bold-20" transform="translate(1503.386719 0)"/>
     <use xlink:href="#DejaVuSans-Bold-63" transform="translate(1538.201172 0)"/>
     <use xlink:href="#DejaVuSans-Bold-6f" transform="translate(1597.478516 0)"/>
     <use xlink:href="#DejaVuSans-Bold-6e" transform="translate(1666.179688 0)"/>
     <use xlink:href="#DejaVuSans-Bold-74" transform="translate(1737.371094 0)"/>
     <use xlink:href="#DejaVuSans-Bold-72" transform="translate(1785.173828 0)"/>
     <use xlink:href="#DejaVuSans-Bold-69" transform="translate(1834.490234 0)"/>
     <use xlink:href="#DejaVuSans-Bold-62" transform="translate(1868.767578 0)"/>
     <use xlink:href="#DejaVuSans-Bold-75" transform="translate(1940.349609 0)"/>
     <use xlink:href="#DejaVuSans-Bold-69" transform="translate(2011.541016 0)"/>
     <use xlink:href="#DejaVuSans-Bold-6e" transform="translate(2045.818359 0)"/>
     <use xlink:href="#DejaVuSans-Bold-74" transform="translate(2117.009766 0)"/>
     <use xlink:href="#DejaVuSans-Bold-65" transform="translate(2164.8125 0)"/>
     <use xlink:href="#DejaVuSans-Bold-20" transform="translate(2232.634766 0)"/>
     <use xlink:href="#DejaVuSans-Bold-2d" transform="translate(2267.449219 0)"/>
     <use xlink:href="#DejaVuSans-Bold-20" transform="translate(2308.953125 0)"/>
     <use xlink:href="#DejaVuSans-Bold-6d" transform="translate(2343.767578 0)"/>
     <use xlink:href="#DejaVuSans-Bold-65" transform="translate(2447.966797 0)"/>
     <use xlink:href="#DejaVuSans-Bold-64" transform="translate(2515.789062 0)"/>
     <use xlink:href="#DejaVuSans-Bold-69" transform="translate(2587.371094 0)"/>
     <use xlink:href="#DejaVuSans-Bold-61" transform="translate(2621.648438 0)"/>
     <use xlink:href="#DejaVuSans-Bold-20" transform="translate(2689.128906 0)"/>
     <use xlink:href="#DejaVuSans-Bold-6d" transform="translate(2723.943359 0)"/>
     <use xlink:href="#DejaVuSans-Bold-6f" transform="translate(2828.142578 0)"/>
     <use xlink:href="#DejaVuSans-Bold-76" transform="translate(2896.84375 0)"/>
     <use xlink:href="#DejaVuSans-Bold-65" transform="translate(2962.029297 0)"/>
     <use xlink:href="#DejaVuSans-Bold-6c" transform="translate(3029.851562 0)"/>
     <use xlink:href="#DejaVuSans-Bold-20" transform="translate(3064.128906 0)"/>
     <use xlink:href="#DejaVuSans-Bold-64" transform="translate(3098.943359 0)"/>
     <use xlink:href="#DejaVuSans-Bold-65" transform="translate(3170.525391 0)"/>
     <use xlink:href="#DejaVuSans-Bold-20" transform="translate(3238.347656 0)"/>
     <use xlink:href="#DejaVuSans-Bold-31" transform="translate(3273.162109 0)"/>
     <use xlink:href="#DejaVuSans-Bold-32" transform="translate(3342.742188 0)"/>
     <use xlink:href="#DejaVuSans-Bold-20" transform="translate(3412.322266 0)"/>
     <use xlink:href="#DejaVuSans-Bold-6d" transform="translate(3447.136719 0)"/>
     <use xlink:href="#DejaVuSans-Bold-65" transform="translate(3551.335938 0)"/>
     <use xlink:href="#DejaVuSans-Bold-73" transform="translate(3619.158203 0)"/>
     <use xlink:href="#DejaVuSans-Bold-65" transform="translate(3678.679688 0)"/>
     <use xlink:href="#DejaVuSans-Bold-73" transform="translate(3746.501953 0)"/>
    </g>
   </g>
   <g id="legend_1">
    <g id="line2d_30">
     <path d="M 174.094531 376.926962 
L 184.094531 376.926962 
L 194.094531 376.926962 
" style="fill: none; stroke: #1b75bb; stroke-width: 2; stroke-linecap: square"/>
    </g>
    <g id="text_21">
     <!-- Rio Grande -->
     <g transform="translate(202.094531 380.426962) scale(0.1 -0.1)">
      <defs>
       <path id="DejaVuSans-52" d="M 2841 2188 
Q 3044 2119 3236 1894 
Q 3428 1669 3622 1275 
L 4263 0 
L 3584 0 
L 2988 1197 
Q 2756 1666 2539 1819 
Q 2322 1972 1947 1972 
L 1259 1972 
L 1259 0 
L 628 0 
L 628 4666 
L 2053 4666 
Q 2853 4666 3247 4331 
Q 3641 3997 3641 3322 
Q 3641 2881 3436 2590 
Q 3231 2300 2841 2188 
z
M 1259 4147 
L 1259 2491 
L 2053 2491 
Q 2509 2491 2742 2702 
Q 2975 2913 2975 3322 
Q 2975 3731 2742 3939 
Q 2509 4147 2053 4147 
L 1259 4147 
z
" transform="scale(0.015625)"/>
       <path id="DejaVuSans-47" d="M 3809 666 
L 3809 1919 
L 2778 1919 
L 2778 2438 
L 4434 2438 
L 4434 434 
Q 4069 175 3628 42 
Q 3188 -91 2688 -91 
Q 1594 -91 976 548 
Q 359 1188 359 2328 
Q 359 3472 976 4111 
Q 1594 4750 2688 4750 
Q 3144 4750 3555 4637 
Q 3966 4525 4313 4306 
L 4313 3634 
Q 3963 3931 3569 4081 
Q 3175 4231 2741 4231 
Q 1884 4231 1454 3753 
Q 1025 3275 1025 2328 
Q 1025 1384 1454 906 
Q 1884 428 2741 428 
Q 3075 428 3337 486 
Q 3600 544 3809 666 
z
" transform="scale(0.015625)"/>
      </defs>
      <use xlink:href="#DejaVuSans-52"/>
      <use xlink:href="#DejaVuSans-69" transform="translate(69.482422 0)"/>
      <use xlink:href="#DejaVuSans-6f" transform="translate(97.265625 0)"/>
      <use xlink:href="#DejaVuSans-20" transform="translate(158.447266 0)"/>
      <use xlink:href="#DejaVuSans-47" transform="translate(190.234375 0)"/>
      <use xlink:href="#DejaVuSans-72" transform="translate(267.724609 0)"/>
      <use xlink:href="#DejaVuSans-61" transform="translate(308.837891 0)"/>
      <use xlink:href="#DejaVuSans-6e" transform="translate(370.117188 0)"/>
      <use xlink:href="#DejaVuSans-64" transform="translate(433.496094 0)"/>
      <use xlink:href="#DejaVuSans-65" transform="translate(496.972656 0)"/>
     </g>
    </g>
    <g id="line2d_31">
     <path d="M 277.944531 376.926962 
L 287.944531 376.926962 
L 297.944531 376.926962 
" style="fill: none; stroke: #87714d; stroke-width: 2; stroke-linecap: square"/>
    </g>
    <g id="text_22">
     <!-- Rio Parana / Jupia -->
     <g transform="translate(305.944531 380.426962) scale(0.1 -0.1)">
      <defs>
       <path id="DejaVuSans-50" d="M 1259 4147 
L 1259 2394 
L 2053 2394 
Q 2494 2394 2734 2622 
Q 2975 2850 2975 3272 
Q 2975 3691 2734 3919 
Q 2494 4147 2053 4147 
L 1259 4147 
z
M 628 4666 
L 2053 4666 
Q 2838 4666 3239 4311 
Q 3641 3956 3641 3272 
Q 3641 2581 3239 2228 
Q 2838 1875 2053 1875 
L 1259 1875 
L 1259 0 
L 628 0 
L 628 4666 
z
" transform="scale(0.015625)"/>
       <path id="DejaVuSans-4a" d="M 628 4666 
L 1259 4666 
L 1259 325 
Q 1259 -519 939 -900 
Q 619 -1281 -91 -1281 
L -331 -1281 
L -331 -750 
L -134 -750 
Q 284 -750 456 -515 
Q 628 -281 628 325 
L 628 4666 
z
" transform="scale(0.015625)"/>
       <path id="DejaVuSans-70" d="M 1159 525 
L 1159 -1331 
L 581 -1331 
L 581 3500 
L 1159 3500 
L 1159 2969 
Q 1341 3281 1617 3432 
Q 1894 3584 2278 3584 
Q 2916 3584 3314 3078 
Q 3713 2572 3713 1747 
Q 3713 922 3314 415 
Q 2916 -91 2278 -91 
Q 1894 -91 1617 61 
Q 1341 213 1159 525 
z
M 3116 1747 
Q 3116 2381 2855 2742 
Q 2594 3103 2138 3103 
Q 1681 3103 1420 2742 
Q 1159 2381 1159 1747 
Q 1159 1113 1420 752 
Q 1681 391 2138 391 
Q 2594 391 2855 752 
Q 3116 1113 3116 1747 
z
" transform="scale(0.015625)"/>
      </defs>
      <use xlink:href="#DejaVuSans-52"/>
      <use xlink:href="#DejaVuSans-69" transform="translate(69.482422 0)"/>
      <use xlink:href="#DejaVuSans-6f" transform="translate(97.265625 0)"/>
      <use xlink:href="#DejaVuSans-20" transform="translate(158.447266 0)"/>
      <use xlink:href="#DejaVuSans-50" transform="translate(190.234375 0)"/>
      <use xlink:href="#DejaVuSans-61" transform="translate(246.037109 0)"/>
      <use xlink:href="#DejaVuSans-72" transform="translate(307.316406 0)"/>
      <use xlink:href="#DejaVuSans-61" transform="translate(348.429688 0)"/>
      <use xlink:href="#DejaVuSans-6e" transform="translate(409.708984 0)"/>
      <use xlink:href="#DejaVuSans-61" transform="translate(473.087891 0)"/>
      <use xlink:href="#DejaVuSans-20" transform="translate(534.367188 0)"/>
      <use xlink:href="#DejaVuSans-2f" transform="translate(566.154297 0)"/>
      <use xlink:href="#DejaVuSans-20" transform="translate(599.845703 0)"/>
      <use xlink:href="#DejaVuSans-4a" transform="translate(631.632812 0)"/>
      <use xlink:href="#DejaVuSans-75" transform="translate(661.125 0)"/>
      <use xlink:href="#DejaVuSans-70" transform="translate(724.503906 0)"/>
      <use xlink:href="#DejaVuSans-69" transform="translate(787.980469 0)"/>
      <use xlink:href="#DejaVuSans-61" transform="translate(815.763672 0)"/>
     </g>
    </g>
    <g id="line2d_32">
     <path d="M 413.647656 376.926962 
L 423.647656 376.926962 
L 433.647656 376.926962 
" style="fill: none; stroke: #0f7b5f; stroke-width: 2; stroke-linecap: square"/>
    </g>
    <g id="text_23">
     <!-- Rio Paranaiba -->
     <g transform="translate(441.647656 380.426962) scale(0.1 -0.1)">
      <use xlink:href="#DejaVuSans-52"/>
      <use xlink:href="#DejaVuSans-69" transform="translate(69.482422 0)"/>
      <use xlink:href="#DejaVuSans-6f" transform="translate(97.265625 0)"/>
      <use xlink:href="#DejaVuSans-20" transform="translate(158.447266 0)"/>
      <use xlink:href="#DejaVuSans-50" transform="translate(190.234375 0)"/>
      <use xlink:href="#DejaVuSans-61" transform="translate(246.037109 0)"/>
      <use xlink:href="#DejaVuSans-72" transform="translate(307.316406 0)"/>
      <use xlink:href="#DejaVuSans-61" transform="translate(348.429688 0)"/>
      <use xlink:href="#DejaVuSans-6e" transform="translate(409.708984 0)"/>
      <use xlink:href="#DejaVuSans-61" transform="translate(473.087891 0)"/>
      <use xlink:href="#DejaVuSans-69" transform="translate(534.367188 0)"/>
      <use xlink:href="#DejaVuSans-62" transform="translate(562.150391 0)"/>
      <use xlink:href="#DejaVuSans-61" transform="translate(625.626953 0)"/>
     </g>
    </g>
    <g id="line2d_33">
     <path d="M 530.338281 376.926962 
L 540.338281 376.926962 
L 550.338281 376.926962 
" style="fill: none; stroke: #c75d2c; stroke-width: 2; stroke-linecap: square"/>
    </g>
    <g id="text_24">
     <!-- Rio Tiete -->
     <g transform="translate(558.338281 380.426962) scale(0.1 -0.1)">
      <defs>
       <path id="DejaVuSans-54" d="M -19 4666 
L 3928 4666 
L 3928 4134 
L 2272 4134 
L 2272 0 
L 1638 0 
L 1638 4134 
L -19 4134 
L -19 4666 
z
" transform="scale(0.015625)"/>
      </defs>
      <use xlink:href="#DejaVuSans-52"/>
      <use xlink:href="#DejaVuSans-69" transform="translate(69.482422 0)"/>
      <use xlink:href="#DejaVuSans-6f" transform="translate(97.265625 0)"/>
      <use xlink:href="#DejaVuSans-20" transform="translate(158.447266 0)"/>
      <use xlink:href="#DejaVuSans-54" transform="translate(190.234375 0)"/>
      <use xlink:href="#DejaVuSans-69" transform="translate(248.193359 0)"/>
      <use xlink:href="#DejaVuSans-65" transform="translate(275.976562 0)"/>
      <use xlink:href="#DejaVuSans-74" transform="translate(337.5 0)"/>
      <use xlink:href="#DejaVuSans-65" transform="translate(376.708984 0)"/>
     </g>
    </g>
   </g>
  </g>
 </g>
 <defs>
  <clipPath id="p8eadef6d94">
   <rect x="53.328125" y="22.318125" width="669.6" height="304.92"/>
  </clipPath>
 </defs>
</svg>
