<?xml version="1.0" encoding="utf-8" standalone="no"?>
<!DOCTYPE svg PUBLIC "-//W3C//DTD SVG 1.1//EN"
  "http://www.w3.org/Graphics/SVG/1.1/DTD/svg11.dtd">
<svg xmlns:xlink="http://www.w3.org/1999/xlink" width="773.071875pt" height="412.539844pt" viewBox="0 0 773.071875 412.539844" xmlns="http://www.w3.org/2000/svg" version="1.1">
 <metadata>
  <rdf:RDF xmlns:dc="http://purl.org/dc/elements/1.1/" xmlns:cc="http://creativecommons.org/ns#" xmlns:rdf="http://www.w3.org/1999/02/22-rdf-syntax-ns#">
   <cc:Work>
    <dc:type rdf:resource="http://purl.org/dc/dcmitype/StillImage"/>
    <dc:date>2026-06-07T20:20:10.898011</dc:date>
    <dc:format>image/svg+xml</dc:format>
    <dc:creator>
     <cc:Agent>
      <dc:title>Matplotlib v3.10.9, https://matplotlib.org/</dc:title>
     </cc:Agent>
    </dc:creator>
   </cc:Work>
  </rdf:RDF>
 </metadata>
 <defs>
  <style type="text/css">*{stroke-linejoin: round; stroke-linecap: butt}</style>
 </defs>
 <g id="figure_1">
  <g id="patch_1">
   <path d="M 0 412.539844 
L 773.071875 412.539844 
L 773.071875 0 
L 0 0 
z
" style="fill: #ffffff"/>
  </g>
  <g id="axes_1">
   <g id="patch_2">
    <path d="M 53.328125 327.238125 
L 722.928125 327.238125 
L 722.928125 22.318125 
L 53.328125 22.318125 
z
" style="fill: #ffffff"/>
   </g>
   <g id="matplotlib.axis_1">
    <g id="xtick_1">
     <g id="line2d_1">
      <defs>
       <path id="md869d89b65" d="M 0 0 
L 0 3.5 
" style="stroke: #475569; stroke-width: 0.8"/>
      </defs>
      <g>
       <use xlink:href="#md869d89b65" x="73.830352" y="327.238125" style="fill: #475569; stroke: #475569; stroke-width: 0.8"/>
      </g>
     </g>
     <g id="text_1">
      <!-- 2000 -->
      <g style="fill: #475569" transform="translate(61.105352 341.836562) scale(0.1 -0.1)">
       <defs>
        <path id="DejaVuSans-32" d="M 1228 531 
L 3431 531 
L 3431 0 
L 469 0 
L 469 531 
Q 828 903 1448 1529 
Q 2069 2156 2228 2338 
Q 2531 2678 2651 2914 
Q 2772 3150 2772 3378 
Q 2772 3750 2511 3984 
Q 2250 4219 1831 4219 
Q 1534 4219 1204 4116 
Q 875 4013 500 3803 
L 500 4441 
Q 881 4594 1212 4672 
Q 1544 4750 1819 4750 
Q 2544 4750 2975 4387 
Q 3406 4025 3406 3419 
Q 3406 3131 3298 2873 
Q 3191 2616 2906 2266 
Q 2828 2175 2409 1742 
Q 1991 1309 1228 531 
z
" transform="scale(0.015625)"/>
        <path id="DejaVuSans-30" d="M 2034 4250 
Q 1547 4250 1301 3770 
Q 1056 3291 1056 2328 
Q 1056 1369 1301 889 
Q 1547 409 2034 409 
Q 2525 409 2770 889 
Q 3016 1369 3016 2328 
Q 3016 3291 2770 3770 
Q 2525 4250 2034 4250 
z
M 2034 4750 
Q 2819 4750 3233 4129 
Q 3647 3509 3647 2328 
Q 3647 1150 3233 529 
Q 2819 -91 2034 -91 
Q 1250 -91 836 529 
Q 422 1150 422 2328 
Q 422 3509 836 4129 
Q 1250 4750 2034 4750 
z
" transform="scale(0.015625)"/>
       </defs>
       <use xlink:href="#DejaVuSans-32"/>
       <use xlink:href="#DejaVuSans-30" transform="translate(63.623047 0)"/>
       <use xlink:href="#DejaVuSans-30" transform="translate(127.246094 0)"/>
       <use xlink:href="#DejaVuSans-30" transform="translate(190.869141 0)"/>
      </g>
     </g>
    </g>
    <g id="xtick_2">
     <g id="line2d_2">
      <g>
       <use xlink:href="#md869d89b65" x="169.315702" y="327.238125" style="fill: #475569; stroke: #475569; stroke-width: 0.8"/>
      </g>
     </g>
     <g id="text_2">
      <!-- 2004 -->
      <g style="fill: #475569" transform="translate(156.590702 341.836562) scale(0.1 -0.1)">
       <defs>
        <path id="DejaVuSans-34" d="M 2419 4116 
L 825 1625 
L 2419 1625 
L 2419 4116 
z
M 2253 4666 
L 3047 4666 
L 3047 1625 
L 3713 1625 
L 3713 1100 
L 3047 1100 
L 3047 0 
L 2419 0 
L 2419 1100 
L 313 1100 
L 313 1709 
L 2253 4666 
z
" transform="scale(0.015625)"/>
       </defs>
       <use xlink:href="#DejaVuSans-32"/>
       <use xlink:href="#DejaVuSans-30" transform="translate(63.623047 0)"/>
       <use xlink:href="#DejaVuSans-30" transform="translate(127.246094 0)"/>
       <use xlink:href="#DejaVuSans-34" transform="translate(190.869141 0)"/>
      </g>
     </g>
    </g>
    <g id="xtick_3">
     <g id="line2d_3">
      <g>
       <use xlink:href="#md869d89b65" x="264.801051" y="327.238125" style="fill: #475569; stroke: #475569; stroke-width: 0.8"/>
      </g>
     </g>
     <g id="text_3">
      <!-- 2008 -->
      <g style="fill: #475569" transform="translate(252.076051 341.836562) scale(0.1 -0.1)">
       <defs>
        <path id="DejaVuSans-38" d="M 2034 2216 
Q 1584 2216 1326 1975 
Q 1069 1734 1069 1313 
Q 1069 891 1326 650 
Q 1584 409 2034 409 
Q 2484 409 2743 651 
Q 3003 894 3003 1313 
Q 3003 1734 2745 1975 
Q 2488 2216 2034 2216 
z
M 1403 2484 
Q 997 2584 770 2862 
Q 544 3141 544 3541 
Q 544 4100 942 4425 
Q 1341 4750 2034 4750 
Q 2731 4750 3128 4425 
Q 3525 4100 3525 3541 
Q 3525 3141 3298 2862 
Q 3072 2584 2669 2484 
Q 3125 2378 3379 2068 
Q 3634 1759 3634 1313 
Q 3634 634 3220 271 
Q 2806 -91 2034 -91 
Q 1263 -91 848 271 
Q 434 634 434 1313 
Q 434 1759 690 2068 
Q 947 2378 1403 2484 
z
M 1172 3481 
Q 1172 3119 1398 2916 
Q 1625 2713 2034 2713 
Q 2441 2713 2670 2916 
Q 2900 3119 2900 3481 
Q 2900 3844 2670 4047 
Q 2441 4250 2034 4250 
Q 1625 4250 1398 4047 
Q 1172 3844 1172 3481 
z
" transform="scale(0.015625)"/>
       </defs>
       <use xlink:href="#DejaVuSans-32"/>
       <use xlink:href="#DejaVuSans-30" transform="translate(63.623047 0)"/>
       <use xlink:href="#DejaVuSans-30" transform="translate(127.246094 0)"/>
       <use xlink:href="#DejaVuSans-38" transform="translate(190.869141 0)"/>
      </g>
     </g>
    </g>
    <g id="xtick_4">
     <g id="line2d_4">
      <g>
       <use xlink:href="#md869d89b65" x="360.286401" y="327.238125" style="fill: #475569; stroke: #475569; stroke-width: 0.8"/>
      </g>
     </g>
     <g id="text_4">
      <!-- 2012 -->
      <g style="fill: #475569" transform="translate(347.561401 341.836562) scale(0.1 -0.1)">
       <defs>
        <path id="DejaVuSans-31" d="M 794 531 
L 1825 531 
L 1825 4091 
L 703 3866 
L 703 4441 
L 1819 4666 
L 2450 4666 
L 2450 531 
L 3481 531 
L 3481 0 
L 794 0 
L 794 531 
z
" transform="scale(0.015625)"/>
       </defs>
       <use xlink:href="#DejaVuSans-32"/>
       <use xlink:href="#DejaVuSans-30" transform="translate(63.623047 0)"/>
       <use xlink:href="#DejaVuSans-31" transform="translate(127.246094 0)"/>
       <use xlink:href="#DejaVuSans-32" transform="translate(190.869141 0)"/>
      </g>
     </g>
    </g>
    <g id="xtick_5">
     <g id="line2d_5">
      <g>
       <use xlink:href="#md869d89b65" x="455.77175" y="327.238125" style="fill: #475569; stroke: #475569; stroke-width: 0.8"/>
      </g>
     </g>
     <g id="text_5">
      <!-- 2016 -->
      <g style="fill: #475569" transform="translate(443.04675 341.836562) scale(0.1 -0.1)">
       <defs>
        <path id="DejaVuSans-36" d="M 2113 2584 
Q 1688 2584 1439 2293 
Q 1191 2003 1191 1497 
Q 1191 994 1439 701 
Q 1688 409 2113 409 
Q 2538 409 2786 701 
Q 3034 994 3034 1497 
Q 3034 2003 2786 2293 
Q 2538 2584 2113 2584 
z
M 3366 4563 
L 3366 3988 
Q 3128 4100 2886 4159 
Q 2644 4219 2406 4219 
Q 1781 4219 1451 3797 
Q 1122 3375 1075 2522 
Q 1259 2794 1537 2939 
Q 1816 3084 2150 3084 
Q 2853 3084 3261 2657 
Q 3669 2231 3669 1497 
Q 3669 778 3244 343 
Q 2819 -91 2113 -91 
Q 1303 -91 875 529 
Q 447 1150 447 2328 
Q 447 3434 972 4092 
Q 1497 4750 2381 4750 
Q 2619 4750 2861 4703 
Q 3103 4656 3366 4563 
z
" transform="scale(0.015625)"/>
       </defs>
       <use xlink:href="#DejaVuSans-32"/>
       <use xlink:href="#DejaVuSans-30" transform="translate(63.623047 0)"/>
       <use xlink:href="#DejaVuSans-31" transform="translate(127.246094 0)"/>
       <use xlink:href="#DejaVuSans-36" transform="translate(190.869141 0)"/>
      </g>
     </g>
    </g>
    <g id="xtick_6">
     <g id="line2d_6">
      <g>
       <use xlink:href="#md869d89b65" x="551.2571" y="327.238125" style="fill: #475569; stroke: #475569; stroke-width: 0.8"/>
      </g>
     </g>
     <g id="text_6">
      <!-- 2020 -->
      <g style="fill: #475569" transform="translate(538.5321 341.836562) scale(0.1 -0.1)">
       <use xlink:href="#DejaVuSans-32"/>
       <use xlink:href="#DejaVuSans-30" transform="translate(63.623047 0)"/>
       <use xlink:href="#DejaVuSans-32" transform="translate(127.246094 0)"/>
       <use xlink:href="#DejaVuSans-30" transform="translate(190.869141 0)"/>
      </g>
     </g>
    </g>
    <g id="xtick_7">
     <g id="line2d_7">
      <g>
       <use xlink:href="#md869d89b65" x="646.742449" y="327.238125" style="fill: #475569; stroke: #475569; stroke-width: 0.8"/>
      </g>
     </g>
     <g id="text_7">
      <!-- 2024 -->
      <g style="fill: #475569" transform="translate(634.017449 341.836562) scale(0.1 -0.1)">
       <use xlink:href="#DejaVuSans-32"/>
       <use xlink:href="#DejaVuSans-30" transform="translate(63.623047 0)"/>
       <use xlink:href="#DejaVuSans-32" transform="translate(127.246094 0)"/>
       <use xlink:href="#DejaVuSans-34" transform="translate(190.869141 0)"/>
      </g>
     </g>
    </g>
   </g>
   <g id="matplotlib.axis_2">
    <g id="ytick_1">
     <g id="line2d_8">
      <path d="M 53.328125 282.106182 
L 722.928125 282.106182 
" clip-path="url(#p5a3ae66dbc)" style="fill: none; stroke: #b0b0b0; stroke-opacity: 0.25; stroke-width: 0.8; stroke-linecap: square"/>
     </g>
     <g id="line2d_9">
      <defs>
       <path id="m9250f79869" d="M 0 0 
L -3.5 0 
" style="stroke: #475569; stroke-width: 0.8"/>
      </defs>
      <g>
       <use xlink:href="#m9250f79869" x="53.328125" y="282.106182" style="fill: #475569; stroke: #475569; stroke-width: 0.8"/>
      </g>
     </g>
     <g id="text_8">
      <!-- 4000 -->
      <g style="fill: #475569" transform="translate(20.878125 285.905401) scale(0.1 -0.1)">
       <use xlink:href="#DejaVuSans-34"/>
       <use xlink:href="#DejaVuSans-30" transform="translate(63.623047 0)"/>
       <use xlink:href="#DejaVuSans-30" transform="translate(127.246094 0)"/>
       <use xlink:href="#DejaVuSans-30" transform="translate(190.869141 0)"/>
      </g>
     </g>
    </g>
    <g id="ytick_2">
     <g id="line2d_10">
      <path d="M 53.328125 225.302018 
L 722.928125 225.302018 
" clip-path="url(#p5a3ae66dbc)" style="fill: none; stroke: #b0b0b0; stroke-opacity: 0.25; stroke-width: 0.8; stroke-linecap: square"/>
     </g>
     <g id="line2d_11">
      <g>
       <use xlink:href="#m9250f79869" x="53.328125" y="225.302018" style="fill: #475569; stroke: #475569; stroke-width: 0.8"/>
      </g>
     </g>
     <g id="text_9">
      <!-- 5000 -->
      <g style="fill: #475569" transform="translate(20.878125 229.101237) scale(0.1 -0.1)">
       <defs>
        <path id="DejaVuSans-35" d="M 691 4666 
L 3169 4666 
L 3169 4134 
L 1269 4134 
L 1269 2991 
Q 1406 3038 1543 3061 
Q 1681 3084 1819 3084 
Q 2600 3084 3056 2656 
Q 3513 2228 3513 1497 
Q 3513 744 3044 326 
Q 2575 -91 1722 -91 
Q 1428 -91 1123 -41 
Q 819 9 494 109 
L 494 744 
Q 775 591 1075 516 
Q 1375 441 1709 441 
Q 2250 441 2565 725 
Q 2881 1009 2881 1497 
Q 2881 1984 2565 2268 
Q 2250 2553 1709 2553 
Q 1456 2553 1204 2497 
Q 953 2441 691 2322 
L 691 4666 
z
" transform="scale(0.015625)"/>
       </defs>
       <use xlink:href="#DejaVuSans-35"/>
       <use xlink:href="#DejaVuSans-30" transform="translate(63.623047 0)"/>
       <use xlink:href="#DejaVuSans-30" transform="translate(127.246094 0)"/>
       <use xlink:href="#DejaVuSans-30" transform="translate(190.869141 0)"/>
      </g>
     </g>
    </g>
    <g id="ytick_3">
     <g id="line2d_12">
      <path d="M 53.328125 168.497854 
L 722.928125 168.497854 
" clip-path="url(#p5a3ae66dbc)" style="fill: none; stroke: #b0b0b0; stroke-opacity: 0.25; stroke-width: 0.8; stroke-linecap: square"/>
     </g>
     <g id="line2d_13">
      <g>
       <use xlink:href="#m9250f79869" x="53.328125" y="168.497854" style="fill: #475569; stroke: #475569; stroke-width: 0.8"/>
      </g>
     </g>
     <g id="text_10">
      <!-- 6000 -->
      <g style="fill: #475569" transform="translate(20.878125 172.297073) scale(0.1 -0.1)">
       <use xlink:href="#DejaVuSans-36"/>
       <use xlink:href="#DejaVuSans-30" transform="translate(63.623047 0)"/>
       <use xlink:href="#DejaVuSans-30" transform="translate(127.246094 0)"/>
       <use xlink:href="#DejaVuSans-30" transform="translate(190.869141 0)"/>
      </g>
     </g>
    </g>
    <g id="ytick_4">
     <g id="line2d_14">
      <path d="M 53.328125 111.69369 
L 722.928125 111.69369 
" clip-path="url(#p5a3ae66dbc)" style="fill: none; stroke: #b0b0b0; stroke-opacity: 0.25; stroke-width: 0.8; stroke-linecap: square"/>
     </g>
     <g id="line2d_15">
      <g>
       <use xlink:href="#m9250f79869" x="53.328125" y="111.69369" style="fill: #475569; stroke: #475569; stroke-width: 0.8"/>
      </g>
     </g>
     <g id="text_11">
      <!-- 7000 -->
      <g style="fill: #475569" transform="translate(20.878125 115.492909) scale(0.1 -0.1)">
       <defs>
        <path id="DejaVuSans-37" d="M 525 4666 
L 3525 4666 
L 3525 4397 
L 1831 0 
L 1172 0 
L 2766 4134 
L 525 4134 
L 525 4666 
z
" transform="scale(0.015625)"/>
       </defs>
       <use xlink:href="#DejaVuSans-37"/>
       <use xlink:href="#DejaVuSans-30" transform="translate(63.623047 0)"/>
       <use xlink:href="#DejaVuSans-30" transform="translate(127.246094 0)"/>
       <use xlink:href="#DejaVuSans-30" transform="translate(190.869141 0)"/>
      </g>
     </g>
    </g>
    <g id="ytick_5">
     <g id="line2d_16">
      <path d="M 53.328125 54.889526 
L 722.928125 54.889526 
" clip-path="url(#p5a3ae66dbc)" style="fill: none; stroke: #b0b0b0; stroke-opacity: 0.25; stroke-width: 0.8; stroke-linecap: square"/>
     </g>
     <g id="line2d_17">
      <g>
       <use xlink:href="#m9250f79869" x="53.328125" y="54.889526" style="fill: #475569; stroke: #475569; stroke-width: 0.8"/>
      </g>
     </g>
     <g id="text_12">
      <!-- 8000 -->
      <g style="fill: #475569" transform="translate(20.878125 58.688745) scale(0.1 -0.1)">
       <use xlink:href="#DejaVuSans-38"/>
       <use xlink:href="#DejaVuSans-30" transform="translate(63.623047 0)"/>
       <use xlink:href="#DejaVuSans-30" transform="translate(127.246094 0)"/>
       <use xlink:href="#DejaVuSans-30" transform="translate(190.869141 0)"/>
      </g>
     </g>
    </g>
    <g id="text_13">
     <!-- Vazao (m3/s) -->
     <g style="fill: #334155" transform="translate(14.798438 207.453906) rotate(-90) scale(0.1 -0.1)">
      <defs>
       <path id="DejaVuSans-56" d="M 1831 0 
L 50 4666 
L 709 4666 
L 2188 738 
L 3669 4666 
L 4325 4666 
L 2547 0 
L 1831 0 
z
" transform="scale(0.015625)"/>
       <path id="DejaVuSans-61" d="M 2194 1759 
Q 1497 1759 1228 1600 
Q 959 1441 959 1056 
Q 959 750 1161 570 
Q 1363 391 1709 391 
Q 2188 391 2477 730 
Q 2766 1069 2766 1631 
L 2766 1759 
L 2194 1759 
z
M 3341 1997 
L 3341 0 
L 2766 0 
L 2766 531 
Q 2569 213 2275 61 
Q 1981 -91 1556 -91 
Q 1019 -91 701 211 
Q 384 513 384 1019 
Q 384 1609 779 1909 
Q 1175 2209 1959 2209 
L 2766 2209 
L 2766 2266 
Q 2766 2663 2505 2880 
Q 2244 3097 1772 3097 
Q 1472 3097 1187 3025 
Q 903 2953 641 2809 
L 641 3341 
Q 956 3463 1253 3523 
Q 1550 3584 1831 3584 
Q 2591 3584 2966 3190 
Q 3341 2797 3341 1997 
z
" transform="scale(0.015625)"/>
       <path id="DejaVuSans-7a" d="M 353 3500 
L 3084 3500 
L 3084 2975 
L 922 459 
L 3084 459 
L 3084 0 
L 275 0 
L 275 525 
L 2438 3041 
L 353 3041 
L 353 3500 
z
" transform="scale(0.015625)"/>
       <path id="DejaVuSans-6f" d="M 1959 3097 
Q 1497 3097 1228 2736 
Q 959 2375 959 1747 
Q 959 1119 1226 758 
Q 1494 397 1959 397 
Q 2419 397 2687 759 
Q 2956 1122 2956 1747 
Q 2956 2369 2687 2733 
Q 2419 3097 1959 3097 
z
M 1959 3584 
Q 2709 3584 3137 3096 
Q 3566 2609 3566 1747 
Q 3566 888 3137 398 
Q 2709 -91 1959 -91 
Q 1206 -91 779 398 
Q 353 888 353 1747 
Q 353 2609 779 3096 
Q 1206 3584 1959 3584 
z
" transform="scale(0.015625)"/>
       <path id="DejaVuSans-20" transform="scale(0.015625)"/>
       <path id="DejaVuSans-28" d="M 1984 4856 
Q 1566 4138 1362 3434 
Q 1159 2731 1159 2009 
Q 1159 1288 1364 580 
Q 1569 -128 1984 -844 
L 1484 -844 
Q 1016 -109 783 600 
Q 550 1309 550 2009 
Q 550 2706 781 3412 
Q 1013 4119 1484 4856 
L 1984 4856 
z
" transform="scale(0.015625)"/>
       <path id="DejaVuSans-6d" d="M 3328 2828 
Q 3544 3216 3844 3400 
Q 4144 3584 4550 3584 
Q 5097 3584 5394 3201 
Q 5691 2819 5691 2113 
L 5691 0 
L 5113 0 
L 5113 2094 
Q 5113 2597 4934 2840 
Q 4756 3084 4391 3084 
Q 3944 3084 3684 2787 
Q 3425 2491 3425 1978 
L 3425 0 
L 2847 0 
L 2847 2094 
Q 2847 2600 2669 2842 
Q 2491 3084 2119 3084 
Q 1678 3084 1418 2786 
Q 1159 2488 1159 1978 
L 1159 0 
L 581 0 
L 581 3500 
L 1159 3500 
L 1159 2956 
Q 1356 3278 1631 3431 
Q 1906 3584 2284 3584 
Q 2666 3584 2933 3390 
Q 3200 3197 3328 2828 
z
" transform="scale(0.015625)"/>
       <path id="DejaVuSans-33" d="M 2597 2516 
Q 3050 2419 3304 2112 
Q 3559 1806 3559 1356 
Q 3559 666 3084 287 
Q 2609 -91 1734 -91 
Q 1441 -91 1130 -33 
Q 819 25 488 141 
L 488 750 
Q 750 597 1062 519 
Q 1375 441 1716 441 
Q 2309 441 2620 675 
Q 2931 909 2931 1356 
Q 2931 1769 2642 2001 
Q 2353 2234 1838 2234 
L 1294 2234 
L 1294 2753 
L 1863 2753 
Q 2328 2753 2575 2939 
Q 2822 3125 2822 3475 
Q 2822 3834 2567 4026 
Q 2313 4219 1838 4219 
Q 1578 4219 1281 4162 
Q 984 4106 628 3988 
L 628 4550 
Q 988 4650 1302 4700 
Q 1616 4750 1894 4750 
Q 2613 4750 3031 4423 
Q 3450 4097 3450 3541 
Q 3450 3153 3228 2886 
Q 3006 2619 2597 2516 
z
" transform="scale(0.015625)"/>
       <path id="DejaVuSans-2f" d="M 1625 4666 
L 2156 4666 
L 531 -594 
L 0 -594 
L 1625 4666 
z
" transform="scale(0.015625)"/>
       <path id="DejaVuSans-73" d="M 2834 3397 
L 2834 2853 
Q 2591 2978 2328 3040 
Q 2066 3103 1784 3103 
Q 1356 3103 1142 2972 
Q 928 2841 928 2578 
Q 928 2378 1081 2264 
Q 1234 2150 1697 2047 
L 1894 2003 
Q 2506 1872 2764 1633 
Q 3022 1394 3022 966 
Q 3022 478 2636 193 
Q 2250 -91 1575 -91 
Q 1294 -91 989 -36 
Q 684 19 347 128 
L 347 722 
Q 666 556 975 473 
Q 1284 391 1588 391 
Q 1994 391 2212 530 
Q 2431 669 2431 922 
Q 2431 1156 2273 1281 
Q 2116 1406 1581 1522 
L 1381 1569 
Q 847 1681 609 1914 
Q 372 2147 372 2553 
Q 372 3047 722 3315 
Q 1072 3584 1716 3584 
Q 2034 3584 2315 3537 
Q 2597 3491 2834 3397 
z
" transform="scale(0.015625)"/>
       <path id="DejaVuSans-29" d="M 513 4856 
L 1013 4856 
Q 1481 4119 1714 3412 
Q 1947 2706 1947 2009 
Q 1947 1309 1714 600 
Q 1481 -109 1013 -844 
L 513 -844 
Q 928 -128 1133 580 
Q 1338 1288 1338 2009 
Q 1338 2731 1133 3434 
Q 928 4138 513 4856 
z
" transform="scale(0.015625)"/>
      </defs>
      <use xlink:href="#DejaVuSans-56"/>
      <use xlink:href="#DejaVuSans-61" transform="translate(60.658203 0)"/>
      <use xlink:href="#DejaVuSans-7a" transform="translate(121.9375 0)"/>
      <use xlink:href="#DejaVuSans-61" transform="translate(174.427734 0)"/>
      <use xlink:href="#DejaVuSans-6f" transform="translate(235.707031 0)"/>
      <use xlink:href="#DejaVuSans-20" transform="translate(296.888672 0)"/>
      <use xlink:href="#DejaVuSans-28" transform="translate(328.675781 0)"/>
      <use xlink:href="#DejaVuSans-6d" transform="translate(367.689453 0)"/>
      <use xlink:href="#DejaVuSans-33" transform="translate(465.101562 0)"/>
      <use xlink:href="#DejaVuSans-2f" transform="translate(528.724609 0)"/>
      <use xlink:href="#DejaVuSans-73" transform="translate(562.416016 0)"/>
      <use xlink:href="#DejaVuSans-29" transform="translate(614.515625 0)"/>
     </g>
    </g>
   </g>
   <g id="line2d_18">
    <path d="M 83.764489 126.365121 
L 85.725173 125.810245 
L 87.751214 126.833431 
L 89.777255 132.663904 
L 93.763981 139.527289 
L 95.724666 143.161571 
L 97.750707 142.79555 
L 99.776748 141.682669 
L 101.60672 145.877015 
L 103.632761 150.998542 
L 105.593446 159.756156 
L 107.619487 174.560583 
L 109.580172 191.904941 
L 111.606213 207.007671 
L 113.632254 218.442665 
L 115.592938 231.89273 
L 117.618979 244.250792 
L 119.579664 254.287263 
L 121.605705 260.097017 
L 123.631746 252.39497 
L 125.461719 246.388803 
L 127.48776 242.711282 
L 129.448444 240.471404 
L 131.474485 236.126635 
L 137.487252 212.161123 
L 139.447937 201.436189 
L 141.473978 193.574289 
L 143.434663 186.720108 
L 145.460704 189.34967 
L 147.486744 195.244673 
L 149.316717 199.200901 
L 151.342758 196.768302 
L 153.303443 195.563782 
L 155.329484 193.446763 
L 157.290168 189.868426 
L 159.316209 185.404871 
L 161.34225 179.33138 
L 163.302935 172.084868 
L 165.328976 167.543481 
L 167.289661 164.379866 
L 169.315702 159.619988 
L 171.341743 162.750611 
L 173.237071 160.95419 
L 175.263112 158.076815 
L 177.223797 157.067084 
L 179.249838 154.960258 
L 181.210523 157.415806 
L 183.236564 159.631124 
L 185.262605 160.810956 
L 187.22329 166.853786 
L 189.249331 167.960781 
L 191.210015 166.014188 
L 193.236056 144.777741 
L 195.262097 130.319727 
L 197.09207 128.487324 
L 199.118111 132.233487 
L 201.078796 131.529702 
L 203.104836 131.628971 
L 205.065521 129.654776 
L 207.091562 126.987199 
L 209.117603 131.022588 
L 213.104329 133.788244 
L 215.065014 123.351306 
L 219.117096 145.997994 
L 220.947068 137.268048 
L 222.973109 129.199071 
L 224.933794 128.431427 
L 226.959835 122.956866 
L 230.946561 111.562665 
L 232.972602 104.96515 
L 234.933286 101.277258 
L 236.959327 94.376143 
L 238.920012 102.372008 
L 240.946053 82.320996 
L 242.972094 36.181567 
L 244.802066 41.065687 
L 246.828107 49.767842 
L 248.788792 51.077886 
L 250.814833 55.962246 
L 252.775518 59.77505 
L 254.801559 65.804425 
L 256.8276 66.9449 
L 258.788285 64.014877 
L 260.814326 69.321893 
L 262.77501 69.068293 
L 264.801051 95.702983 
L 266.827092 144.373587 
L 268.722421 147.109965 
L 270.748462 131.880785 
L 276.695872 116.745365 
L 278.721913 113.8 
L 280.747954 114.218447 
L 282.708639 117.371704 
L 284.73468 117.685736 
L 286.695365 125.347725 
L 288.721406 127.537963 
L 290.747447 123.222612 
L 292.577419 125.710088 
L 294.60346 134.165478 
L 296.564145 137.750172 
L 298.590186 140.210419 
L 300.550871 144.728869 
L 302.576912 150.501137 
L 304.602953 153.388239 
L 306.563638 153.417087 
L 308.589678 149.006049 
L 312.576404 88.269083 
L 314.602445 78.544207 
L 316.432418 73.143412 
L 318.458459 68.91026 
L 320.419143 69.765984 
L 322.445184 71.067752 
L 324.405869 69.826804 
L 326.43191 65.852623 
L 328.457951 63.127977 
L 332.444677 64.429995 
L 336.431403 111.128675 
L 338.457444 123.330419 
L 340.287416 98.38229 
L 342.313457 97.543068 
L 344.274142 94.548672 
L 346.300183 93.479317 
L 348.260867 93.334458 
L 350.286908 92.306867 
L 352.312949 93.918657 
L 354.273634 93.939888 
L 356.299675 94.331539 
L 358.26036 89.643059 
L 360.286401 87.03296 
L 362.312442 85.167475 
L 364.20777 115.14765 
L 366.233811 124.142654 
L 368.194496 125.049291 
L 370.220537 123.665807 
L 372.181222 121.908549 
L 374.207263 119.479366 
L 376.233304 117.573501 
L 378.193989 116.163987 
L 380.22003 117.520955 
L 382.180714 123.562635 
L 384.206755 134.364229 
L 386.232796 136.049881 
L 388.062769 145.707391 
L 390.08881 155.057498 
L 392.049495 161.216494 
L 394.075536 168.973735 
L 396.03622 175.566538 
L 398.062261 183.333367 
L 400.088302 187.093985 
L 402.048987 191.959757 
L 404.075028 194.176849 
L 406.035713 192.619327 
L 408.061754 189.403648 
L 410.087795 190.991313 
L 411.917767 190.168478 
L 413.943808 188.815356 
L 415.904493 192.608368 
L 417.930534 198.114589 
L 419.891219 205.196753 
L 423.943301 220.746014 
L 425.903985 227.245247 
L 427.930026 233.487355 
L 429.890711 243.085251 
L 431.916752 247.137582 
L 433.942793 254.639921 
L 435.772766 257.106843 
L 437.798806 261.260051 
L 439.759491 263.245603 
L 441.785532 263.287193 
L 443.746217 266.415649 
L 445.772258 270.271149 
L 447.798299 272.616717 
L 449.758984 269.956175 
L 451.785025 270.724527 
L 453.745709 272.869179 
L 455.77175 277.889965 
L 457.797791 272.875411 
L 459.69312 265.26068 
L 461.719161 263.261809 
L 463.679846 260.030538 
L 465.705887 252.579777 
L 467.666572 243.288659 
L 469.692612 232.816677 
L 471.718653 225.365829 
L 473.679338 220.396494 
L 475.705379 217.662809 
L 477.666064 208.755261 
L 479.692105 202.146007 
L 481.718146 203.740354 
L 483.548118 209.201109 
L 485.574159 211.279496 
L 487.534844 210.864806 
L 489.560885 215.977482 
L 491.52157 220.097626 
L 493.547611 223.021224 
L 495.573652 221.782201 
L 497.534337 223.237991 
L 499.560378 227.146599 
L 501.521062 230.062697 
L 503.547103 233.856227 
L 505.573144 237.085481 
L 507.403117 238.217668 
L 509.429158 237.544313 
L 511.389842 239.636218 
L 513.415883 239.480532 
L 515.376568 239.72467 
L 517.402609 235.832541 
L 519.42865 241.666147 
L 521.389335 243.620612 
L 523.415376 235.74781 
L 525.376061 236.30995 
L 527.402102 233.748963 
L 529.428143 233.828851 
L 531.258115 236.984705 
L 533.284156 236.278024 
L 535.244841 236.627875 
L 537.270882 238.393864 
L 539.231567 238.287009 
L 541.257607 241.996197 
L 543.283648 235.224683 
L 545.244333 232.538956 
L 547.270374 237.090201 
L 549.231059 235.732723 
L 551.2571 235.951401 
L 555.17847 230.49593 
L 557.20451 229.213809 
L 559.165195 228.170918 
L 561.191236 226.214638 
L 563.151921 225.307457 
L 565.177962 224.193872 
L 567.204003 224.121944 
L 569.164688 223.568294 
L 571.190729 221.677298 
L 573.151414 226.764877 
L 575.177454 233.823071 
L 577.203495 239.893556 
L 579.033468 246.698151 
L 581.059509 251.662898 
L 583.020194 254.67609 
L 585.046235 261.114553 
L 587.006919 270.278322 
L 589.03296 277.805359 
L 591.059001 282.831743 
L 593.019686 292.798037 
L 595.045727 299.124501 
L 597.006412 302.992208 
L 599.032453 306.148104 
L 601.058494 310.252582 
L 602.888466 307.759371 
L 604.914507 311.011489 
L 606.875192 313.164646 
L 608.901233 312.848752 
L 610.861918 309.85859 
L 612.887959 305.789244 
L 614.914 309.474095 
L 616.874684 309.639262 
L 618.900725 306.825093 
L 620.86141 303.793505 
L 622.887451 286.829755 
L 624.913492 261.315068 
L 626.743465 245.341796 
L 628.769506 230.89874 
L 630.73019 225.080654 
L 632.756231 220.637923 
L 634.716916 215.724379 
L 636.742957 213.771624 
L 638.768998 209.12099 
L 640.729683 201.890434 
L 642.755724 196.577542 
L 644.716409 193.494416 
L 646.742449 202.364005 
L 648.76849 221.756155 
L 650.663819 237.873801 
L 652.68986 250.31911 
L 654.650545 255.196893 
L 656.676586 258.139606 
L 658.637271 260.613728 
L 660.663312 261.964468 
L 662.689352 261.797464 
L 664.650037 262.492125 
L 666.676078 264.35186 
L 668.636763 264.517184 
L 670.662804 261.797228 
L 672.688845 254.909693 
L 674.518817 249.645845 
L 676.544858 245.918812 
L 678.505543 242.626873 
L 680.531584 242.301032 
L 682.492269 243.018256 
L 684.51831 245.983327 
L 686.544351 247.455101 
L 688.505036 251.059647 
L 692.491761 259.753663 
L 692.491761 259.753663 
" clip-path="url(#p5a3ae66dbc)" style="fill: none; stroke: #1b75bb; stroke-width: 2; stroke-linecap: square"/>
   </g>
   <g id="line2d_19">
    <path d="M 83.764489 126.681478 
L 85.725173 125.978008 
L 87.751214 127.071844 
L 89.777255 132.872039 
L 91.73794 135.993381 
L 93.763981 139.441668 
L 95.724666 143.154548 
L 97.750707 142.845332 
L 99.776748 141.824705 
L 101.60672 145.997521 
L 103.632761 150.930331 
L 105.593446 159.630836 
L 107.619487 174.417906 
L 109.580172 191.84915 
L 111.606213 206.911568 
L 113.632254 218.299856 
L 115.592938 231.893611 
L 117.618979 244.309897 
L 119.579664 254.295825 
L 121.605705 260.136293 
L 123.631746 252.417736 
L 125.461719 246.270907 
L 127.48776 242.696038 
L 129.448444 240.55549 
L 131.474485 236.230799 
L 137.487252 212.215565 
L 139.447937 201.492076 
L 141.473978 193.721404 
L 143.434663 186.714539 
L 145.460704 189.366986 
L 147.486744 195.147797 
L 149.316717 199.275377 
L 151.342758 196.867256 
L 153.303443 195.536301 
L 155.329484 193.389621 
L 157.290168 189.788283 
L 159.316209 185.445473 
L 161.34225 179.330371 
L 163.302935 172.124021 
L 165.328976 167.410817 
L 167.289661 164.516661 
L 169.315702 159.613457 
L 171.341743 162.802538 
L 173.237071 161.069744 
L 175.263112 158.151412 
L 177.223797 157.037515 
L 179.249838 154.948532 
L 181.210523 157.513452 
L 183.236564 159.723617 
L 185.262605 160.807606 
L 187.22329 166.919751 
L 189.249331 168.079553 
L 191.210015 165.954952 
L 193.236056 144.678684 
L 195.262097 130.26366 
L 197.09207 128.436527 
L 199.118111 132.116756 
L 201.078796 131.408834 
L 203.104836 131.667574 
L 205.065521 129.50954 
L 207.091562 126.898646 
L 209.117603 131.071464 
L 211.078288 132.22662 
L 213.104329 133.812251 
L 215.065014 123.409848 
L 219.117096 146.110728 
L 220.947068 137.237348 
L 222.973109 129.293531 
L 224.933794 128.116463 
L 226.959835 123.070934 
L 230.946561 111.618966 
L 232.972602 104.985659 
L 234.933286 101.343784 
L 236.959327 94.323724 
L 238.920012 102.336841 
L 240.946053 82.406488 
L 242.972094 36.178125 
L 244.802066 41.206427 
L 246.828107 49.646414 
L 248.788792 51.566194 
L 250.814833 55.891733 
L 252.775518 59.716305 
L 254.801559 65.699656 
L 256.8276 66.899644 
L 258.788285 63.952462 
L 260.814326 69.312894 
L 262.77501 69.03064 
L 264.801051 95.670981 
L 266.827092 144.4276 
L 268.722421 147.013978 
L 270.748462 131.886317 
L 276.695872 116.790722 
L 278.721913 113.833778 
L 280.747954 114.299888 
L 282.708639 117.401291 
L 284.73468 117.750952 
L 286.695365 125.418598 
L 288.721406 127.580211 
L 290.747447 123.153444 
L 292.577419 125.652675 
L 294.60346 134.173141 
L 296.564145 137.706299 
L 298.590186 140.249548 
L 300.550871 144.72196 
L 302.576912 150.505754 
L 304.602953 153.321504 
L 306.563638 153.448092 
L 308.589678 148.971766 
L 312.576404 88.252085 
L 314.602445 78.584389 
L 316.432418 73.189215 
L 318.458459 68.950204 
L 320.419143 69.760121 
L 322.445184 70.978886 
L 324.405869 69.789511 
L 326.43191 65.844065 
L 328.457951 63.072179 
L 332.444677 64.441887 
L 336.431403 111.105745 
L 338.457444 123.345351 
L 340.287416 98.443139 
L 342.313457 97.544686 
L 344.274142 94.682184 
L 346.300183 93.50618 
L 348.260867 93.424486 
L 350.286908 92.368112 
L 352.312949 94.068765 
L 354.273634 93.998218 
L 356.299675 94.416675 
L 358.26036 89.723002 
L 360.286401 87.083899 
L 362.312442 85.154913 
L 364.20777 115.140793 
L 366.233811 124.141728 
L 368.194496 125.002342 
L 370.220537 123.72551 
L 372.181222 121.842116 
L 374.207263 119.5049 
L 376.233304 117.515807 
L 378.193989 116.163807 
L 380.22003 117.425806 
L 382.180714 123.490414 
L 384.206755 134.366732 
L 386.232796 136.103497 
L 388.062769 145.703553 
L 390.08881 155.077345 
L 392.049495 161.265181 
L 394.075536 169.022421 
L 396.03622 175.603611 
L 398.062261 183.318746 
L 400.088302 187.156657 
L 402.048987 192.022422 
L 404.075028 194.257192 
L 406.035713 192.607887 
L 408.061754 189.415096 
L 410.087795 190.951851 
L 411.917767 190.203777 
L 413.943808 188.874402 
L 415.904493 192.552471 
L 417.930534 198.058688 
L 419.891219 205.279078 
L 423.943301 220.700976 
L 427.930026 233.391794 
L 429.890711 243.196315 
L 431.916752 247.237351 
L 433.942793 254.701351 
L 435.772766 257.122246 
L 437.798806 261.221929 
L 439.759491 263.270697 
L 441.785532 263.159139 
L 443.746217 266.28627 
L 445.772258 270.245459 
L 447.798299 272.549657 
L 449.758984 270.270313 
L 451.785025 270.792596 
L 453.745709 272.770816 
L 455.77175 277.700104 
L 457.797791 272.9138 
L 459.69312 265.218363 
L 461.719161 263.272978 
L 463.679846 260.082019 
L 465.705887 252.760594 
L 467.666572 243.384395 
L 469.692612 232.924004 
L 471.718653 225.378044 
L 473.679338 220.333914 
L 475.705379 217.683526 
L 477.666064 208.735878 
L 479.692105 202.258065 
L 481.718146 203.71355 
L 483.548118 209.231952 
L 485.574159 211.23919 
L 487.534844 210.738489 
L 489.560885 216.05315 
L 491.52157 220.006384 
L 493.547611 222.998706 
L 495.573652 221.872406 
L 497.534337 223.305502 
L 499.560378 227.124951 
L 501.521062 230.138549 
L 503.547103 233.874797 
L 505.573144 237.05938 
L 507.403117 238.197449 
L 509.429158 237.601163 
L 511.389842 239.807974 
L 513.415883 239.420443 
L 515.376568 239.791197 
L 517.402609 235.870641 
L 519.42865 241.728097 
L 521.389335 243.515901 
L 523.415376 235.749826 
L 525.376061 236.237547 
L 527.402102 233.710831 
L 529.428143 233.841514 
L 531.258115 236.951542 
L 533.284156 236.244804 
L 535.244841 236.628995 
L 537.270882 238.247441 
L 539.231567 238.214763 
L 541.257607 241.934978 
L 543.283648 235.288891 
L 545.244333 232.533736 
L 547.270374 236.759177 
L 549.231059 235.570107 
L 551.2571 236.033244 
L 553.283141 233.004487 
L 555.17847 230.563588 
L 559.165195 227.958185 
L 561.191236 226.250116 
L 563.151921 225.337432 
L 565.177962 224.115226 
L 567.204003 224.042327 
L 569.164688 223.541168 
L 571.190729 222.052899 
L 573.151414 226.739853 
L 575.177454 233.69989 
L 577.203495 239.855243 
L 579.033468 246.636469 
L 581.059509 251.384035 
L 583.020194 254.647984 
L 585.046235 261.269929 
L 587.006919 270.330346 
L 589.03296 277.777341 
L 591.059001 282.743919 
L 593.019686 292.756874 
L 595.045727 299.017798 
L 597.006412 303.260702 
L 599.032453 306.207494 
L 601.058494 310.381924 
L 602.888466 307.711823 
L 604.914507 311.127489 
L 606.875192 313.378125 
L 608.901233 312.843692 
L 610.861918 309.706026 
L 612.887959 305.818605 
L 614.914 309.43277 
L 616.874684 309.820321 
L 620.86141 303.683705 
L 622.887451 286.697428 
L 624.913492 261.417039 
L 626.743465 245.277633 
L 628.769506 230.993437 
L 630.73019 225.136958 
L 634.716916 215.847996 
L 636.742957 213.827631 
L 638.768998 209.04188 
L 640.729683 201.793546 
L 642.755724 196.803301 
L 644.716409 193.539352 
L 646.742449 202.386142 
L 648.76849 221.762903 
L 650.663819 237.858179 
L 652.68986 250.493477 
L 654.650545 255.031855 
L 656.676586 258.182119 
L 658.637271 260.818168 
L 660.663312 261.921421 
L 662.689352 261.866037 
L 664.650037 262.584029 
L 666.676078 264.313874 
L 668.636763 264.434201 
L 670.662804 261.816323 
L 672.688845 254.918389 
L 674.518817 249.859459 
L 676.544858 245.854923 
L 678.505543 242.666866 
L 680.531584 242.176772 
L 682.492269 242.94882 
L 684.51831 246.006625 
L 686.544351 247.519509 
L 688.505036 251.107333 
L 692.491761 260.023174 
L 692.491761 260.023174 
" clip-path="url(#p5a3ae66dbc)" style="fill: none; stroke: #0f7b5f; stroke-width: 2; stroke-linecap: square"/>
   </g>
   <g id="patch_3">
    <path d="M 53.328125 327.238125 
L 53.328125 22.318125 
" style="fill: none; stroke: #000000; stroke-width: 0.8; stroke-linejoin: miter; stroke-linecap: square"/>
   </g>
   <g id="patch_4">
    <path d="M 53.328125 327.238125 
L 722.928125 327.238125 
" style="fill: none; stroke: #000000; stroke-width: 0.8; stroke-linejoin: miter; stroke-linecap: square"/>
   </g>
   <g id="text_14">
    <!-- Serie ONS identificada como JUPIA na bacia PARANA. Sucuriu requer coleta complementar. -->
    <g style="fill: #64748b" transform="translate(60.024125 403.468125) scale(0.09 -0.09)">
     <defs>
      <path id="DejaVuSans-53" d="M 3425 4513 
L 3425 3897 
Q 3066 4069 2747 4153 
Q 2428 4238 2131 4238 
Q 1616 4238 1336 4038 
Q 1056 3838 1056 3469 
Q 1056 3159 1242 3001 
Q 1428 2844 1947 2747 
L 2328 2669 
Q 3034 2534 3370 2195 
Q 3706 1856 3706 1288 
Q 3706 609 3251 259 
Q 2797 -91 1919 -91 
Q 1588 -91 1214 -16 
Q 841 59 441 206 
L 441 856 
Q 825 641 1194 531 
Q 1563 422 1919 422 
Q 2459 422 2753 634 
Q 3047 847 3047 1241 
Q 3047 1584 2836 1778 
Q 2625 1972 2144 2069 
L 1759 2144 
Q 1053 2284 737 2584 
Q 422 2884 422 3419 
Q 422 4038 858 4394 
Q 1294 4750 2059 4750 
Q 2388 4750 2728 4690 
Q 3069 4631 3425 4513 
z
" transform="scale(0.015625)"/>
      <path id="DejaVuSans-65" d="M 3597 1894 
L 3597 1613 
L 953 1613 
Q 991 1019 1311 708 
Q 1631 397 2203 397 
Q 2534 397 2845 478 
Q 3156 559 3463 722 
L 3463 178 
Q 3153 47 2828 -22 
Q 2503 -91 2169 -91 
Q 1331 -91 842 396 
Q 353 884 353 1716 
Q 353 2575 817 3079 
Q 1281 3584 2069 3584 
Q 2775 3584 3186 3129 
Q 3597 2675 3597 1894 
z
M 3022 2063 
Q 3016 2534 2758 2815 
Q 2500 3097 2075 3097 
Q 1594 3097 1305 2825 
Q 1016 2553 972 2059 
L 3022 2063 
z
" transform="scale(0.015625)"/>
      <path id="DejaVuSans-72" d="M 2631 2963 
Q 2534 3019 2420 3045 
Q 2306 3072 2169 3072 
Q 1681 3072 1420 2755 
Q 1159 2438 1159 1844 
L 1159 0 
L 581 0 
L 581 3500 
L 1159 3500 
L 1159 2956 
Q 1341 3275 1631 3429 
Q 1922 3584 2338 3584 
Q 2397 3584 2469 3576 
Q 2541 3569 2628 3553 
L 2631 2963 
z
" transform="scale(0.015625)"/>
      <path id="DejaVuSans-69" d="M 603 3500 
L 1178 3500 
L 1178 0 
L 603 0 
L 603 3500 
z
M 603 4863 
L 1178 4863 
L 1178 4134 
L 603 4134 
L 603 4863 
z
" transform="scale(0.015625)"/>
      <path id="DejaVuSans-4f" d="M 2522 4238 
Q 1834 4238 1429 3725 
Q 1025 3213 1025 2328 
Q 1025 1447 1429 934 
Q 1834 422 2522 422 
Q 3209 422 3611 934 
Q 4013 1447 4013 2328 
Q 4013 3213 3611 3725 
Q 3209 4238 2522 4238 
z
M 2522 4750 
Q 3503 4750 4090 4092 
Q 4678 3434 4678 2328 
Q 4678 1225 4090 567 
Q 3503 -91 2522 -91 
Q 1538 -91 948 565 
Q 359 1222 359 2328 
Q 359 3434 948 4092 
Q 1538 4750 2522 4750 
z
" transform="scale(0.015625)"/>
      <path id="DejaVuSans-4e" d="M 628 4666 
L 1478 4666 
L 3547 763 
L 3547 4666 
L 4159 4666 
L 4159 0 
L 3309 0 
L 1241 3903 
L 1241 0 
L 628 0 
L 628 4666 
z
" transform="scale(0.015625)"/>
      <path id="DejaVuSans-64" d="M 2906 2969 
L 2906 4863 
L 3481 4863 
L 3481 0 
L 2906 0 
L 2906 525 
Q 2725 213 2448 61 
Q 2172 -91 1784 -91 
Q 1150 -91 751 415 
Q 353 922 353 1747 
Q 353 2572 751 3078 
Q 1150 3584 1784 3584 
Q 2172 3584 2448 3432 
Q 2725 3281 2906 2969 
z
M 947 1747 
Q 947 1113 1208 752 
Q 1469 391 1925 391 
Q 2381 391 2643 752 
Q 2906 1113 2906 1747 
Q 2906 2381 2643 2742 
Q 2381 3103 1925 3103 
Q 1469 3103 1208 2742 
Q 947 2381 947 1747 
z
" transform="scale(0.015625)"/>
      <path id="DejaVuSans-6e" d="M 3513 2113 
L 3513 0 
L 2938 0 
L 2938 2094 
Q 2938 2591 2744 2837 
Q 2550 3084 2163 3084 
Q 1697 3084 1428 2787 
Q 1159 2491 1159 1978 
L 1159 0 
L 581 0 
L 581 3500 
L 1159 3500 
L 1159 2956 
Q 1366 3272 1645 3428 
Q 1925 3584 2291 3584 
Q 2894 3584 3203 3211 
Q 3513 2838 3513 2113 
z
" transform="scale(0.015625)"/>
      <path id="DejaVuSans-74" d="M 1172 4494 
L 1172 3500 
L 2356 3500 
L 2356 3053 
L 1172 3053 
L 1172 1153 
Q 1172 725 1289 603 
Q 1406 481 1766 481 
L 2356 481 
L 2356 0 
L 1766 0 
Q 1100 0 847 248 
Q 594 497 594 1153 
L 594 3053 
L 172 3053 
L 172 3500 
L 594 3500 
L 594 4494 
L 1172 4494 
z
" transform="scale(0.015625)"/>
      <path id="DejaVuSans-66" d="M 2375 4863 
L 2375 4384 
L 1825 4384 
Q 1516 4384 1395 4259 
Q 1275 4134 1275 3809 
L 1275 3500 
L 2222 3500 
L 2222 3053 
L 1275 3053 
L 1275 0 
L 697 0 
L 697 3053 
L 147 3053 
L 147 3500 
L 697 3500 
L 697 3744 
Q 697 4328 969 4595 
Q 1241 4863 1831 4863 
L 2375 4863 
z
" transform="scale(0.015625)"/>
      <path id="DejaVuSans-63" d="M 3122 3366 
L 3122 2828 
Q 2878 2963 2633 3030 
Q 2388 3097 2138 3097 
Q 1578 3097 1268 2742 
Q 959 2388 959 1747 
Q 959 1106 1268 751 
Q 1578 397 2138 397 
Q 2388 397 2633 464 
Q 2878 531 3122 666 
L 3122 134 
Q 2881 22 2623 -34 
Q 2366 -91 2075 -91 
Q 1284 -91 818 406 
Q 353 903 353 1747 
Q 353 2603 823 3093 
Q 1294 3584 2113 3584 
Q 2378 3584 2631 3529 
Q 2884 3475 3122 3366 
z
" transform="scale(0.015625)"/>
      <path id="DejaVuSans-4a" d="M 628 4666 
L 1259 4666 
L 1259 325 
Q 1259 -519 939 -900 
Q 619 -1281 -91 -1281 
L -331 -1281 
L -331 -750 
L -134 -750 
Q 284 -750 456 -515 
Q 628 -281 628 325 
L 628 4666 
z
" transform="scale(0.015625)"/>
      <path id="DejaVuSans-55" d="M 556 4666 
L 1191 4666 
L 1191 1831 
Q 1191 1081 1462 751 
Q 1734 422 2344 422 
Q 2950 422 3222 751 
Q 3494 1081 3494 1831 
L 3494 4666 
L 4128 4666 
L 4128 1753 
Q 4128 841 3676 375 
Q 3225 -91 2344 -91 
Q 1459 -91 1007 375 
Q 556 841 556 1753 
L 556 4666 
z
" transform="scale(0.015625)"/>
      <path id="DejaVuSans-50" d="M 1259 4147 
L 1259 2394 
L 2053 2394 
Q 2494 2394 2734 2622 
Q 2975 2850 2975 3272 
Q 2975 3691 2734 3919 
Q 2494 4147 2053 4147 
L 1259 4147 
z
M 628 4666 
L 2053 4666 
Q 2838 4666 3239 4311 
Q 3641 3956 3641 3272 
Q 3641 2581 3239 2228 
Q 2838 1875 2053 1875 
L 1259 1875 
L 1259 0 
L 628 0 
L 628 4666 
z
" transform="scale(0.015625)"/>
      <path id="DejaVuSans-49" d="M 628 4666 
L 1259 4666 
L 1259 0 
L 628 0 
L 628 4666 
z
" transform="scale(0.015625)"/>
      <path id="DejaVuSans-41" d="M 2188 4044 
L 1331 1722 
L 3047 1722 
L 2188 4044 
z
M 1831 4666 
L 2547 4666 
L 4325 0 
L 3669 0 
L 3244 1197 
L 1141 1197 
L 716 0 
L 50 0 
L 1831 4666 
z
" transform="scale(0.015625)"/>
      <path id="DejaVuSans-62" d="M 3116 1747 
Q 3116 2381 2855 2742 
Q 2594 3103 2138 3103 
Q 1681 3103 1420 2742 
Q 1159 2381 1159 1747 
Q 1159 1113 1420 752 
Q 1681 391 2138 391 
Q 2594 391 2855 752 
Q 3116 1113 3116 1747 
z
M 1159 2969 
Q 1341 3281 1617 3432 
Q 1894 3584 2278 3584 
Q 2916 3584 3314 3078 
Q 3713 2572 3713 1747 
Q 3713 922 3314 415 
Q 2916 -91 2278 -91 
Q 1894 -91 1617 61 
Q 1341 213 1159 525 
L 1159 0 
L 581 0 
L 581 4863 
L 1159 4863 
L 1159 2969 
z
" transform="scale(0.015625)"/>
      <path id="DejaVuSans-52" d="M 2841 2188 
Q 3044 2119 3236 1894 
Q 3428 1669 3622 1275 
L 4263 0 
L 3584 0 
L 2988 1197 
Q 2756 1666 2539 1819 
Q 2322 1972 1947 1972 
L 1259 1972 
L 1259 0 
L 628 0 
L 628 4666 
L 2053 4666 
Q 2853 4666 3247 4331 
Q 3641 3997 3641 3322 
Q 3641 2881 3436 2590 
Q 3231 2300 2841 2188 
z
M 1259 4147 
L 1259 2491 
L 2053 2491 
Q 2509 2491 2742 2702 
Q 2975 2913 2975 3322 
Q 2975 3731 2742 3939 
Q 2509 4147 2053 4147 
L 1259 4147 
z
" transform="scale(0.015625)"/>
      <path id="DejaVuSans-2e" d="M 684 794 
L 1344 794 
L 1344 0 
L 684 0 
L 684 794 
z
" transform="scale(0.015625)"/>
      <path id="DejaVuSans-75" d="M 544 1381 
L 544 3500 
L 1119 3500 
L 1119 1403 
Q 1119 906 1312 657 
Q 1506 409 1894 409 
Q 2359 409 2629 706 
Q 2900 1003 2900 1516 
L 2900 3500 
L 3475 3500 
L 3475 0 
L 2900 0 
L 2900 538 
Q 2691 219 2414 64 
Q 2138 -91 1772 -91 
Q 1169 -91 856 284 
Q 544 659 544 1381 
z
M 1991 3584 
L 1991 3584 
z
" transform="scale(0.015625)"/>
      <path id="DejaVuSans-71" d="M 947 1747 
Q 947 1113 1208 752 
Q 1469 391 1925 391 
Q 2381 391 2643 752 
Q 2906 1113 2906 1747 
Q 2906 2381 2643 2742 
Q 2381 3103 1925 3103 
Q 1469 3103 1208 2742 
Q 947 2381 947 1747 
z
M 2906 525 
Q 2725 213 2448 61 
Q 2172 -91 1784 -91 
Q 1150 -91 751 415 
Q 353 922 353 1747 
Q 353 2572 751 3078 
Q 1150 3584 1784 3584 
Q 2172 3584 2448 3432 
Q 2725 3281 2906 2969 
L 2906 3500 
L 3481 3500 
L 3481 -1331 
L 2906 -1331 
L 2906 525 
z
" transform="scale(0.015625)"/>
      <path id="DejaVuSans-6c" d="M 603 4863 
L 1178 4863 
L 1178 0 
L 603 0 
L 603 4863 
z
" transform="scale(0.015625)"/>
      <path id="DejaVuSans-70" d="M 1159 525 
L 1159 -1331 
L 581 -1331 
L 581 3500 
L 1159 3500 
L 1159 2969 
Q 1341 3281 1617 3432 
Q 1894 3584 2278 3584 
Q 2916 3584 3314 3078 
Q 3713 2572 3713 1747 
Q 3713 922 3314 415 
Q 2916 -91 2278 -91 
Q 1894 -91 1617 61 
Q 1341 213 1159 525 
z
M 3116 1747 
Q 3116 2381 2855 2742 
Q 2594 3103 2138 3103 
Q 1681 3103 1420 2742 
Q 1159 2381 1159 1747 
Q 1159 1113 1420 752 
Q 1681 391 2138 391 
Q 2594 391 2855 752 
Q 3116 1113 3116 1747 
z
" transform="scale(0.015625)"/>
     </defs>
     <use xlink:href="#DejaVuSans-53"/>
     <use xlink:href="#DejaVuSans-65" transform="translate(63.476562 0)"/>
     <use xlink:href="#DejaVuSans-72" transform="translate(125 0)"/>
     <use xlink:href="#DejaVuSans-69" transform="translate(166.113281 0)"/>
     <use xlink:href="#DejaVuSans-65" transform="translate(193.896484 0)"/>
     <use xlink:href="#DejaVuSans-20" transform="translate(255.419922 0)"/>
     <use xlink:href="#DejaVuSans-4f" transform="translate(287.207031 0)"/>
     <use xlink:href="#DejaVuSans-4e" transform="translate(365.917969 0)"/>
     <use xlink:href="#DejaVuSans-53" transform="translate(440.722656 0)"/>
     <use xlink:href="#DejaVuSans-20" transform="translate(504.199219 0)"/>
     <use xlink:href="#DejaVuSans-69" transform="translate(535.986328 0)"/>
     <use xlink:href="#DejaVuSans-64" transform="translate(563.769531 0)"/>
     <use xlink:href="#DejaVuSans-65" transform="translate(627.246094 0)"/>
     <use xlink:href="#DejaVuSans-6e" transform="translate(688.769531 0)"/>
     <use xlink:href="#DejaVuSans-74" transform="translate(752.148438 0)"/>
     <use xlink:href="#DejaVuSans-69" transform="translate(791.357422 0)"/>
     <use xlink:href="#DejaVuSans-66" transform="translate(819.140625 0)"/>
     <use xlink:href="#DejaVuSans-69" transform="translate(854.345703 0)"/>
     <use xlink:href="#DejaVuSans-63" transform="translate(882.128906 0)"/>
     <use xlink:href="#DejaVuSans-61" transform="translate(937.109375 0)"/>
     <use xlink:href="#DejaVuSans-64" transform="translate(998.388672 0)"/>
     <use xlink:href="#DejaVuSans-61" transform="translate(1061.865234 0)"/>
     <use xlink:href="#DejaVuSans-20" transform="translate(1123.144531 0)"/>
     <use xlink:href="#DejaVuSans-63" transform="translate(1154.931641 0)"/>
     <use xlink:href="#DejaVuSans-6f" transform="translate(1209.912109 0)"/>
     <use xlink:href="#DejaVuSans-6d" transform="translate(1271.09375 0)"/>
     <use xlink:href="#DejaVuSans-6f" transform="translate(1368.505859 0)"/>
     <use xlink:href="#DejaVuSans-20" transform="translate(1429.6875 0)"/>
     <use xlink:href="#DejaVuSans-4a" transform="translate(1461.474609 0)"/>
     <use xlink:href="#DejaVuSans-55" transform="translate(1490.966797 0)"/>
     <use xlink:href="#DejaVuSans-50" transform="translate(1564.160156 0)"/>
     <use xlink:href="#DejaVuSans-49" transform="translate(1624.462891 0)"/>
     <use xlink:href="#DejaVuSans-41" transform="translate(1653.955078 0)"/>
     <use xlink:href="#DejaVuSans-20" transform="translate(1722.363281 0)"/>
     <use xlink:href="#DejaVuSans-6e" transform="translate(1754.150391 0)"/>
     <use xlink:href="#DejaVuSans-61" transform="translate(1817.529297 0)"/>
     <use xlink:href="#DejaVuSans-20" transform="translate(1878.808594 0)"/>
     <use xlink:href="#DejaVuSans-62" transform="translate(1910.595703 0)"/>
     <use xlink:href="#DejaVuSans-61" transform="translate(1974.072266 0)"/>
     <use xlink:href="#DejaVuSans-63" transform="translate(2035.351562 0)"/>
     <use xlink:href="#DejaVuSans-69" transform="translate(2090.332031 0)"/>
     <use xlink:href="#DejaVuSans-61" transform="translate(2118.115234 0)"/>
     <use xlink:href="#DejaVuSans-20" transform="translate(2179.394531 0)"/>
     <use xlink:href="#DejaVuSans-50" transform="translate(2211.181641 0)"/>
     <use xlink:href="#DejaVuSans-41" transform="translate(2265.109375 0)"/>
     <use xlink:href="#DejaVuSans-52" transform="translate(2333.517578 0)"/>
     <use xlink:href="#DejaVuSans-41" transform="translate(2399 0)"/>
     <use xlink:href="#DejaVuSans-4e" transform="translate(2467.408203 0)"/>
     <use xlink:href="#DejaVuSans-41" transform="translate(2542.212891 0)"/>
     <use xlink:href="#DejaVuSans-2e" transform="translate(2608.871094 0)"/>
     <use xlink:href="#DejaVuSans-20" transform="translate(2640.658203 0)"/>
     <use xlink:href="#DejaVuSans-53" transform="translate(2672.445312 0)"/>
     <use xlink:href="#DejaVuSans-75" transform="translate(2735.921875 0)"/>
     <use xlink:href="#DejaVuSans-63" transform="translate(2799.300781 0)"/>
     <use xlink:href="#DejaVuSans-75" transform="translate(2854.28125 0)"/>
     <use xlink:href="#DejaVuSans-72" transform="translate(2917.660156 0)"/>
     <use xlink:href="#DejaVuSans-69" transform="translate(2958.773438 0)"/>
     <use xlink:href="#DejaVuSans-75" transform="translate(2986.556641 0)"/>
     <use xlink:href="#DejaVuSans-20" transform="translate(3049.935547 0)"/>
     <use xlink:href="#DejaVuSans-72" transform="translate(3081.722656 0)"/>
     <use xlink:href="#DejaVuSans-65" transform="translate(3120.585938 0)"/>
     <use xlink:href="#DejaVuSans-71" transform="translate(3182.109375 0)"/>
     <use xlink:href="#DejaVuSans-75" transform="translate(3245.585938 0)"/>
     <use xlink:href="#DejaVuSans-65" transform="translate(3308.964844 0)"/>
     <use xlink:href="#DejaVuSans-72" transform="translate(3370.488281 0)"/>
     <use xlink:href="#DejaVuSans-20" transform="translate(3411.601562 0)"/>
     <use xlink:href="#DejaVuSans-63" transform="translate(3443.388672 0)"/>
     <use xlink:href="#DejaVuSans-6f" transform="translate(3498.369141 0)"/>
     <use xlink:href="#DejaVuSans-6c" transform="translate(3559.550781 0)"/>
     <use xlink:href="#DejaVuSans-65" transform="translate(3587.333984 0)"/>
     <use xlink:href="#DejaVuSans-74" transform="translate(3648.857422 0)"/>
     <use xlink:href="#DejaVuSans-61" transform="translate(3688.066406 0)"/>
     <use xlink:href="#DejaVuSans-20" transform="translate(3749.345703 0)"/>
     <use xlink:href="#DejaVuSans-63" transform="translate(3781.132812 0)"/>
     <use xlink:href="#DejaVuSans-6f" transform="translate(3836.113281 0)"/>
     <use xlink:href="#DejaVuSans-6d" transform="translate(3897.294922 0)"/>
     <use xlink:href="#DejaVuSans-70" transform="translate(3994.707031 0)"/>
     <use xlink:href="#DejaVuSans-6c" transform="translate(4058.183594 0)"/>
     <use xlink:href="#DejaVuSans-65" transform="translate(4085.966797 0)"/>
     <use xlink:href="#DejaVuSans-6d" transform="translate(4147.490234 0)"/>
     <use xlink:href="#DejaVuSans-65" transform="translate(4244.902344 0)"/>
     <use xlink:href="#DejaVuSans-6e" transform="translate(4306.425781 0)"/>
     <use xlink:href="#DejaVuSans-74" transform="translate(4369.804688 0)"/>
     <use xlink:href="#DejaVuSans-61" transform="translate(4409.013672 0)"/>
     <use xlink:href="#DejaVuSans-72" transform="translate(4470.292969 0)"/>
     <use xlink:href="#DejaVuSans-2e" transform="translate(4502.28125 0)"/>
    </g>
   </g>
   <g id="text_15">
    <!-- UHE Jupia - afluencia, defluencia e volume util -->
    <g transform="translate(231.538438 16.318125) scale(0.12 -0.12)">
     <defs>
      <path id="DejaVuSans-Bold-55" d="M 588 4666 
L 1791 4666 
L 1791 1869 
Q 1791 1291 1980 1042 
Q 2169 794 2597 794 
Q 3028 794 3217 1042 
Q 3406 1291 3406 1869 
L 3406 4666 
L 4609 4666 
L 4609 1869 
Q 4609 878 4112 393 
Q 3616 -91 2597 -91 
Q 1581 -91 1084 393 
Q 588 878 588 1869 
L 588 4666 
z
" transform="scale(0.015625)"/>
      <path id="DejaVuSans-Bold-48" d="M 588 4666 
L 1791 4666 
L 1791 2888 
L 3566 2888 
L 3566 4666 
L 4769 4666 
L 4769 0 
L 3566 0 
L 3566 1978 
L 1791 1978 
L 1791 0 
L 588 0 
L 588 4666 
z
" transform="scale(0.015625)"/>
      <path id="DejaVuSans-Bold-45" d="M 588 4666 
L 3834 4666 
L 3834 3756 
L 1791 3756 
L 1791 2888 
L 3713 2888 
L 3713 1978 
L 1791 1978 
L 1791 909 
L 3903 909 
L 3903 0 
L 588 0 
L 588 4666 
z
" transform="scale(0.015625)"/>
      <path id="DejaVuSans-Bold-20" transform="scale(0.015625)"/>
      <path id="DejaVuSans-Bold-4a" d="M 588 4666 
L 1791 4666 
L 1791 453 
Q 1791 -419 1317 -850 
Q 844 -1281 -116 -1281 
L -359 -1281 
L -359 -372 
L -172 -372 
Q 203 -372 395 -162 
Q 588 47 588 453 
L 588 4666 
z
" transform="scale(0.015625)"/>
      <path id="DejaVuSans-Bold-75" d="M 500 1363 
L 500 3500 
L 1625 3500 
L 1625 3150 
Q 1625 2866 1622 2436 
Q 1619 2006 1619 1863 
Q 1619 1441 1641 1255 
Q 1663 1069 1716 984 
Q 1784 875 1895 815 
Q 2006 756 2150 756 
Q 2500 756 2700 1025 
Q 2900 1294 2900 1772 
L 2900 3500 
L 4019 3500 
L 4019 0 
L 2900 0 
L 2900 506 
Q 2647 200 2364 54 
Q 2081 -91 1741 -91 
Q 1134 -91 817 281 
Q 500 653 500 1363 
z
" transform="scale(0.015625)"/>
      <path id="DejaVuSans-Bold-70" d="M 1656 506 
L 1656 -1331 
L 538 -1331 
L 538 3500 
L 1656 3500 
L 1656 2988 
Q 1888 3294 2169 3439 
Q 2450 3584 2816 3584 
Q 3463 3584 3878 3070 
Q 4294 2556 4294 1747 
Q 4294 938 3878 423 
Q 3463 -91 2816 -91 
Q 2450 -91 2169 54 
Q 1888 200 1656 506 
z
M 2400 2772 
Q 2041 2772 1848 2508 
Q 1656 2244 1656 1747 
Q 1656 1250 1848 986 
Q 2041 722 2400 722 
Q 2759 722 2948 984 
Q 3138 1247 3138 1747 
Q 3138 2247 2948 2509 
Q 2759 2772 2400 2772 
z
" transform="scale(0.015625)"/>
      <path id="DejaVuSans-Bold-69" d="M 538 3500 
L 1656 3500 
L 1656 0 
L 538 0 
L 538 3500 
z
M 538 4863 
L 1656 4863 
L 1656 3950 
L 538 3950 
L 538 4863 
z
" transform="scale(0.015625)"/>
      <path id="DejaVuSans-Bold-61" d="M 2106 1575 
Q 1756 1575 1579 1456 
Q 1403 1338 1403 1106 
Q 1403 894 1545 773 
Q 1688 653 1941 653 
Q 2256 653 2472 879 
Q 2688 1106 2688 1447 
L 2688 1575 
L 2106 1575 
z
M 3816 1997 
L 3816 0 
L 2688 0 
L 2688 519 
Q 2463 200 2181 54 
Q 1900 -91 1497 -91 
Q 953 -91 614 226 
Q 275 544 275 1050 
Q 275 1666 698 1953 
Q 1122 2241 2028 2241 
L 2688 2241 
L 2688 2328 
Q 2688 2594 2478 2717 
Q 2269 2841 1825 2841 
Q 1466 2841 1156 2769 
Q 847 2697 581 2553 
L 581 3406 
Q 941 3494 1303 3539 
Q 1666 3584 2028 3584 
Q 2975 3584 3395 3211 
Q 3816 2838 3816 1997 
z
" transform="scale(0.015625)"/>
      <path id="DejaVuSans-Bold-2d" d="M 347 2297 
L 2309 2297 
L 2309 1388 
L 347 1388 
L 347 2297 
z
" transform="scale(0.015625)"/>
      <path id="DejaVuSans-Bold-66" d="M 2841 4863 
L 2841 4128 
L 2222 4128 
Q 1984 4128 1890 4042 
Q 1797 3956 1797 3744 
L 1797 3500 
L 2753 3500 
L 2753 2700 
L 1797 2700 
L 1797 0 
L 678 0 
L 678 2700 
L 122 2700 
L 122 3500 
L 678 3500 
L 678 3744 
Q 678 4316 997 4589 
Q 1316 4863 1984 4863 
L 2841 4863 
z
" transform="scale(0.015625)"/>
      <path id="DejaVuSans-Bold-6c" d="M 538 4863 
L 1656 4863 
L 1656 0 
L 538 0 
L 538 4863 
z
" transform="scale(0.015625)"/>
      <path id="DejaVuSans-Bold-65" d="M 4031 1759 
L 4031 1441 
L 1416 1441 
Q 1456 1047 1700 850 
Q 1944 653 2381 653 
Q 2734 653 3104 758 
Q 3475 863 3866 1075 
L 3866 213 
Q 3469 63 3072 -14 
Q 2675 -91 2278 -91 
Q 1328 -91 801 392 
Q 275 875 275 1747 
Q 275 2603 792 3093 
Q 1309 3584 2216 3584 
Q 3041 3584 3536 3087 
Q 4031 2591 4031 1759 
z
M 2881 2131 
Q 2881 2450 2695 2645 
Q 2509 2841 2209 2841 
Q 1884 2841 1681 2658 
Q 1478 2475 1428 2131 
L 2881 2131 
z
" transform="scale(0.015625)"/>
      <path id="DejaVuSans-Bold-6e" d="M 4056 2131 
L 4056 0 
L 2931 0 
L 2931 347 
L 2931 1631 
Q 2931 2084 2911 2256 
Q 2891 2428 2841 2509 
Q 2775 2619 2662 2680 
Q 2550 2741 2406 2741 
Q 2056 2741 1856 2470 
Q 1656 2200 1656 1722 
L 1656 0 
L 538 0 
L 538 3500 
L 1656 3500 
L 1656 2988 
Q 1909 3294 2193 3439 
Q 2478 3584 2822 3584 
Q 3428 3584 3742 3212 
Q 4056 2841 4056 2131 
z
" transform="scale(0.015625)"/>
      <path id="DejaVuSans-Bold-63" d="M 3366 3391 
L 3366 2478 
Q 3138 2634 2908 2709 
Q 2678 2784 2431 2784 
Q 1963 2784 1702 2511 
Q 1441 2238 1441 1747 
Q 1441 1256 1702 982 
Q 1963 709 2431 709 
Q 2694 709 2930 787 
Q 3166 866 3366 1019 
L 3366 103 
Q 3103 6 2833 -42 
Q 2563 -91 2291 -91 
Q 1344 -91 809 395 
Q 275 881 275 1747 
Q 275 2613 809 3098 
Q 1344 3584 2291 3584 
Q 2566 3584 2833 3536 
Q 3100 3488 3366 3391 
z
" transform="scale(0.015625)"/>
      <path id="DejaVuSans-Bold-2c" d="M 653 1209 
L 1778 1209 
L 1778 256 
L 1006 -909 
L 341 -909 
L 653 256 
L 653 1209 
z
" transform="scale(0.015625)"/>
      <path id="DejaVuSans-Bold-64" d="M 2919 2988 
L 2919 4863 
L 4044 4863 
L 4044 0 
L 2919 0 
L 2919 506 
Q 2688 197 2409 53 
Q 2131 -91 1766 -91 
Q 1119 -91 703 423 
Q 288 938 288 1747 
Q 288 2556 703 3070 
Q 1119 3584 1766 3584 
Q 2128 3584 2408 3439 
Q 2688 3294 2919 2988 
z
M 2181 722 
Q 2541 722 2730 984 
Q 2919 1247 2919 1747 
Q 2919 2247 2730 2509 
Q 2541 2772 2181 2772 
Q 1825 2772 1636 2509 
Q 1447 2247 1447 1747 
Q 1447 1247 1636 984 
Q 1825 722 2181 722 
z
" transform="scale(0.015625)"/>
      <path id="DejaVuSans-Bold-76" d="M 97 3500 
L 1216 3500 
L 2088 1081 
L 2956 3500 
L 4078 3500 
L 2700 0 
L 1472 0 
L 97 3500 
z
" transform="scale(0.015625)"/>
      <path id="DejaVuSans-Bold-6f" d="M 2203 2784 
Q 1831 2784 1636 2517 
Q 1441 2250 1441 1747 
Q 1441 1244 1636 976 
Q 1831 709 2203 709 
Q 2569 709 2762 976 
Q 2956 1244 2956 1747 
Q 2956 2250 2762 2517 
Q 2569 2784 2203 2784 
z
M 2203 3584 
Q 3106 3584 3614 3096 
Q 4122 2609 4122 1747 
Q 4122 884 3614 396 
Q 3106 -91 2203 -91 
Q 1297 -91 786 396 
Q 275 884 275 1747 
Q 275 2609 786 3096 
Q 1297 3584 2203 3584 
z
" transform="scale(0.015625)"/>
      <path id="DejaVuSans-Bold-6d" d="M 3781 2919 
Q 3994 3244 4286 3414 
Q 4578 3584 4928 3584 
Q 5531 3584 5847 3212 
Q 6163 2841 6163 2131 
L 6163 0 
L 5038 0 
L 5038 1825 
Q 5041 1866 5042 1909 
Q 5044 1953 5044 2034 
Q 5044 2406 4934 2573 
Q 4825 2741 4581 2741 
Q 4263 2741 4089 2478 
Q 3916 2216 3909 1719 
L 3909 0 
L 2784 0 
L 2784 1825 
Q 2784 2406 2684 2573 
Q 2584 2741 2328 2741 
Q 2006 2741 1831 2477 
Q 1656 2213 1656 1722 
L 1656 0 
L 531 0 
L 531 3500 
L 1656 3500 
L 1656 2988 
Q 1863 3284 2130 3434 
Q 2397 3584 2719 3584 
Q 3081 3584 3359 3409 
Q 3638 3234 3781 2919 
z
" transform="scale(0.015625)"/>
      <path id="DejaVuSans-Bold-74" d="M 1759 4494 
L 1759 3500 
L 2913 3500 
L 2913 2700 
L 1759 2700 
L 1759 1216 
Q 1759 972 1856 886 
Q 1953 800 2241 800 
L 2816 800 
L 2816 0 
L 1856 0 
Q 1194 0 917 276 
Q 641 553 641 1216 
L 641 2700 
L 84 2700 
L 84 3500 
L 641 3500 
L 641 4494 
L 1759 4494 
z
" transform="scale(0.015625)"/>
     </defs>
     <use xlink:href="#DejaVuSans-Bold-55"/>
     <use xlink:href="#DejaVuSans-Bold-48" transform="translate(81.201172 0)"/>
     <use xlink:href="#DejaVuSans-Bold-45" transform="translate(164.892578 0)"/>
     <use xlink:href="#DejaVuSans-Bold-20" transform="translate(233.203125 0)"/>
     <use xlink:href="#DejaVuSans-Bold-4a" transform="translate(268.017578 0)"/>
     <use xlink:href="#DejaVuSans-Bold-75" transform="translate(305.224609 0)"/>
     <use xlink:href="#DejaVuSans-Bold-70" transform="translate(376.416016 0)"/>
     <use xlink:href="#DejaVuSans-Bold-69" transform="translate(447.998047 0)"/>
     <use xlink:href="#DejaVuSans-Bold-61" transform="translate(482.275391 0)"/>
     <use xlink:href="#DejaVuSans-Bold-20" transform="translate(549.755859 0)"/>
     <use xlink:href="#DejaVuSans-Bold-2d" transform="translate(584.570312 0)"/>
     <use xlink:href="#DejaVuSans-Bold-20" transform="translate(626.074219 0)"/>
     <use xlink:href="#DejaVuSans-Bold-61" transform="translate(660.888672 0)"/>
     <use xlink:href="#DejaVuSans-Bold-66" transform="translate(728.369141 0)"/>
     <use xlink:href="#DejaVuSans-Bold-6c" transform="translate(771.875 0)"/>
     <use xlink:href="#DejaVuSans-Bold-75" transform="translate(806.152344 0)"/>
     <use xlink:href="#DejaVuSans-Bold-65" transform="translate(877.34375 0)"/>
     <use xlink:href="#DejaVuSans-Bold-6e" transform="translate(945.166016 0)"/>
     <use xlink:href="#DejaVuSans-Bold-63" transform="translate(1016.357422 0)"/>
     <use xlink:href="#DejaVuSans-Bold-69" transform="translate(1075.634766 0)"/>
     <use xlink:href="#DejaVuSans-Bold-61" transform="translate(1109.912109 0)"/>
     <use xlink:href="#DejaVuSans-Bold-2c" transform="translate(1177.392578 0)"/>
     <use xlink:href="#DejaVuSans-Bold-20" transform="translate(1215.380859 0)"/>
     <use xlink:href="#DejaVuSans-Bold-64" transform="translate(1250.195312 0)"/>
     <use xlink:href="#DejaVuSans-Bold-65" transform="translate(1321.777344 0)"/>
     <use xlink:href="#DejaVuSans-Bold-66" transform="translate(1389.599609 0)"/>
     <use xlink:href="#DejaVuSans-Bold-6c" transform="translate(1433.105469 0)"/>
     <use xlink:href="#DejaVuSans-Bold-75" transform="translate(1467.382812 0)"/>
     <use xlink:href="#DejaVuSans-Bold-65" transform="translate(1538.574219 0)"/>
     <use xlink:href="#DejaVuSans-Bold-6e" transform="translate(1606.396484 0)"/>
     <use xlink:href="#DejaVuSans-Bold-63" transform="translate(1677.587891 0)"/>
     <use xlink:href="#DejaVuSans-Bold-69" transform="translate(1736.865234 0)"/>
     <use xlink:href="#DejaVuSans-Bold-61" transform="translate(1771.142578 0)"/>
     <use xlink:href="#DejaVuSans-Bold-20" transform="translate(1838.623047 0)"/>
     <use xlink:href="#DejaVuSans-Bold-65" transform="translate(1873.4375 0)"/>
     <use xlink:href="#DejaVuSans-Bold-20" transform="translate(1941.259766 0)"/>
     <use xlink:href="#DejaVuSans-Bold-76" transform="translate(1976.074219 0)"/>
     <use xlink:href="#DejaVuSans-Bold-6f" transform="translate(2041.259766 0)"/>
     <use xlink:href="#DejaVuSans-Bold-6c" transform="translate(2109.960938 0)"/>
     <use xlink:href="#DejaVuSans-Bold-75" transform="translate(2144.238281 0)"/>
     <use xlink:href="#DejaVuSans-Bold-6d" transform="translate(2215.429688 0)"/>
     <use xlink:href="#DejaVuSans-Bold-65" transform="translate(2319.628906 0)"/>
     <use xlink:href="#DejaVuSans-Bold-20" transform="translate(2387.451172 0)"/>
     <use xlink:href="#DejaVuSans-Bold-75" transform="translate(2422.265625 0)"/>
     <use xlink:href="#DejaVuSans-Bold-74" transform="translate(2493.457031 0)"/>
     <use xlink:href="#DejaVuSans-Bold-69" transform="translate(2541.259766 0)"/>
     <use xlink:href="#DejaVuSans-Bold-6c" transform="translate(2575.537109 0)"/>
    </g>
   </g>
   <g id="legend_1">
    <g id="line2d_20">
     <path d="M 248.338281 376.926962 
L 258.338281 376.926962 
L 268.338281 376.926962 
" style="fill: none; stroke: #1b75bb; stroke-width: 2; stroke-linecap: square"/>
    </g>
    <g id="text_16">
     <!-- Afluencia -->
     <g transform="translate(276.338281 380.426962) scale(0.1 -0.1)">
      <use xlink:href="#DejaVuSans-41"/>
      <use xlink:href="#DejaVuSans-66" transform="translate(64.783203 0)"/>
      <use xlink:href="#DejaVuSans-6c" transform="translate(99.988281 0)"/>
      <use xlink:href="#DejaVuSans-75" transform="translate(127.771484 0)"/>
      <use xlink:href="#DejaVuSans-65" transform="translate(191.150391 0)"/>
      <use xlink:href="#DejaVuSans-6e" transform="translate(252.673828 0)"/>
      <use xlink:href="#DejaVuSans-63" transform="translate(316.052734 0)"/>
      <use xlink:href="#DejaVuSans-69" transform="translate(371.033203 0)"/>
      <use xlink:href="#DejaVuSans-61" transform="translate(398.816406 0)"/>
     </g>
    </g>
    <g id="line2d_21">
     <path d="M 342.347656 376.926962 
L 352.347656 376.926962 
L 362.347656 376.926962 
" style="fill: none; stroke: #0f7b5f; stroke-width: 2; stroke-linecap: square"/>
    </g>
    <g id="text_17">
     <!-- Defluencia -->
     <g transform="translate(370.347656 380.426962) scale(0.1 -0.1)">
      <defs>
       <path id="DejaVuSans-44" d="M 1259 4147 
L 1259 519 
L 2022 519 
Q 2988 519 3436 956 
Q 3884 1394 3884 2338 
Q 3884 3275 3436 3711 
Q 2988 4147 2022 4147 
L 1259 4147 
z
M 628 4666 
L 1925 4666 
Q 3281 4666 3915 4102 
Q 4550 3538 4550 2338 
Q 4550 1131 3912 565 
Q 3275 0 1925 0 
L 628 0 
L 628 4666 
z
" transform="scale(0.015625)"/>
      </defs>
      <use xlink:href="#DejaVuSans-44"/>
      <use xlink:href="#DejaVuSans-65" transform="translate(77.001953 0)"/>
      <use xlink:href="#DejaVuSans-66" transform="translate(138.525391 0)"/>
      <use xlink:href="#DejaVuSans-6c" transform="translate(173.730469 0)"/>
      <use xlink:href="#DejaVuSans-75" transform="translate(201.513672 0)"/>
      <use xlink:href="#DejaVuSans-65" transform="translate(264.892578 0)"/>
      <use xlink:href="#DejaVuSans-6e" transform="translate(326.416016 0)"/>
      <use xlink:href="#DejaVuSans-63" transform="translate(389.794922 0)"/>
      <use xlink:href="#DejaVuSans-69" transform="translate(444.775391 0)"/>
      <use xlink:href="#DejaVuSans-61" transform="translate(472.558594 0)"/>
     </g>
    </g>
    <g id="line2d_22">
     <path d="M 443.732031 376.926962 
L 453.732031 376.926962 
L 463.732031 376.926962 
" style="fill: none; stroke: #c75d2c; stroke-width: 1.8; stroke-linecap: square"/>
    </g>
    <g id="text_18">
     <!-- Volume util -->
     <g transform="translate(471.732031 380.426962) scale(0.1 -0.1)">
      <use xlink:href="#DejaVuSans-56"/>
      <use xlink:href="#DejaVuSans-6f" transform="translate(60.658203 0)"/>
      <use xlink:href="#DejaVuSans-6c" transform="translate(121.839844 0)"/>
      <use xlink:href="#DejaVuSans-75" transform="translate(149.623047 0)"/>
      <use xlink:href="#DejaVuSans-6d" transform="translate(213.001953 0)"/>
      <use xlink:href="#DejaVuSans-65" transform="translate(310.414062 0)"/>
      <use xlink:href="#DejaVuSans-20" transform="translate(371.9375 0)"/>
      <use xlink:href="#DejaVuSans-75" transform="translate(403.724609 0)"/>
      <use xlink:href="#DejaVuSans-74" transform="translate(467.103516 0)"/>
      <use xlink:href="#DejaVuSans-69" transform="translate(506.3125 0)"/>
      <use xlink:href="#DejaVuSans-6c" transform="translate(534.095703 0)"/>
     </g>
    </g>
   </g>
  </g>
  <g id="axes_2">
   <g id="matplotlib.axis_3">
    <g id="ytick_6">
     <g id="line2d_23">
      <defs>
       <path id="m3262351373" d="M 0 0 
L 3.5 0 
" style="stroke: #475569; stroke-width: 0.8"/>
      </defs>
      <g>
       <use xlink:href="#m3262351373" x="722.928125" y="313.929033" style="fill: #475569; stroke: #475569; stroke-width: 0.8"/>
      </g>
     </g>
     <g id="text_19">
      <!-- 86.0 -->
      <g style="fill: #475569" transform="translate(729.928125 317.728251) scale(0.1 -0.1)">
       <use xlink:href="#DejaVuSans-38"/>
       <use xlink:href="#DejaVuSans-36" transform="translate(63.623047 0)"/>
       <use xlink:href="#DejaVuSans-2e" transform="translate(127.246094 0)"/>
       <use xlink:href="#DejaVuSans-30" transform="translate(159.033203 0)"/>
      </g>
     </g>
    </g>
    <g id="ytick_7">
     <g id="line2d_24">
      <g>
       <use xlink:href="#m3262351373" x="722.928125" y="274.96324" style="fill: #475569; stroke: #475569; stroke-width: 0.8"/>
      </g>
     </g>
     <g id="text_20">
      <!-- 86.5 -->
      <g style="fill: #475569" transform="translate(729.928125 278.762459) scale(0.1 -0.1)">
       <use xlink:href="#DejaVuSans-38"/>
       <use xlink:href="#DejaVuSans-36" transform="translate(63.623047 0)"/>
       <use xlink:href="#DejaVuSans-2e" transform="translate(127.246094 0)"/>
       <use xlink:href="#DejaVuSans-35" transform="translate(159.033203 0)"/>
      </g>
     </g>
    </g>
    <g id="ytick_8">
     <g id="line2d_25">
      <g>
       <use xlink:href="#m3262351373" x="722.928125" y="235.997447" style="fill: #475569; stroke: #475569; stroke-width: 0.8"/>
      </g>
     </g>
     <g id="text_21">
      <!-- 87.0 -->
      <g style="fill: #475569" transform="translate(729.928125 239.796666) scale(0.1 -0.1)">
       <use xlink:href="#DejaVuSans-38"/>
       <use xlink:href="#DejaVuSans-37" transform="translate(63.623047 0)"/>
       <use xlink:href="#DejaVuSans-2e" transform="translate(127.246094 0)"/>
       <use xlink:href="#DejaVuSans-30" transform="translate(159.033203 0)"/>
      </g>
     </g>
    </g>
    <g id="ytick_9">
     <g id="line2d_26">
      <g>
       <use xlink:href="#m3262351373" x="722.928125" y="197.031655" style="fill: #475569; stroke: #475569; stroke-width: 0.8"/>
      </g>
     </g>
     <g id="text_22">
      <!-- 87.5 -->
      <g style="fill: #475569" transform="translate(729.928125 200.830874) scale(0.1 -0.1)">
       <use xlink:href="#DejaVuSans-38"/>
       <use xlink:href="#DejaVuSans-37" transform="translate(63.623047 0)"/>
       <use xlink:href="#DejaVuSans-2e" transform="translate(127.246094 0)"/>
       <use xlink:href="#DejaVuSans-35" transform="translate(159.033203 0)"/>
      </g>
     </g>
    </g>
    <g id="ytick_10">
     <g id="line2d_27">
      <g>
       <use xlink:href="#m3262351373" x="722.928125" y="158.065862" style="fill: #475569; stroke: #475569; stroke-width: 0.8"/>
      </g>
     </g>
     <g id="text_23">
      <!-- 88.0 -->
      <g style="fill: #475569" transform="translate(729.928125 161.865081) scale(0.1 -0.1)">
       <use xlink:href="#DejaVuSans-38"/>
       <use xlink:href="#DejaVuSans-38" transform="translate(63.623047 0)"/>
       <use xlink:href="#DejaVuSans-2e" transform="translate(127.246094 0)"/>
       <use xlink:href="#DejaVuSans-30" transform="translate(159.033203 0)"/>
      </g>
     </g>
    </g>
    <g id="ytick_11">
     <g id="line2d_28">
      <g>
       <use xlink:href="#m3262351373" x="722.928125" y="119.10007" style="fill: #475569; stroke: #475569; stroke-width: 0.8"/>
      </g>
     </g>
     <g id="text_24">
      <!-- 88.5 -->
      <g style="fill: #475569" transform="translate(729.928125 122.899289) scale(0.1 -0.1)">
       <use xlink:href="#DejaVuSans-38"/>
       <use xlink:href="#DejaVuSans-38" transform="translate(63.623047 0)"/>
       <use xlink:href="#DejaVuSans-2e" transform="translate(127.246094 0)"/>
       <use xlink:href="#DejaVuSans-35" transform="translate(159.033203 0)"/>
      </g>
     </g>
    </g>
    <g id="ytick_12">
     <g id="line2d_29">
      <g>
       <use xlink:href="#m3262351373" x="722.928125" y="80.134277" style="fill: #475569; stroke: #475569; stroke-width: 0.8"/>
      </g>
     </g>
     <g id="text_25">
      <!-- 89.0 -->
      <g style="fill: #475569" transform="translate(729.928125 83.933496) scale(0.1 -0.1)">
       <defs>
        <path id="DejaVuSans-39" d="M 703 97 
L 703 672 
Q 941 559 1184 500 
Q 1428 441 1663 441 
Q 2288 441 2617 861 
Q 2947 1281 2994 2138 
Q 2813 1869 2534 1725 
Q 2256 1581 1919 1581 
Q 1219 1581 811 2004 
Q 403 2428 403 3163 
Q 403 3881 828 4315 
Q 1253 4750 1959 4750 
Q 2769 4750 3195 4129 
Q 3622 3509 3622 2328 
Q 3622 1225 3098 567 
Q 2575 -91 1691 -91 
Q 1453 -91 1209 -44 
Q 966 3 703 97 
z
M 1959 2075 
Q 2384 2075 2632 2365 
Q 2881 2656 2881 3163 
Q 2881 3666 2632 3958 
Q 2384 4250 1959 4250 
Q 1534 4250 1286 3958 
Q 1038 3666 1038 3163 
Q 1038 2656 1286 2365 
Q 1534 2075 1959 2075 
z
" transform="scale(0.015625)"/>
       </defs>
       <use xlink:href="#DejaVuSans-38"/>
       <use xlink:href="#DejaVuSans-39" transform="translate(63.623047 0)"/>
       <use xlink:href="#DejaVuSans-2e" transform="translate(127.246094 0)"/>
       <use xlink:href="#DejaVuSans-30" transform="translate(159.033203 0)"/>
      </g>
     </g>
    </g>
    <g id="ytick_13">
     <g id="line2d_30">
      <g>
       <use xlink:href="#m3262351373" x="722.928125" y="41.168485" style="fill: #475569; stroke: #475569; stroke-width: 0.8"/>
      </g>
     </g>
     <g id="text_26">
      <!-- 89.5 -->
      <g style="fill: #475569" transform="translate(729.928125 44.967704) scale(0.1 -0.1)">
       <use xlink:href="#DejaVuSans-38"/>
       <use xlink:href="#DejaVuSans-39" transform="translate(63.623047 0)"/>
       <use xlink:href="#DejaVuSans-2e" transform="translate(127.246094 0)"/>
       <use xlink:href="#DejaVuSans-35" transform="translate(159.033203 0)"/>
      </g>
     </g>
    </g>
    <g id="text_27">
     <!-- Volume util (%) -->
     <g style="fill: #334155" transform="translate(763.792188 213.1125) rotate(-90) scale(0.1 -0.1)">
      <defs>
       <path id="DejaVuSans-25" d="M 4653 2053 
Q 4381 2053 4226 1822 
Q 4072 1591 4072 1178 
Q 4072 772 4226 539 
Q 4381 306 4653 306 
Q 4919 306 5073 539 
Q 5228 772 5228 1178 
Q 5228 1588 5073 1820 
Q 4919 2053 4653 2053 
z
M 4653 2450 
Q 5147 2450 5437 2106 
Q 5728 1763 5728 1178 
Q 5728 594 5436 251 
Q 5144 -91 4653 -91 
Q 4153 -91 3862 251 
Q 3572 594 3572 1178 
Q 3572 1766 3864 2108 
Q 4156 2450 4653 2450 
z
M 1428 4353 
Q 1159 4353 1004 4120 
Q 850 3888 850 3481 
Q 850 3069 1003 2837 
Q 1156 2606 1428 2606 
Q 1700 2606 1854 2837 
Q 2009 3069 2009 3481 
Q 2009 3884 1853 4118 
Q 1697 4353 1428 4353 
z
M 4250 4750 
L 4750 4750 
L 1831 -91 
L 1331 -91 
L 4250 4750 
z
M 1428 4750 
Q 1922 4750 2215 4408 
Q 2509 4066 2509 3481 
Q 2509 2891 2217 2550 
Q 1925 2209 1428 2209 
Q 931 2209 642 2551 
Q 353 2894 353 3481 
Q 353 4063 643 4406 
Q 934 4750 1428 4750 
z
" transform="scale(0.015625)"/>
      </defs>
      <use xlink:href="#DejaVuSans-56"/>
      <use xlink:href="#DejaVuSans-6f" transform="translate(60.658203 0)"/>
      <use xlink:href="#DejaVuSans-6c" transform="translate(121.839844 0)"/>
      <use xlink:href="#DejaVuSans-75" transform="translate(149.623047 0)"/>
      <use xlink:href="#DejaVuSans-6d" transform="translate(213.001953 0)"/>
      <use xlink:href="#DejaVuSans-65" transform="translate(310.414062 0)"/>
      <use xlink:href="#DejaVuSans-20" transform="translate(371.9375 0)"/>
      <use xlink:href="#DejaVuSans-75" transform="translate(403.724609 0)"/>
      <use xlink:href="#DejaVuSans-74" transform="translate(467.103516 0)"/>
      <use xlink:href="#DejaVuSans-69" transform="translate(506.3125 0)"/>
      <use xlink:href="#DejaVuSans-6c" transform="translate(534.095703 0)"/>
      <use xlink:href="#DejaVuSans-20" transform="translate(561.878906 0)"/>
      <use xlink:href="#DejaVuSans-28" transform="translate(593.666016 0)"/>
      <use xlink:href="#DejaVuSans-25" transform="translate(632.679688 0)"/>
      <use xlink:href="#DejaVuSans-29" transform="translate(727.699219 0)"/>
     </g>
    </g>
   </g>
   <g id="line2d_31">
    <path d="M 608.901233 101.20908 
L 610.861918 95.749118 
L 612.887959 141.234975 
L 614.914 152.410682 
L 616.874684 161.143934 
L 618.900725 198.719966 
L 620.86141 216.474212 
L 622.887451 277.878854 
L 624.913492 273.75033 
L 626.743465 289.895996 
L 628.769506 300.745805 
L 630.73019 276.235058 
L 632.756231 299.880799 
L 634.716916 300.921984 
L 636.742957 266.782923 
L 638.768998 286.449829 
L 640.729683 313.378125 
L 642.755724 301.603961 
L 644.716409 304.362992 
L 646.742449 261.806478 
L 648.76849 280.762879 
L 650.663819 257.383404 
L 652.68986 229.224123 
L 654.650545 224.058015 
L 656.676586 167.650703 
L 658.637271 133.786075 
L 660.663312 143.956986 
L 662.689352 127.216845 
L 664.650037 94.016316 
L 666.676078 83.131871 
L 668.636763 82.011081 
L 670.662804 97.524077 
L 672.688845 80.766461 
L 674.518817 75.883165 
L 676.544858 64.429388 
L 678.505543 83.277519 
L 680.531584 114.478292 
L 682.492269 129.379564 
L 684.51831 99.679666 
L 686.544351 118.48066 
L 688.505036 101.794498 
L 690.531077 78.971368 
L 692.491761 36.178125 
L 692.491761 36.178125 
" clip-path="url(#p5a3ae66dbc)" style="fill: none; stroke: #c75d2c; stroke-width: 1.8; stroke-linecap: square"/>
   </g>
   <g id="patch_5">
    <path d="M 53.328125 327.238125 
L 53.328125 22.318125 
" style="fill: none; stroke: #000000; stroke-width: 0.8; stroke-linejoin: miter; stroke-linecap: square"/>
   </g>
   <g id="patch_6">
    <path d="M 53.328125 327.238125 
L 722.928125 327.238125 
" style="fill: none; stroke: #000000; stroke-width: 0.8; stroke-linejoin: miter; stroke-linecap: square"/>
   </g>
  </g>
 </g>
 <defs>
  <clipPath id="p5a3ae66dbc">
   <rect x="53.328125" y="22.318125" width="669.6" height="304.92"/>
  </clipPath>
 </defs>
</svg>
